<svg xmlns="http://www.w3.org/2000/svg" xmlns:xlink="http://www.w3.org/1999/xlink" xmlns:lucid="lucid" width="1979.06" height="1677.42"><g transform="translate(-81.35782993007132 98.12390952190344)" lucid:page-tab-id="0_0"><path d="M102.36 612.06a6 6 0 0 1 6-6h1925.06a6 6 0 0 1 6 6v940.24a6 6 0 0 1-6 6H108.36a6 6 0 0 1-6-6z" stroke="#282c33" stroke-width="2" fill="#fff"/><use xlink:href="#a" transform="matrix(1,0,0,1,114.35782993007138,618.0625610468212) translate(916.9074074074074 467.76215277777777)"/><path d="M102.36-71.12a6 6 0 0 1 6-6h1925.06a6 6 0 0 1 6 6v642.07a6 6 0 0 1-6 6H108.36a6 6 0 0 1-6-6z" stroke="#282c33" stroke-width="2" fill="#fff"/><use xlink:href="#a" transform="matrix(1,0,0,1,114.35782993007138,-65.12390952190344) translate(916.9074074074074 323.41840277777777)"/><path d="M233.57 715.13a6 6 0 0 1 6-6H1941.2a6 6 0 0 1 6 6v347.56a6 6 0 0 1-6 6H239.56a6 6 0 0 1-6-6z" stroke="#282c33" stroke-width="2" fill="#fff0f0"/><use xlink:href="#a" transform="matrix(1,0,0,1,245.56956052658302,721.1294659002019) translate(804.9074074074074 170.02777777777777)"/><path d="M233.57 17.6a6 6 0 0 1 6-6H1941.2a6 6 0 0 1 6 6v347.56a6 6 0 0 1-6 6H239.56a6 6 0 0 1-6-6z" stroke="#282c33" stroke-width="2" fill="#fff0f0"/><use xlink:href="#a" transform="matrix(1,0,0,1,245.56956052658302,23.600000000000023) translate(804.9074074074074 170.02777777777777)"/><path d="M446.13 240.93c0 6.63-26.86 12-60 12-33.13 0-60-5.37-60-12v-96c0-6.62 26.87-12 60-12 33.14 0 60 5.38 60 12z" stroke="#282c33" stroke-width="2" fill="#fff"/><path d="M446.13 144.93c0 6.63-26.86 12-60 12-33.13 0-60-5.37-60-12" stroke="#282c33" stroke-width="2" fill="none"/><use xlink:href="#b" transform="matrix(1,0,0,1,331.13333333333344,161.93333333333345) translate(11.876543209876552 36.63194444444444)"/><use xlink:href="#c" transform="matrix(1,0,0,1,331.13333333333344,161.93333333333345) translate(67.09876543209876 36.63194444444444)"/><use xlink:href="#d" transform="matrix(1,0,0,1,331.13333333333344,161.93333333333345) translate(7.577160493827165 55.29861111111111)"/><use xlink:href="#e" transform="matrix(1,0,0,1,331.13333333333344,161.93333333333345) translate(59.29938271604938 55.29861111111111)"/><path d="M535.2 138.93a6 6 0 0 1 6-6h148a6 6 0 0 1 6 6v108a6 6 0 0 1-6 6h-148a6 6 0 0 1-6-6z" stroke="#282c33" stroke-width="2" fill="#edf5ff"/><use xlink:href="#f" transform="matrix(1,0,0,1,547.2000000000002,144.93333333333345) translate(33.086419753086425 51.44444444444444)"/><path d="M784.27 80.13a6 6 0 0 1 6-6h114.66a6 6 0 0 1 6 6v222.94a6 6 0 0 1-6 6H790.27a6 6 0 0 1-6-6z" stroke="#000" stroke-opacity="0" stroke-width="2" fill-opacity="0"/><use xlink:href="#a" transform="matrix(1,0,0,1,796.2666666666669,86.13333333333347) translate(11.407407407407412 110.09027777777777)"/><path d="M803.7 79.93a7.8 7.8 0 0 1 7.54-5.8h93.7a4.6 4.6 0 0 1 4.45 5.8L891.5 147a7.8 7.8 0 0 1-7.54 5.8h-93.7a4.6 4.6 0 0 1-4.45-5.8z" stroke="#282c33" stroke-width="2" fill="#fff"/><use xlink:href="#g" transform="matrix(1,0,0,1,789.2666666666669,79.13333333333347) translate(18.17166666666668 36.541666666666664)"/><use xlink:href="#h" transform="matrix(1,0,0,1,789.2666666666669,79.13333333333347) translate(62.54203703703703 36.541666666666664)"/><use xlink:href="#i" transform="matrix(1,0,0,1,789.2666666666669,79.13333333333347) translate(91.43092592592592 36.541666666666664)"/><path d="M803.7 130.6a7.8 7.8 0 0 1 7.54-5.8h93.7a4.6 4.6 0 0 1 4.45 5.8l-17.9 67.07a7.8 7.8 0 0 1-7.54 5.8h-93.7a4.6 4.6 0 0 1-4.45-5.8z" stroke="#282c33" stroke-width="2" fill="#fff"/><use xlink:href="#g" transform="matrix(1,0,0,1,789.2666666666669,129.80000000000018) translate(18.17166666666668 36.541666666666664)"/><use xlink:href="#h" transform="matrix(1,0,0,1,789.2666666666669,129.80000000000018) translate(62.54203703703703 36.541666666666664)"/><use xlink:href="#j" transform="matrix(1,0,0,1,789.2666666666669,129.80000000000018) translate(91.43092592592592 36.541666666666664)"/><path d="M803.7 184.2a7.8 7.8 0 0 1 7.54-5.8h93.7a4.6 4.6 0 0 1 4.45 5.8l-17.9 67.07a7.8 7.8 0 0 1-7.54 5.8h-93.7a4.6 4.6 0 0 1-4.45-5.8z" stroke="#282c33" stroke-width="2" fill="#fff"/><use xlink:href="#g" transform="matrix(1,0,0,1,789.2666666666669,183.40000000000003) translate(18.17166666666668 36.541666666666664)"/><use xlink:href="#h" transform="matrix(1,0,0,1,789.2666666666669,183.40000000000003) translate(62.54203703703703 36.541666666666664)"/><use xlink:href="#k" transform="matrix(1,0,0,1,789.2666666666669,183.40000000000003) translate(91.43092592592592 36.541666666666664)"/><path d="M803.7 236.2a7.8 7.8 0 0 1 7.54-5.8h93.7a4.6 4.6 0 0 1 4.45 5.8l-17.9 67.07a7.8 7.8 0 0 1-7.54 5.8h-93.7a4.6 4.6 0 0 1-4.45-5.8z" stroke="#282c33" stroke-width="2" fill="#fff"/><use xlink:href="#g" transform="matrix(1,0,0,1,789.2666666666669,235.4) translate(17.079074074074093 36.541666666666664)"/><use xlink:href="#h" transform="matrix(1,0,0,1,789.2666666666669,235.4) translate(61.449444444444445 36.541666666666664)"/><use xlink:href="#l" transform="matrix(1,0,0,1,789.2666666666669,235.4) translate(90.33833333333332 36.541666666666664)"/><path d="M1000 138.93a6 6 0 0 1 6-6h148a6 6 0 0 1 6 6v108a6 6 0 0 1-6 6h-148a6 6 0 0 1-6-6z" stroke="#282c33" stroke-width="2" fill="#d7faf5"/><use xlink:href="#m" transform="matrix(1,0,0,1,1012.0000000000003,144.93333333333345) translate(2.450617283950635 42.44444444444444)"/><use xlink:href="#n" transform="matrix(1,0,0,1,1012.0000000000003,144.93333333333345) translate(71.54320987654322 42.44444444444444)"/><use xlink:href="#o" transform="matrix(1,0,0,1,1012.0000000000003,144.93333333333345) translate(105.98148148148148 42.44444444444444)"/><use xlink:href="#p" transform="matrix(1,0,0,1,1012.0000000000003,144.93333333333345) translate(27.858024691358032 61.11111111111111)"/><path d="M1249.07 137.6a6 6 0 0 1 6-6h148a6 6 0 0 1 6 6v108a6 6 0 0 1-6 6h-148a6 6 0 0 1-6-6z" stroke="#282c33" stroke-width="2" fill="#fff"/><use xlink:href="#q" transform="matrix(1,0,0,1,1261.066666666667,143.60000000000002) translate(12.324074074074076 42.44444444444444)"/><use xlink:href="#r" transform="matrix(1,0,0,1,1261.066666666667,143.60000000000002) translate(64.99691358024691 42.44444444444444)"/><use xlink:href="#s" transform="matrix(1,0,0,1,1261.066666666667,143.60000000000002) translate(8.8888888888889 61.11111111111111)"/><use xlink:href="#t" transform="matrix(1,0,0,1,1261.066666666667,143.60000000000002) translate(78.80246913580247 61.11111111111111)"/><path d="M1498.13 80.13a6 6 0 0 1 6-6h128.3a6 6 0 0 1 6 6v222.94a6 6 0 0 1-6 6h-128.3a6 6 0 0 1-6-6z" stroke="#000" stroke-opacity="0" stroke-width="2" fill-opacity="0"/><use xlink:href="#a" transform="matrix(1,0,0,1,1510.1333333333337,86.13333333333344) translate(18.407407407407412 110.09027777777777)"/><path d="M1517.57 79.93a7.8 7.8 0 0 1 7.54-5.8h107.33a4.6 4.6 0 0 1 4.46 5.8L1619 147a7.8 7.8 0 0 1-7.55 5.8h-107.32a4.6 4.6 0 0 1-4.45-5.8z" stroke="#282c33" stroke-width="2" fill="#fff"/><use xlink:href="#u" transform="matrix(1,0,0,1,1503.133333333334,79.13333333333344) translate(14.801296296296316 36.541666666666664)"/><use xlink:href="#v" transform="matrix(1,0,0,1,1503.133333333334,79.13333333333344) translate(79.91240740740741 36.541666666666664)"/><use xlink:href="#w" transform="matrix(1,0,0,1,1503.133333333334,79.13333333333344) translate(108.80129629629627 36.541666666666664)"/><path d="M1517.57 130.6a7.8 7.8 0 0 1 7.54-5.8h107.33a4.6 4.6 0 0 1 4.46 5.8l-17.9 67.07a7.8 7.8 0 0 1-7.55 5.8h-107.32a4.6 4.6 0 0 1-4.45-5.8z" stroke="#282c33" stroke-width="2" fill="#fff"/><use xlink:href="#x" transform="matrix(1,0,0,1,1503.133333333334,129.80000000000015) translate(14.801296296296316 36.541666666666664)"/><use xlink:href="#h" transform="matrix(1,0,0,1,1503.133333333334,129.80000000000015) translate(79.91240740740741 36.541666666666664)"/><use xlink:href="#j" transform="matrix(1,0,0,1,1503.133333333334,129.80000000000015) translate(108.80129629629627 36.541666666666664)"/><path d="M1517.57 184.2a7.8 7.8 0 0 1 7.54-5.8h107.33a4.6 4.6 0 0 1 4.46 5.8l-17.9 67.07a7.8 7.8 0 0 1-7.55 5.8h-107.32a4.6 4.6 0 0 1-4.45-5.8z" stroke="#282c33" stroke-width="2" fill="#fff"/><use xlink:href="#x" transform="matrix(1,0,0,1,1503.133333333334,183.4) translate(14.801296296296316 36.541666666666664)"/><use xlink:href="#h" transform="matrix(1,0,0,1,1503.133333333334,183.4) translate(79.91240740740741 36.541666666666664)"/><use xlink:href="#k" transform="matrix(1,0,0,1,1503.133333333334,183.4) translate(108.80129629629627 36.541666666666664)"/><path d="M1517.57 236.2a7.8 7.8 0 0 1 7.54-5.8h107.33a4.6 4.6 0 0 1 4.46 5.8l-17.9 67.07a7.8 7.8 0 0 1-7.55 5.8h-107.32a4.6 4.6 0 0 1-4.45-5.8z" stroke="#282c33" stroke-width="2" fill="#fff"/><use xlink:href="#x" transform="matrix(1,0,0,1,1503.133333333334,235.39999999999995) translate(13.708703703703728 36.541666666666664)"/><use xlink:href="#h" transform="matrix(1,0,0,1,1503.133333333334,235.39999999999995) translate(78.81981481481482 36.541666666666664)"/><use xlink:href="#l" transform="matrix(1,0,0,1,1503.133333333334,235.39999999999995) translate(107.70870370370369 36.541666666666664)"/><path d="M1727.5 137.6a6 6 0 0 1 6-6h148a6 6 0 0 1 6 6v108a6 6 0 0 1-6 6h-148a6 6 0 0 1-6-6z" stroke="#282c33" stroke-width="2" fill="#fff"/><use xlink:href="#y" transform="matrix(1,0,0,1,1739.4996261746137,143.60000000000008) translate(2.6882716049382935 33.44444444444444)"/><use xlink:href="#z" transform="matrix(1,0,0,1,1739.4996261746137,143.60000000000008) translate(28.830246913580265 33.44444444444444)"/><use xlink:href="#A" transform="matrix(1,0,0,1,1739.4996261746137,143.60000000000008) translate(65.90432098765433 33.44444444444444)"/><use xlink:href="#B" transform="matrix(1,0,0,1,1739.4996261746137,143.60000000000008) translate(91.83024691358024 33.44444444444444)"/><use xlink:href="#C" transform="matrix(1,0,0,1,1739.4996261746137,143.60000000000008) translate(22.67283950617285 52.11111111111111)"/><use xlink:href="#D" transform="matrix(1,0,0,1,1739.4996261746137,143.60000000000008) translate(39.9567901234568 52.11111111111111)"/><use xlink:href="#E" transform="matrix(1,0,0,1,1739.4996261746137,143.60000000000008) translate(35.67901234567901 70.77777777777777)"/><path d="M1000 433.15a6 6 0 0 1 6-6h148a6 6 0 0 1 6 6v108a6 6 0 0 1-6 6h-148a6 6 0 0 1-6-6z" stroke="#282c33" stroke-width="2" fill="#fff"/><use xlink:href="#F" transform="matrix(1,0,0,1,1012.0000000000003,439.1534994442088) translate(31.790123456790127 51.44444444444444)"/><path d="M446.13 535.15c0 6.63-26.86 12-60 12-33.13 0-60-5.37-60-12v-96c0-6.62 26.87-12 60-12 33.14 0 60 5.38 60 12z" stroke="#282c33" stroke-width="2" fill="#fff"/><path d="M446.13 439.15c0 6.63-26.86 12-60 12-33.13 0-60-5.37-60-12" stroke="#282c33" stroke-width="2" fill="none"/><use xlink:href="#G" transform="matrix(1,0,0,1,331.13333333333344,456.1534994442088) translate(14.447530864197539 17.819444444444443)"/><use xlink:href="#H" transform="matrix(1,0,0,1,331.13333333333344,456.1534994442088) translate(1.484567901234584 36.48611111111111)"/><use xlink:href="#I" transform="matrix(1,0,0,1,331.13333333333344,456.1534994442088) translate(54.15740740740741 36.48611111111111)"/><use xlink:href="#J" transform="matrix(1,0,0,1,331.13333333333344,456.1534994442088) translate(10.14814814814816 55.15277777777777)"/><use xlink:href="#K" transform="matrix(1,0,0,1,331.13333333333344,456.1534994442088) translate(45.49382716049383 55.15277777777777)"/><use xlink:href="#L" transform="matrix(1,0,0,1,331.13333333333344,456.1534994442088) translate(39.46604938271605 73.81944444444443)"/><path d="M447.63 192.93h70.2" stroke="#3a414a" fill="none"/><path d="M447.65 193.4h-.52v-.94h.52z" stroke="#3a414a" stroke-width=".05" fill="#3a414a"/><path d="M532.58 192.93l-14.26 4.64v-9.27z" stroke="#3a414a" fill="#3a414a"/><path d="M696.7 192.93h71.18" stroke="#3a414a" fill="none"/><path d="M696.7 193.4h-.5v-.94h.5z" stroke="#3a414a" stroke-width=".05" fill="#3a414a"/><path d="M782.65 192.93l-14.27 4.64v-9.27z" stroke="#3a414a" fill="#3a414a"/><path d="M911.43 192.93h71.2" stroke="#3a414a" fill="none"/><path d="M911.45 193.4h-.52v-.94h.52z" stroke="#3a414a" stroke-width=".05" fill="#3a414a"/><path d="M997.38 192.93l-14.26 4.64v-9.27z" stroke="#3a414a" fill="#3a414a"/><path d="M1161.5 192.93h70.18" stroke="#3a414a" fill="none"/><path d="M1161.5 193.4h-.5v-.94h.5z" stroke="#3a414a" stroke-width=".05" fill="#3a414a"/><path d="M1246.45 192.93l-14.27 4.64v-9.27z" stroke="#3a414a" fill="#3a414a"/><path d="M1410.57 191.6h71.18" stroke="#3a414a" fill="none"/><path d="M1410.58 192.07h-.5v-.94h.5z" stroke="#3a414a" stroke-width=".05" fill="#3a414a"/><path d="M1496.52 191.6l-14.27 4.64v-9.28z" stroke="#3a414a" fill="#3a414a"/><path d="M1636.45 191.6h73.67" stroke="#3a414a" fill="none"/><path d="M1636.46 192.07h-.64l.26-.95h.38z" stroke="#3a414a" stroke-width=".05" fill="#3a414a"/><path d="M1724.88 191.6l-14.26 4.63v-9.27z" stroke="#3a414a" fill="#3a414a"/><path d="M1080 254.43v155.34" stroke="#3a414a" fill="none"/><path d="M1080.47 254.45h-.94v-.52h.94z" stroke="#3a414a" stroke-width=".05" fill="#3a414a"/><path d="M1080 424.54l-4.63-14.27h9.27z" stroke="#3a414a" fill="#3a414a"/><use xlink:href="#M" transform="matrix(1,0,0,1,1088.0000000000002,329.3767497221044) translate(0 14.222222222222223)"/><use xlink:href="#N" transform="matrix(1,0,0,1,1088.0000000000002,329.3767497221044) translate(75.80246913580248 14.222222222222223)"/><path d="M447.63 487.15h535" stroke="#3a414a" fill="none"/><path d="M447.65 487.63h-.52v-.95h.52z" stroke="#3a414a" stroke-width=".05" fill="#3a414a"/><path d="M997.38 487.15l-14.26 4.64v-9.28z" stroke="#3a414a" fill="#3a414a"/><use xlink:href="#O" transform="matrix(1,0,0,1,662.0049632716049,461.82016611087545) translate(0 14.222222222222223)"/><use xlink:href="#N" transform="matrix(1,0,0,1,662.0049632716049,461.82016611087545) translate(89.67901234567901 14.222222222222223)"/><path d="M446.13 938.25c0 6.62-26.86 12-60 12-33.13 0-60-5.38-60-12v-96c0-6.63 26.87-12 60-12 33.14 0 60 5.37 60 12z" stroke="#282c33" stroke-width="2" fill="#fff"/><path d="M446.13 842.25c0 6.62-26.86 12-60 12-33.13 0-60-5.38-60-12" stroke="#282c33" stroke-width="2" fill="none"/><use xlink:href="#b" transform="matrix(1,0,0,1,331.13333333333367,859.2454225814358) translate(11.876543209876552 36.63194444444444)"/><use xlink:href="#c" transform="matrix(1,0,0,1,331.13333333333367,859.2454225814358) translate(67.09876543209876 36.63194444444444)"/><use xlink:href="#d" transform="matrix(1,0,0,1,331.13333333333367,859.2454225814358) translate(7.577160493827165 55.29861111111111)"/><use xlink:href="#e" transform="matrix(1,0,0,1,331.13333333333367,859.2454225814358) translate(59.29938271604938 55.29861111111111)"/><path d="M535.2 836.25a6 6 0 0 1 6-6h148a6 6 0 0 1 6 6v108a6 6 0 0 1-6 6h-148a6 6 0 0 1-6-6z" stroke="#282c33" stroke-width="2" fill="#edf5ff"/><use xlink:href="#f" transform="matrix(1,0,0,1,547.2000000000004,842.2454225814358) translate(33.086419753086425 51.44444444444444)"/><path d="M784.27 777.45a6 6 0 0 1 6-6h114.66a6 6 0 0 1 6 6v222.93a6 6 0 0 1-6 6H790.27a6 6 0 0 1-6-6z" stroke="#000" stroke-opacity="0" stroke-width="2" fill-opacity="0"/><use xlink:href="#a" transform="matrix(1,0,0,1,796.2666666666671,783.4454225814359) translate(11.407407407407412 110.09027777777777)"/><path d="M803.7 777.24a7.8 7.8 0 0 1 7.54-5.8h93.7a4.6 4.6 0 0 1 4.45 5.8l-17.9 67.08a7.8 7.8 0 0 1-7.54 5.8h-93.7a4.6 4.6 0 0 1-4.45-5.8z" stroke="#282c33" stroke-width="2" fill="#fff"/><use xlink:href="#g" transform="matrix(1,0,0,1,789.2666666666671,776.4454225814358) translate(18.17166666666668 36.541666666666664)"/><use xlink:href="#h" transform="matrix(1,0,0,1,789.2666666666671,776.4454225814358) translate(62.54203703703703 36.541666666666664)"/><use xlink:href="#i" transform="matrix(1,0,0,1,789.2666666666671,776.4454225814358) translate(91.43092592592592 36.541666666666664)"/><path d="M803.7 827.9a7.8 7.8 0 0 1 7.54-5.8h93.7a4.6 4.6 0 0 1 4.45 5.8L891.5 895a7.8 7.8 0 0 1-7.54 5.8h-93.7a4.6 4.6 0 0 1-4.45-5.8z" stroke="#282c33" stroke-width="2" fill="#fff"/><use xlink:href="#g" transform="matrix(1,0,0,1,789.2666666666671,827.1120892481026) translate(18.17166666666668 36.541666666666664)"/><use xlink:href="#h" transform="matrix(1,0,0,1,789.2666666666671,827.1120892481026) translate(62.54203703703703 36.541666666666664)"/><use xlink:href="#j" transform="matrix(1,0,0,1,789.2666666666671,827.1120892481026) translate(91.43092592592592 36.541666666666664)"/><path d="M803.7 881.5a7.8 7.8 0 0 1 7.54-5.8h93.7a4.6 4.6 0 0 1 4.45 5.8l-17.9 67.08a7.8 7.8 0 0 1-7.54 5.8h-93.7a4.6 4.6 0 0 1-4.45-5.8z" stroke="#282c33" stroke-width="2" fill="#fff"/><use xlink:href="#g" transform="matrix(1,0,0,1,789.2666666666671,880.7120892481025) translate(18.17166666666668 36.541666666666664)"/><use xlink:href="#h" transform="matrix(1,0,0,1,789.2666666666671,880.7120892481025) translate(62.54203703703703 36.541666666666664)"/><use xlink:href="#k" transform="matrix(1,0,0,1,789.2666666666671,880.7120892481025) translate(91.43092592592592 36.541666666666664)"/><path d="M803.7 933.5a7.8 7.8 0 0 1 7.54-5.8h93.7a4.6 4.6 0 0 1 4.45 5.8l-17.9 67.08a7.8 7.8 0 0 1-7.54 5.8h-93.7a4.6 4.6 0 0 1-4.45-5.8z" stroke="#282c33" stroke-width="2" fill="#fff"/><use xlink:href="#g" transform="matrix(1,0,0,1,789.2666666666671,932.7120892481024) translate(17.079074074074093 36.541666666666664)"/><use xlink:href="#h" transform="matrix(1,0,0,1,789.2666666666671,932.7120892481024) translate(61.449444444444445 36.541666666666664)"/><use xlink:href="#l" transform="matrix(1,0,0,1,789.2666666666671,932.7120892481024) translate(90.33833333333332 36.541666666666664)"/><path d="M1000 836.25a6 6 0 0 1 6-6h148a6 6 0 0 1 6 6v108a6 6 0 0 1-6 6h-148a6 6 0 0 1-6-6z" stroke="#282c33" stroke-width="2" fill="#d7faf5"/><use xlink:href="#m" transform="matrix(1,0,0,1,1012.0000000000005,842.2454225814358) translate(2.450617283950635 42.44444444444444)"/><use xlink:href="#n" transform="matrix(1,0,0,1,1012.0000000000005,842.2454225814358) translate(71.54320987654322 42.44444444444444)"/><use xlink:href="#o" transform="matrix(1,0,0,1,1012.0000000000005,842.2454225814358) translate(105.98148148148148 42.44444444444444)"/><use xlink:href="#p" transform="matrix(1,0,0,1,1012.0000000000005,842.2454225814358) translate(27.858024691358032 61.11111111111111)"/><path d="M1249.07 834.9a6 6 0 0 1 6-6h148a6 6 0 0 1 6 6v108a6 6 0 0 1-6 6h-148a6 6 0 0 1-6-6z" stroke="#282c33" stroke-width="2" fill="#fff"/><use xlink:href="#q" transform="matrix(1,0,0,1,1261.066666666667,840.9120892481025) translate(12.324074074074076 42.44444444444444)"/><use xlink:href="#r" transform="matrix(1,0,0,1,1261.066666666667,840.9120892481025) translate(64.99691358024691 42.44444444444444)"/><use xlink:href="#s" transform="matrix(1,0,0,1,1261.066666666667,840.9120892481025) translate(8.8888888888889 61.11111111111111)"/><use xlink:href="#t" transform="matrix(1,0,0,1,1261.066666666667,840.9120892481025) translate(78.80246913580247 61.11111111111111)"/><path d="M1498.13 777.45a6 6 0 0 1 6-6h128.3a6 6 0 0 1 6 6v222.93a6 6 0 0 1-6 6h-128.3a6 6 0 0 1-6-6z" stroke="#000" stroke-opacity="0" stroke-width="2" fill-opacity="0"/><use xlink:href="#a" transform="matrix(1,0,0,1,1510.1333333333337,783.4454225814359) translate(18.407407407407412 110.09027777777777)"/><path d="M1517.57 777.24a7.8 7.8 0 0 1 7.54-5.8h107.33a4.6 4.6 0 0 1 4.46 5.8l-17.9 67.08a7.8 7.8 0 0 1-7.55 5.8h-107.32a4.6 4.6 0 0 1-4.45-5.8z" stroke="#282c33" stroke-width="2" fill="#fff"/><use xlink:href="#u" transform="matrix(1,0,0,1,1503.1333333333341,776.4454225814358) translate(14.801296296296316 36.541666666666664)"/><use xlink:href="#v" transform="matrix(1,0,0,1,1503.1333333333341,776.4454225814358) translate(79.91240740740741 36.541666666666664)"/><use xlink:href="#w" transform="matrix(1,0,0,1,1503.1333333333341,776.4454225814358) translate(108.80129629629627 36.541666666666664)"/><path d="M1517.57 827.9a7.8 7.8 0 0 1 7.54-5.8h107.33a4.6 4.6 0 0 1 4.46 5.8L1619 895a7.8 7.8 0 0 1-7.55 5.8h-107.32a4.6 4.6 0 0 1-4.45-5.8z" stroke="#282c33" stroke-width="2" fill="#fff"/><use xlink:href="#x" transform="matrix(1,0,0,1,1503.1333333333341,827.1120892481026) translate(14.801296296296316 36.541666666666664)"/><use xlink:href="#h" transform="matrix(1,0,0,1,1503.1333333333341,827.1120892481026) translate(79.91240740740741 36.541666666666664)"/><use xlink:href="#j" transform="matrix(1,0,0,1,1503.1333333333341,827.1120892481026) translate(108.80129629629627 36.541666666666664)"/><path d="M1517.57 881.5a7.8 7.8 0 0 1 7.54-5.8h107.33a4.6 4.6 0 0 1 4.46 5.8L1619 948.6a7.8 7.8 0 0 1-7.55 5.8h-107.32a4.6 4.6 0 0 1-4.45-5.8z" stroke="#282c33" stroke-width="2" fill="#fff"/><use xlink:href="#x" transform="matrix(1,0,0,1,1503.1333333333341,880.7120892481024) translate(14.801296296296316 36.541666666666664)"/><use xlink:href="#h" transform="matrix(1,0,0,1,1503.1333333333341,880.7120892481024) translate(79.91240740740741 36.541666666666664)"/><use xlink:href="#k" transform="matrix(1,0,0,1,1503.1333333333341,880.7120892481024) translate(108.80129629629627 36.541666666666664)"/><path d="M1517.57 933.5a7.8 7.8 0 0 1 7.54-5.8h107.33a4.6 4.6 0 0 1 4.46 5.8l-17.9 67.08a7.8 7.8 0 0 1-7.55 5.8h-107.32a4.6 4.6 0 0 1-4.45-5.8z" stroke="#282c33" stroke-width="2" fill="#fff"/><use xlink:href="#x" transform="matrix(1,0,0,1,1503.1333333333341,932.7120892481024) translate(13.708703703703728 36.541666666666664)"/><use xlink:href="#h" transform="matrix(1,0,0,1,1503.1333333333341,932.7120892481024) translate(78.81981481481482 36.541666666666664)"/><use xlink:href="#l" transform="matrix(1,0,0,1,1503.1333333333341,932.7120892481024) translate(107.70870370370369 36.541666666666664)"/><path d="M1727.5 834.9a6 6 0 0 1 6-6h148a6 6 0 0 1 6 6v108a6 6 0 0 1-6 6h-148a6 6 0 0 1-6-6z" stroke="#282c33" stroke-width="2" fill="#fff"/><use xlink:href="#y" transform="matrix(1,0,0,1,1739.4996261746137,840.9120892481026) translate(2.6882716049382935 33.44444444444444)"/><use xlink:href="#z" transform="matrix(1,0,0,1,1739.4996261746137,840.9120892481026) translate(28.830246913580265 33.44444444444444)"/><use xlink:href="#A" transform="matrix(1,0,0,1,1739.4996261746137,840.9120892481026) translate(65.90432098765433 33.44444444444444)"/><use xlink:href="#B" transform="matrix(1,0,0,1,1739.4996261746137,840.9120892481026) translate(91.83024691358024 33.44444444444444)"/><use xlink:href="#C" transform="matrix(1,0,0,1,1739.4996261746137,840.9120892481026) translate(22.67283950617285 52.11111111111111)"/><use xlink:href="#D" transform="matrix(1,0,0,1,1739.4996261746137,840.9120892481026) translate(39.9567901234568 52.11111111111111)"/><use xlink:href="#E" transform="matrix(1,0,0,1,1739.4996261746137,840.9120892481026) translate(35.67901234567901 70.77777777777777)"/><path d="M1000 1370.47a6 6 0 0 1 6-6h148a6 6 0 0 1 6 6v108a6 6 0 0 1-6 6h-148a6 6 0 0 1-6-6z" stroke="#282c33" stroke-width="2" fill="#fff"/><use xlink:href="#F" transform="matrix(1,0,0,1,1012.0000000000005,1376.4655886923113) translate(31.790123456790127 51.44444444444444)"/><path d="M446.13 1472.47c0 6.62-26.86 12-60 12-33.13 0-60-5.38-60-12v-96c0-6.63 26.87-12 60-12 33.14 0 60 5.37 60 12z" stroke="#282c33" stroke-width="2" fill="#fff"/><path d="M446.13 1376.47c0 6.62-26.86 12-60 12-33.13 0-60-5.38-60-12" stroke="#282c33" stroke-width="2" fill="none"/><use xlink:href="#G" transform="matrix(1,0,0,1,331.13333333333367,1393.4655886923113) translate(14.447530864197539 17.819444444444443)"/><use xlink:href="#H" transform="matrix(1,0,0,1,331.13333333333367,1393.4655886923113) translate(1.484567901234584 36.48611111111111)"/><use xlink:href="#I" transform="matrix(1,0,0,1,331.13333333333367,1393.4655886923113) translate(54.15740740740741 36.48611111111111)"/><use xlink:href="#J" transform="matrix(1,0,0,1,331.13333333333367,1393.4655886923113) translate(10.14814814814816 55.15277777777777)"/><use xlink:href="#K" transform="matrix(1,0,0,1,331.13333333333367,1393.4655886923113) translate(45.49382716049383 55.15277777777777)"/><use xlink:href="#L" transform="matrix(1,0,0,1,331.13333333333367,1393.4655886923113) translate(39.46604938271605 73.81944444444443)"/><path d="M1498.13 1370.47a6 6 0 0 1 6-6h148a6 6 0 0 1 6 6v108a6 6 0 0 1-6 6h-148a6 6 0 0 1-6-6z" stroke="#282c33" stroke-width="2" fill="#fcfcca"/><use xlink:href="#P" transform="matrix(1,0,0,1,1510.1333333333337,1376.4655886923113) translate(42.1388888888889 42.44444444444444)"/><use xlink:href="#Q" transform="matrix(1,0,0,1,1510.1333333333337,1376.4655886923113) translate(26.54012345679014 61.1111111111111)"/><path d="M1737.35 1370.47a6 6 0 0 1 6-6h148a6 6 0 0 1 6 6v108a6 6 0 0 1-6 6h-148a6 6 0 0 1-6-6z" stroke="#282c33" stroke-width="2" fill="#fff"/><use xlink:href="#R" transform="matrix(1,0,0,1,1749.3498130873068,1376.4655886923113) translate(17.595679012345684 51.44444444444444)"/><use xlink:href="#S" transform="matrix(1,0,0,1,1749.3498130873068,1376.4655886923113) translate(76.14506172839506 51.44444444444444)"/><path d="M447.63 890.25h70.2" stroke="#3a414a" fill="none"/><path d="M447.65 890.72h-.52v-.95h.52z" stroke="#3a414a" stroke-width=".05" fill="#3a414a"/><path d="M532.58 890.25l-14.26 4.63v-9.27z" stroke="#3a414a" fill="#3a414a"/><path d="M696.7 890.25h71.18" stroke="#3a414a" fill="none"/><path d="M696.7 890.72h-.5v-.95h.5z" stroke="#3a414a" stroke-width=".05" fill="#3a414a"/><path d="M782.65 890.25l-14.27 4.63v-9.27z" stroke="#3a414a" fill="#3a414a"/><path d="M911.43 890.25h71.2" stroke="#3a414a" fill="none"/><path d="M911.45 890.72h-.52v-.95h.52z" stroke="#3a414a" stroke-width=".05" fill="#3a414a"/><path d="M997.38 890.25l-14.26 4.63v-9.27z" stroke="#3a414a" fill="#3a414a"/><path d="M1161.5 890.25h70.18" stroke="#3a414a" fill="none"/><path d="M1161.5 890.72h-.5v-.95h.5z" stroke="#3a414a" stroke-width=".05" fill="#3a414a"/><path d="M1246.45 890.25l-14.27 4.63v-9.27z" stroke="#3a414a" fill="#3a414a"/><path d="M1410.57 888.9h71.18" stroke="#3a414a" fill="none"/><path d="M1410.58 889.4h-.5v-.96h.5z" stroke="#3a414a" stroke-width=".05" fill="#3a414a"/><path d="M1496.52 888.9l-14.27 4.65v-9.27z" stroke="#3a414a" fill="#3a414a"/><path d="M1636.56 888.5h44.52a.2.2 0 0 1 .2.2.2.2 0 0 0 .2.2h28.64" stroke="#3a414a" fill="none"/><path d="M1636.57 888.98h-.64l.25-.95h.4z" stroke="#3a414a" stroke-width=".05" fill="#3a414a"/><path d="M1724.88 888.9l-14.26 4.64v-9.26z" stroke="#3a414a" fill="#3a414a"/><path d="M447.63 1424.47h535" stroke="#3a414a" fill="none"/><path d="M447.65 1424.94h-.52v-.95h.52z" stroke="#3a414a" stroke-width=".05" fill="#3a414a"/><path d="M997.38 1424.47l-14.26 4.63v-9.27z" stroke="#3a414a" fill="#3a414a"/><g><use xlink:href="#O" transform="matrix(1,0,0,1,662.0049632716051,1399.132255358978) translate(0 14.222222222222223)"/><use xlink:href="#N" transform="matrix(1,0,0,1,662.0049632716051,1399.132255358978) translate(89.67901234567901 14.222222222222223)"/></g><path d="M1659.63 1424.47h60.34" stroke="#3a414a" fill="none"/><path d="M1659.65 1424.94h-.52v-.95h.52z" stroke="#3a414a" stroke-width=".05" fill="#3a414a"/><path d="M1734.73 1424.47l-14.26 4.63v-9.27z" stroke="#3a414a" fill="#3a414a"/><path d="M1000 1026.92a6 6 0 0 1 6-6h148a6 6 0 0 1 6 6v108a6 6 0 0 1-6 6h-148a6 6 0 0 1-6-6z" stroke="#282c33" stroke-width="2" fill="#fff"/><g><use xlink:href="#T" transform="matrix(1,0,0,1,1012.0000000000005,1032.916762829523) translate(18.39506172839507 42.44444444444444)"/><use xlink:href="#U" transform="matrix(1,0,0,1,1012.0000000000005,1032.916762829523) translate(84.85185185185185 42.44444444444444)"/><use xlink:href="#S" transform="matrix(1,0,0,1,1012.0000000000005,1032.916762829523) translate(46.870370370370374 61.11111111111111)"/></g><path d="M1080 951.75v51.78" stroke="#3a414a" fill="none"/><path d="M1080.47 951.76h-.94v-.5h.94z" stroke="#3a414a" stroke-width=".05" fill="#3a414a"/><path d="M1080 1018.3l-4.63-14.27h9.27z" stroke="#3a414a" fill="#3a414a"/><path d="M336.6 1026.7a7.8 7.8 0 0 1 7.53-5.78h116a4.6 4.6 0 0 1 4.46 5.8l-28.92 108.4a7.8 7.8 0 0 1-7.55 5.8h-116a4.6 4.6 0 0 1-4.45-5.8z" stroke="#282c33" stroke-width="2" fill="#fff"/><g><use xlink:href="#V" transform="matrix(1,0,0,1,311.13333333333344,1025.916762829523) translate(30.87845679012347 50.25694444444444)"/><use xlink:href="#U" transform="matrix(1,0,0,1,311.13333333333344,1025.916762829523) translate(90.37845679012347 50.25694444444444)"/><use xlink:href="#S" transform="matrix(1,0,0,1,311.13333333333344,1025.916762829523) translate(50.87537037037037 68.92361111111111)"/></g><path d="M1075.2 1196.3a8 8 0 0 1 9.6 0l70.4 52.8a4.5 4.5 0 0 1 0 7.2l-70.4 52.8a8 8 0 0 1-9.6 0l-70.4-52.8a4.5 4.5 0 0 1 0-7.2z" stroke="#282c33" stroke-width="2" fill="#fff"/><g><use xlink:href="#W" transform="matrix(1,0,0,1,1005.0000000000005,1197.691175760917) translate(50.418580246913585 39.94444444444444)"/><use xlink:href="#U" transform="matrix(1,0,0,1,1005.0000000000005,1197.691175760917) translate(66.83833333333334 39.94444444444444)"/><use xlink:href="#X" transform="matrix(1,0,0,1,1005.0000000000005,1197.691175760917) translate(18.940185185185193 58.61111111111111)"/><use xlink:href="#Y" transform="matrix(1,0,0,1,1005.0000000000005,1197.691175760917) translate(65.52043209876544 58.61111111111111)"/><use xlink:href="#o" transform="matrix(1,0,0,1,1005.0000000000005,1197.691175760917) translate(103.5019135802469 58.61111111111111)"/><use xlink:href="#Z" transform="matrix(1,0,0,1,1005.0000000000005,1197.691175760917) translate(55.62537037037037 77.27777777777777)"/></g><path d="M1080 1142.42v34.88" stroke="#3a414a" fill="none"/><path d="M1080.47 1142.43h-.94v-.5h.94z" stroke="#3a414a" stroke-width=".05" fill="#3a414a"/><path d="M1080 1192.07l-4.63-14.26h9.27z" stroke="#3a414a" fill="#3a414a"/><path d="M1080 1312.7v32.26" stroke="#008a0e" stroke-width="2" fill="none"/><path d="M1080 1311.7l.97-.07v1.1h-1.94v-1.1z" stroke="#008a0e" stroke-width=".05" fill="#008a0e"/><path d="M1080 1360.23l-4.63-14.27h9.27z" stroke="#008a0e" stroke-width="2" fill="#008a0e"/><g><use xlink:href="#aa" transform="matrix(1,0,0,1,1092.6352549156247,1326.912767405154) translate(0 14.222222222222223)"/></g><path d="M1159 1252.7h36a6 6 0 0 0 6-6V1086.9a6 6 0 0 0-6-6h-15.5" stroke="#e81313" stroke-width="2" fill="none"/><path d="M1159.03 1253.67h-1.12l.1-.98-.1-.98h1.13z" stroke="#e81313" stroke-width=".05" fill="#e81313"/><path d="M1164.24 1080.92l14.26-4.64v9.27z" stroke="#e81313" stroke-width="2" fill="#e81313"/><g><use xlink:href="#ab" transform="matrix(1,0,0,1,1208.999950000001,1157.6351411614223) translate(0 14.222222222222223)"/></g><path d="M1279.52 1370.26a7.8 7.8 0 0 1 7.55-5.8h116a4.6 4.6 0 0 1 4.45 5.8l-28.9 108.4a7.8 7.8 0 0 1-7.55 5.8h-116a4.6 4.6 0 0 1-4.46-5.8z" stroke="#282c33" stroke-width="2" fill="#fff"/><g><use xlink:href="#ac" transform="matrix(1,0,0,1,1254.066666666667,1369.4655886923113) translate(45.88771604938273 39.94444444444444)"/><use xlink:href="#ad" transform="matrix(1,0,0,1,1254.066666666667,1369.4655886923113) translate(39.980308641975306 58.61111111111111)"/><use xlink:href="#ae" transform="matrix(1,0,0,1,1254.066666666667,1369.4655886923113) translate(96.06672839506173 58.61111111111111)"/><use xlink:href="#af" transform="matrix(1,0,0,1,1254.066666666667,1369.4655886923113) translate(39.8012962962963 77.27777777777777)"/></g><path d="M1161.5 1424.47h86.15" stroke="#3a414a" fill="none"/><path d="M1161.5 1424.94h-.5v-.95h.5z" stroke="#3a414a" stroke-width=".05" fill="#3a414a"/><path d="M1262.4 1424.47l-14.25 4.63v-9.27z" stroke="#3a414a" fill="#3a414a"/><path d="M1394.6 1424.47h86.15" stroke="#3a414a" fill="none"/><path d="M1394.6 1424.94h-.63l.26-.95h.38z" stroke="#3a414a" stroke-width=".05" fill="#3a414a"/><path d="M1495.52 1424.47l-14.27 4.63v-9.27z" stroke="#3a414a" fill="#3a414a"/><path d="M1498.13 433.15a6 6 0 0 1 6-6h148a6 6 0 0 1 6 6v108a6 6 0 0 1-6 6h-148a6 6 0 0 1-6-6z" stroke="#282c33" stroke-width="2" fill="#fcfcca"/><g><use xlink:href="#P" transform="matrix(1,0,0,1,1510.1333333333337,439.1534994442088) translate(42.1388888888889 42.44444444444444)"/><use xlink:href="#Q" transform="matrix(1,0,0,1,1510.1333333333337,439.1534994442088) translate(26.54012345679014 61.1111111111111)"/></g><path d="M1737.35 433.15a6 6 0 0 1 6-6h148a6 6 0 0 1 6 6v108a6 6 0 0 1-6 6h-148a6 6 0 0 1-6-6z" stroke="#282c33" stroke-width="2" fill="#fff"/><g><use xlink:href="#R" transform="matrix(1,0,0,1,1749.3498130873068,439.1534994442088) translate(17.595679012345684 51.44444444444444)"/><use xlink:href="#S" transform="matrix(1,0,0,1,1749.3498130873068,439.1534994442088) translate(76.14506172839506 51.44444444444444)"/></g><path d="M1659.63 487.15h60.34" stroke="#3a414a" fill="none"/><path d="M1659.65 487.63h-.52v-.95h.52z" stroke="#3a414a" stroke-width=".05" fill="#3a414a"/><path d="M1734.73 487.15l-14.26 4.64v-9.28z" stroke="#3a414a" fill="#3a414a"/><path d="M1279.52 432.95a7.8 7.8 0 0 1 7.55-5.8h116a4.6 4.6 0 0 1 4.45 5.8l-28.9 108.4a7.8 7.8 0 0 1-7.55 5.8h-116a4.6 4.6 0 0 1-4.46-5.8z" stroke="#282c33" stroke-width="2" fill="#fff"/><g><use xlink:href="#ac" transform="matrix(1,0,0,1,1254.066666666667,432.1534994442088) translate(45.88771604938273 39.94444444444444)"/><use xlink:href="#ad" transform="matrix(1,0,0,1,1254.066666666667,432.1534994442088) translate(17.554382716049382 58.61111111111111)"/><use xlink:href="#C" transform="matrix(1,0,0,1,1254.066666666667,432.1534994442088) translate(73.6408024691358 58.61111111111111)"/><use xlink:href="#ag" transform="matrix(1,0,0,1,1254.066666666667,432.1534994442088) translate(90.92475308641976 58.61111111111111)"/><use xlink:href="#ah" transform="matrix(1,0,0,1,1254.066666666667,432.1534994442088) translate(53.174753086419756 77.27777777777777)"/></g><path d="M1161.5 487.15h86.15M1161.5 487.15h-.5" stroke="#3a414a" fill="none"/><path d="M1262.4 487.15l-14.25 4.64v-9.28z" stroke="#3a414a" fill="#3a414a"/><path d="M1394.6 487.15h86.15" stroke="#3a414a" fill="none"/><path d="M1394.6 487.63h-.63l.26-.95h.38z" stroke="#3a414a" stroke-width=".05" fill="#3a414a"/><path d="M1495.52 487.15l-14.27 4.64v-9.28z" stroke="#3a414a" fill="#3a414a"/><path d="M451.67 1080.92h530.95" stroke="#3a414a" fill="none"/><path d="M451.68 1081.4h-.64l.25-.96h.38z" stroke="#3a414a" stroke-width=".05" fill="#3a414a"/><path d="M997.38 1080.92l-14.26 4.63v-9.27z" stroke="#3a414a" fill="#3a414a"/><path d="M181.5 17.6a6 6 0 0 1 6-6h228a6 6 0 0 1 6 6v48a6 6 0 0 1-6 6h-228a6 6 0 0 1-6-6z" stroke="#000" stroke-opacity="0" stroke-width="2" fill="#fff" fill-opacity="0"/><g><use xlink:href="#ai" transform="matrix(1,0,0,1,186.51330981830142,16.600000000000023) translate(59.777777777777786 31.138888888888886)"/><use xlink:href="#aj" transform="matrix(1,0,0,1,186.51330981830142,16.600000000000023) translate(152.93827160493828 31.138888888888886)"/></g><path d="M181.5 715.13a6 6 0 0 1 6-6h228a6 6 0 0 1 6 6v48a6 6 0 0 1-6 6h-228a6 6 0 0 1-6-6z" stroke="#000" stroke-opacity="0" stroke-width="2" fill="#fff" fill-opacity="0"/><g><use xlink:href="#ai" transform="matrix(1,0,0,1,186.51330981830142,714.1294659002019) translate(59.777777777777786 31.138888888888886)"/><use xlink:href="#aj" transform="matrix(1,0,0,1,186.51330981830142,714.1294659002019) translate(152.93827160493828 31.138888888888886)"/></g><path d="M102.36 607a6 6 0 0 1 6-6H536.5a6 6 0 0 1 6 6v83.35a6 6 0 0 1-6 6H108.36a6 6 0 0 1-6-6z" stroke="#000" stroke-opacity="0" stroke-width="2" fill="#fff" fill-opacity="0"/><g><use xlink:href="#ak" transform="matrix(1,0,0,1,107.35782993007138,606.0123337838811) translate(24.191358024691425 49.944444444444436)"/><use xlink:href="#al" transform="matrix(1,0,0,1,107.35782993007138,606.0123337838811) translate(197.62345679012344 49.944444444444436)"/><use xlink:href="#am" transform="matrix(1,0,0,1,107.35782993007138,606.0123337838811) translate(387.05555555555554 49.944444444444436)"/></g><path d="M102.36-71.12a6 6 0 0 1 6-6H536.5a6 6 0 0 1 6 6V12.2a6 6 0 0 1-6 6H108.36a6 6 0 0 1-6-6z" stroke="#000" stroke-opacity="0" stroke-width="2" fill="#fff" fill-opacity="0"/><g><use xlink:href="#ak" transform="matrix(1,0,0,1,107.35782993007132,-72.12390952190344) translate(24.191358024691425 49.944444444444436)"/><use xlink:href="#al" transform="matrix(1,0,0,1,107.35782993007132,-72.12390952190344) translate(197.62345679012344 49.944444444444436)"/><use xlink:href="#an" transform="matrix(1,0,0,1,107.35782993007132,-72.12390952190344) translate(387.05555555555554 49.944444444444436)"/></g><defs><path fill="#3a414a" d="M30-248c87 1 191-15 191 75 0 78-77 80-158 76V0H30v-248zm33 125c57 0 124 11 124-50 0-59-68-47-124-48v98" id="ao"/><path fill="#3a414a" d="M114-163C36-179 61-72 57 0H25l-1-190h30c1 12-1 29 2 39 6-27 23-49 58-41v29" id="ap"/><path fill="#3a414a" d="M100-194c62-1 85 37 85 99 1 63-27 99-86 99S16-35 15-95c0-66 28-99 85-99zM99-20c44 1 53-31 53-75 0-43-8-75-51-75s-53 32-53 75 10 74 51 75" id="aq"/><path fill="#3a414a" d="M96-169c-40 0-48 33-48 73s9 75 48 75c24 0 41-14 43-38l32 2c-6 37-31 61-74 61-59 0-76-41-82-99-10-93 101-131 147-64 4 7 5 14 7 22l-32 3c-4-21-16-35-41-35" id="ar"/><path fill="#3a414a" d="M100-194c63 0 86 42 84 106H49c0 40 14 67 53 68 26 1 43-12 49-29l28 8c-11 28-37 45-77 45C44 4 14-33 15-96c1-61 26-98 85-98zm52 81c6-60-76-77-97-28-3 7-6 17-6 28h103" id="as"/><path fill="#3a414a" d="M135-143c-3-34-86-38-87 0 15 53 115 12 119 90S17 21 10-45l28-5c4 36 97 45 98 0-10-56-113-15-118-90-4-57 82-63 122-42 12 7 21 19 24 35" id="at"/><g id="a"><use transform="matrix(0.06172839506172839,0,0,0.06172839506172839,0,0)" xlink:href="#ao"/><use transform="matrix(0.06172839506172839,0,0,0.06172839506172839,14.814814814814813,0)" xlink:href="#ap"/><use transform="matrix(0.06172839506172839,0,0,0.06172839506172839,22.160493827160494,0)" xlink:href="#aq"/><use transform="matrix(0.06172839506172839,0,0,0.06172839506172839,34.50617283950617,0)" xlink:href="#ar"/><use transform="matrix(0.06172839506172839,0,0,0.06172839506172839,45.61728395061728,0)" xlink:href="#as"/><use transform="matrix(0.06172839506172839,0,0,0.06172839506172839,57.962962962962955,0)" xlink:href="#at"/><use transform="matrix(0.06172839506172839,0,0,0.06172839506172839,69.07407407407406,0)" xlink:href="#at"/></g><path fill="#3a414a" d="M185-189c-5-48-123-54-124 2 14 75 158 14 163 119 3 78-121 87-175 55-17-10-28-26-33-46l33-7c5 56 141 63 141-1 0-78-155-14-162-118-5-82 145-84 179-34 5 7 8 16 11 25" id="au"/><path fill="#3a414a" d="M24-231v-30h32v30H24zM24 0v-190h32V0H24" id="av"/><path fill="#3a414a" d="M177-190C167-65 218 103 67 71c-23-6-38-20-44-43l32-5c15 47 100 32 89-28v-30C133-14 115 1 83 1 29 1 15-40 15-95c0-56 16-97 71-98 29-1 48 16 59 35 1-10 0-23 2-32h30zM94-22c36 0 50-32 50-73 0-42-14-75-50-75-39 0-46 34-46 75s6 73 46 73" id="aw"/><path fill="#3a414a" d="M117-194c89-4 53 116 60 194h-32v-121c0-31-8-49-39-48C34-167 62-67 57 0H25l-1-190h30c1 10-1 24 2 32 11-22 29-35 61-36" id="ax"/><path fill="#3a414a" d="M141-36C126-15 110 5 73 4 37 3 15-17 15-53c-1-64 63-63 125-63 3-35-9-54-41-54-24 1-41 7-42 31l-33-3c5-37 33-52 76-52 45 0 72 20 72 64v82c-1 20 7 32 28 27v20c-31 9-61-2-59-35zM48-53c0 20 12 33 32 33 41-3 63-29 60-74-43 2-92-5-92 41" id="ay"/><path fill="#3a414a" d="M24 0v-261h32V0H24" id="az"/><g id="b"><use transform="matrix(0.04320987654320987,0,0,0.04320987654320987,0,0)" xlink:href="#au"/><use transform="matrix(0.04320987654320987,0,0,0.04320987654320987,10.370370370370368,0)" xlink:href="#av"/><use transform="matrix(0.04320987654320987,0,0,0.04320987654320987,13.783950617283947,0)" xlink:href="#aw"/><use transform="matrix(0.04320987654320987,0,0,0.04320987654320987,22.42592592592592,0)" xlink:href="#ax"/><use transform="matrix(0.04320987654320987,0,0,0.04320987654320987,31.06790123456789,0)" xlink:href="#ay"/><use transform="matrix(0.04320987654320987,0,0,0.04320987654320987,39.709876543209866,0)" xlink:href="#az"/><use transform="matrix(0.04320987654320987,0,0,0.04320987654320987,43.12345679012345,0)" xlink:href="#at"/></g><path fill="#3a414a" d="M101-234c-31-9-42 10-38 44h38v23H63V0H32v-167H5v-23h27c-7-52 17-82 69-68v24" id="aA"/><path fill="#3a414a" d="M210-169c-67 3-38 105-44 169h-31v-121c0-29-5-50-35-48C34-165 62-65 56 0H25l-1-190h30c1 10-1 24 2 32 10-44 99-50 107 0 11-21 27-35 58-36 85-2 47 119 55 194h-31v-121c0-29-5-49-35-48" id="aB"/><g id="c"><use transform="matrix(0.04320987654320987,0,0,0.04320987654320987,0,0)" xlink:href="#aA"/><use transform="matrix(0.04320987654320987,0,0,0.04320987654320987,4.320987654320986,0)" xlink:href="#ap"/><use transform="matrix(0.04320987654320987,0,0,0.04320987654320987,9.462962962962962,0)" xlink:href="#aq"/><use transform="matrix(0.04320987654320987,0,0,0.04320987654320987,18.104938271604937,0)" xlink:href="#aB"/></g><path fill="#3a414a" d="M240 0l2-218c-23 76-54 145-80 218h-23L58-218 59 0H30v-248h44l77 211c21-75 51-140 76-211h43V0h-30" id="aC"/><path fill="#3a414a" d="M106-169C34-169 62-67 57 0H25v-261h32l-1 103c12-21 28-36 61-36 89 0 53 116 60 194h-32v-121c2-32-8-49-39-48" id="aD"/><g id="d"><use transform="matrix(0.04320987654320987,0,0,0.04320987654320987,0,0)" xlink:href="#aC"/><use transform="matrix(0.04320987654320987,0,0,0.04320987654320987,12.91975308641975,0)" xlink:href="#as"/><use transform="matrix(0.04320987654320987,0,0,0.04320987654320987,21.56172839506172,0)" xlink:href="#ax"/><use transform="matrix(0.04320987654320987,0,0,0.04320987654320987,30.2037037037037,0)" xlink:href="#aD"/><use transform="matrix(0.04320987654320987,0,0,0.04320987654320987,38.84567901234567,0)" xlink:href="#av"/><use transform="matrix(0.04320987654320987,0,0,0.04320987654320987,42.25925925925925,0)" xlink:href="#ap"/></g><path fill="#3a414a" d="M108 0H70L1-190h34L89-25l56-165h34" id="aE"/><g id="e"><use transform="matrix(0.04320987654320987,0,0,0.04320987654320987,0,0)" xlink:href="#at"/><use transform="matrix(0.04320987654320987,0,0,0.04320987654320987,7.777777777777776,0)" xlink:href="#as"/><use transform="matrix(0.04320987654320987,0,0,0.04320987654320987,16.41975308641975,0)" xlink:href="#ap"/><use transform="matrix(0.04320987654320987,0,0,0.04320987654320987,21.561728395061724,0)" xlink:href="#aE"/><use transform="matrix(0.04320987654320987,0,0,0.04320987654320987,29.3395061728395,0)" xlink:href="#as"/><use transform="matrix(0.04320987654320987,0,0,0.04320987654320987,37.981481481481474,0)" xlink:href="#ap"/></g><path fill="#3a414a" d="M212-179c-10-28-35-45-73-45-59 0-87 40-87 99 0 60 29 101 89 101 43 0 62-24 78-52l27 14C228-24 195 4 139 4 59 4 22-46 18-125c-6-104 99-153 187-111 19 9 31 26 39 46" id="aF"/><path fill="#3a414a" d="M84 4C-5 8 30-112 23-190h32v120c0 31 7 50 39 49 72-2 45-101 50-169h31l1 190h-30c-1-10 1-25-2-33-11 22-28 36-60 37" id="aG"/><path fill="#3a414a" d="M59-47c-2 24 18 29 38 22v24C64 9 27 4 27-40v-127H5v-23h24l9-43h21v43h35v23H59v120" id="aH"/><g id="f"><use transform="matrix(0.04320987654320987,0,0,0.04320987654320987,0,0)" xlink:href="#aF"/><use transform="matrix(0.04320987654320987,0,0,0.04320987654320987,11.191358024691356,0)" xlink:href="#az"/><use transform="matrix(0.04320987654320987,0,0,0.04320987654320987,14.604938271604935,0)" xlink:href="#aG"/><use transform="matrix(0.04320987654320987,0,0,0.04320987654320987,23.246913580246908,0)" xlink:href="#at"/><use transform="matrix(0.04320987654320987,0,0,0.04320987654320987,31.024691358024686,0)" xlink:href="#aH"/><use transform="matrix(0.04320987654320987,0,0,0.04320987654320987,35.34567901234567,0)" xlink:href="#as"/><use transform="matrix(0.04320987654320987,0,0,0.04320987654320987,43.987654320987644,0)" xlink:href="#ap"/><use transform="matrix(0.04320987654320987,0,0,0.04320987654320987,49.12962962962962,0)" xlink:href="#av"/><use transform="matrix(0.04320987654320987,0,0,0.04320987654320987,52.5432098765432,0)" xlink:href="#ax"/><use transform="matrix(0.04320987654320987,0,0,0.04320987654320987,61.18518518518517,0)" xlink:href="#aw"/></g><path fill="#3a414a" d="M33-154v-36h34v36H33zM33 0v-36h34V0H33" id="aI"/><g id="g"><use transform="matrix(0.03703703703703702,0,0,0.03703703703703702,0,0)" xlink:href="#au"/><use transform="matrix(0.03703703703703702,0,0,0.03703703703703702,8.888888888888886,0)" xlink:href="#av"/><use transform="matrix(0.03703703703703702,0,0,0.03703703703703702,11.81481481481481,0)" xlink:href="#aw"/><use transform="matrix(0.03703703703703702,0,0,0.03703703703703702,19.222222222222214,0)" xlink:href="#ax"/><use transform="matrix(0.03703703703703702,0,0,0.03703703703703702,26.62962962962962,0)" xlink:href="#ay"/><use transform="matrix(0.03703703703703702,0,0,0.03703703703703702,34.037037037037024,0)" xlink:href="#az"/><use transform="matrix(0.03703703703703702,0,0,0.03703703703703702,36.96296296296295,0)" xlink:href="#aI"/></g><path fill="#3a414a" d="M179-190L93 31C79 59 56 82 12 73V49c39 6 53-20 64-50L1-190h34L92-34l54-156h33" id="aJ"/><path fill="#3a414a" d="M115-194c55 1 70 41 70 98S169 2 115 4C84 4 66-9 55-30l1 105H24l-1-265h31l2 30c10-21 28-34 59-34zm-8 174c40 0 45-34 45-75s-6-73-45-74c-42 0-51 32-51 76 0 43 10 73 51 73" id="aK"/><g id="h"><use transform="matrix(0.03703703703703702,0,0,0.03703703703703702,0,0)" xlink:href="#aH"/><use transform="matrix(0.03703703703703702,0,0,0.03703703703703702,3.703703703703702,0)" xlink:href="#aJ"/><use transform="matrix(0.03703703703703702,0,0,0.03703703703703702,10.370370370370367,0)" xlink:href="#aK"/><use transform="matrix(0.03703703703703702,0,0,0.03703703703703702,17.777777777777768,0)" xlink:href="#as"/></g><path fill="#3a414a" d="M27 0v-27h64v-190l-56 39v-29l58-41h29v221h61V0H27" id="aL"/><use transform="matrix(0.03703703703703702,0,0,0.03703703703703702,0,0)" xlink:href="#aL" id="i"/><path fill="#3a414a" d="M101-251c82-7 93 87 43 132L82-64C71-53 59-42 53-27h129V0H18c2-99 128-94 128-182 0-28-16-43-45-43s-46 15-49 41l-32-3c6-41 34-60 81-64" id="aM"/><use transform="matrix(0.03703703703703702,0,0,0.03703703703703702,0,0)" xlink:href="#aM" id="j"/><path fill="#3a414a" d="M126-127c33 6 58 20 58 59 0 88-139 92-164 29-3-8-5-16-6-25l32-3c6 27 21 44 54 44 32 0 52-15 52-46 0-38-36-46-79-43v-28c39 1 72-4 72-42 0-27-17-43-46-43-28 0-47 15-49 41l-32-3c6-42 35-63 81-64 48-1 79 21 79 65 0 36-21 52-52 59" id="aN"/><use transform="matrix(0.03703703703703702,0,0,0.03703703703703702,0,0)" xlink:href="#aN" id="k"/><path fill="#3a414a" d="M190 0L58-211 59 0H30v-248h39L202-35l-2-213h31V0h-41" id="aO"/><use transform="matrix(0.03703703703703702,0,0,0.03703703703703702,0,0)" xlink:href="#aO" id="l"/><path fill="#3a414a" d="M143 4C61 4 22-44 18-125c-5-107 100-154 193-111 17 8 29 25 37 43l-32 9c-13-25-37-40-76-40-61 0-88 39-88 99 0 61 29 100 91 101 35 0 62-11 79-27v-45h-74v-28h105v86C228-13 192 4 143 4" id="aP"/><g id="m"><use transform="matrix(0.04320987654320987,0,0,0.04320987654320987,0,0)" xlink:href="#aP"/><use transform="matrix(0.04320987654320987,0,0,0.04320987654320987,12.098765432098762,0)" xlink:href="#as"/><use transform="matrix(0.04320987654320987,0,0,0.04320987654320987,20.740740740740733,0)" xlink:href="#ax"/><use transform="matrix(0.04320987654320987,0,0,0.04320987654320987,29.382716049382708,0)" xlink:href="#as"/><use transform="matrix(0.04320987654320987,0,0,0.04320987654320987,38.02469135802468,0)" xlink:href="#ap"/><use transform="matrix(0.04320987654320987,0,0,0.04320987654320987,43.16666666666666,0)" xlink:href="#ay"/><use transform="matrix(0.04320987654320987,0,0,0.04320987654320987,51.80864197530863,0)" xlink:href="#aH"/><use transform="matrix(0.04320987654320987,0,0,0.04320987654320987,56.12962962962962,0)" xlink:href="#as"/></g><path fill="#3a414a" d="M63-220v92h138v28H63V0H30v-248h175v28H63" id="aQ"/><path fill="#3a414a" d="M233-177c-1 41-23 64-60 70L243 0h-38l-65-103H63V0H30v-248c88 3 205-21 203 71zM63-129c60-2 137 13 137-47 0-61-80-42-137-45v92" id="aR"/><g id="n"><use transform="matrix(0.04320987654320987,0,0,0.04320987654320987,0,0)" xlink:href="#aQ"/><use transform="matrix(0.04320987654320987,0,0,0.04320987654320987,9.46296296296296,0)" xlink:href="#aR"/><use transform="matrix(0.04320987654320987,0,0,0.04320987654320987,20.654320987654316,0)" xlink:href="#aQ"/></g><path fill="#3a414a" d="M206 0h-36l-40-164L89 0H53L-1-190h32L70-26l43-164h34l41 164 42-164h31" id="aS"/><g id="o"><use transform="matrix(0.04320987654320987,0,0,0.04320987654320987,0,0)" xlink:href="#aS"/><use transform="matrix(0.04320987654320987,0,0,0.04320987654320987,11.191358024691356,0)" xlink:href="#av"/><use transform="matrix(0.04320987654320987,0,0,0.04320987654320987,14.604938271604935,0)" xlink:href="#aH"/><use transform="matrix(0.04320987654320987,0,0,0.04320987654320987,18.92592592592592,0)" xlink:href="#aD"/></g><g id="p"><use transform="matrix(0.04320987654320987,0,0,0.04320987654320987,0,0)" xlink:href="#aG"/><use transform="matrix(0.04320987654320987,0,0,0.04320987654320987,8.641975308641973,0)" xlink:href="#ax"/><use transform="matrix(0.04320987654320987,0,0,0.04320987654320987,17.283950617283946,0)" xlink:href="#ar"/><use transform="matrix(0.04320987654320987,0,0,0.04320987654320987,25.061728395061724,0)" xlink:href="#as"/><use transform="matrix(0.04320987654320987,0,0,0.04320987654320987,33.703703703703695,0)" xlink:href="#ap"/><use transform="matrix(0.04320987654320987,0,0,0.04320987654320987,38.84567901234567,0)" xlink:href="#aH"/><use transform="matrix(0.04320987654320987,0,0,0.04320987654320987,43.16666666666666,0)" xlink:href="#ay"/><use transform="matrix(0.04320987654320987,0,0,0.04320987654320987,51.80864197530863,0)" xlink:href="#aH"/><use transform="matrix(0.04320987654320987,0,0,0.04320987654320987,56.12962962962962,0)" xlink:href="#av"/><use transform="matrix(0.04320987654320987,0,0,0.04320987654320987,59.543209876543195,0)" xlink:href="#ax"/><use transform="matrix(0.04320987654320987,0,0,0.04320987654320987,68.18518518518518,0)" xlink:href="#aH"/><use transform="matrix(0.04320987654320987,0,0,0.04320987654320987,72.50617283950616,0)" xlink:href="#aJ"/></g><path fill="#3a414a" d="M30 0v-248h187v28H63v79h144v27H63v87h162V0H30" id="aT"/><path fill="#3a414a" d="M141 0L90-78 38 0H4l68-98-65-92h35l48 74 47-74h35l-64 92 68 98h-35" id="aU"/><g id="q"><use transform="matrix(0.04320987654320987,0,0,0.04320987654320987,0,0)" xlink:href="#aT"/><use transform="matrix(0.04320987654320987,0,0,0.04320987654320987,10.370370370370368,0)" xlink:href="#aU"/><use transform="matrix(0.04320987654320987,0,0,0.04320987654320987,18.148148148148145,0)" xlink:href="#aH"/><use transform="matrix(0.04320987654320987,0,0,0.04320987654320987,22.469135802469133,0)" xlink:href="#ap"/><use transform="matrix(0.04320987654320987,0,0,0.04320987654320987,27.611111111111104,0)" xlink:href="#ay"/><use transform="matrix(0.04320987654320987,0,0,0.04320987654320987,36.25308641975308,0)" xlink:href="#ar"/><use transform="matrix(0.04320987654320987,0,0,0.04320987654320987,44.03086419753086,0)" xlink:href="#aH"/></g><g id="r"><use transform="matrix(0.04320987654320987,0,0,0.04320987654320987,0,0)" xlink:href="#aK"/><use transform="matrix(0.04320987654320987,0,0,0.04320987654320987,8.641975308641973,0)" xlink:href="#aq"/><use transform="matrix(0.04320987654320987,0,0,0.04320987654320987,17.283950617283946,0)" xlink:href="#aH"/><use transform="matrix(0.04320987654320987,0,0,0.04320987654320987,21.604938271604933,0)" xlink:href="#as"/><use transform="matrix(0.04320987654320987,0,0,0.04320987654320987,30.2469135802469,0)" xlink:href="#ax"/><use transform="matrix(0.04320987654320987,0,0,0.04320987654320987,38.88888888888888,0)" xlink:href="#aH"/><use transform="matrix(0.04320987654320987,0,0,0.04320987654320987,43.209876543209866,0)" xlink:href="#av"/><use transform="matrix(0.04320987654320987,0,0,0.04320987654320987,46.62345679012345,0)" xlink:href="#ay"/><use transform="matrix(0.04320987654320987,0,0,0.04320987654320987,55.26543209876542,0)" xlink:href="#az"/></g><g id="s"><use transform="matrix(0.04320987654320987,0,0,0.04320987654320987,0,0)" xlink:href="#as"/><use transform="matrix(0.04320987654320987,0,0,0.04320987654320987,8.641975308641973,0)" xlink:href="#aU"/><use transform="matrix(0.04320987654320987,0,0,0.04320987654320987,16.41975308641975,0)" xlink:href="#ar"/><use transform="matrix(0.04320987654320987,0,0,0.04320987654320987,24.197530864197525,0)" xlink:href="#av"/><use transform="matrix(0.04320987654320987,0,0,0.04320987654320987,27.611111111111104,0)" xlink:href="#aH"/><use transform="matrix(0.04320987654320987,0,0,0.04320987654320987,31.93209876543209,0)" xlink:href="#ay"/><use transform="matrix(0.04320987654320987,0,0,0.04320987654320987,40.57407407407406,0)" xlink:href="#aH"/><use transform="matrix(0.04320987654320987,0,0,0.04320987654320987,44.89506172839505,0)" xlink:href="#av"/><use transform="matrix(0.04320987654320987,0,0,0.04320987654320987,48.30864197530863,0)" xlink:href="#aq"/><use transform="matrix(0.04320987654320987,0,0,0.04320987654320987,56.950617283950606,0)" xlink:href="#ax"/></g><g id="t"><use transform="matrix(0.04320987654320987,0,0,0.04320987654320987,0,0)" xlink:href="#at"/><use transform="matrix(0.04320987654320987,0,0,0.04320987654320987,7.777777777777776,0)" xlink:href="#av"/><use transform="matrix(0.04320987654320987,0,0,0.04320987654320987,11.191358024691356,0)" xlink:href="#aw"/><use transform="matrix(0.04320987654320987,0,0,0.04320987654320987,19.83333333333333,0)" xlink:href="#ax"/><use transform="matrix(0.04320987654320987,0,0,0.04320987654320987,28.475308641975303,0)" xlink:href="#ay"/><use transform="matrix(0.04320987654320987,0,0,0.04320987654320987,37.11728395061728,0)" xlink:href="#az"/><use transform="matrix(0.04320987654320987,0,0,0.04320987654320987,40.53086419753086,0)" xlink:href="#at"/></g><g id="u"><use transform="matrix(0.03703703703703702,0,0,0.03703703703703702,0,0)" xlink:href="#aT"/><use transform="matrix(0.03703703703703702,0,0,0.03703703703703702,8.888888888888886,0)" xlink:href="#aU"/><use transform="matrix(0.03703703703703702,0,0,0.03703703703703702,15.555555555555552,0)" xlink:href="#ar"/><use transform="matrix(0.03703703703703702,0,0,0.03703703703703702,22.222222222222214,0)" xlink:href="#av"/><use transform="matrix(0.03703703703703702,0,0,0.03703703703703702,25.148148148148138,0)" xlink:href="#aH"/><use transform="matrix(0.03703703703703702,0,0,0.03703703703703702,28.85185185185184,0)" xlink:href="#ay"/><use transform="matrix(0.03703703703703702,0,0,0.03703703703703702,36.259259259259245,0)" xlink:href="#aH"/><use transform="matrix(0.03703703703703702,0,0,0.03703703703703702,39.96296296296295,0)" xlink:href="#av"/><use transform="matrix(0.03703703703703702,0,0,0.03703703703703702,42.88888888888887,0)" xlink:href="#aq"/><use transform="matrix(0.03703703703703702,0,0,0.03703703703703702,50.296296296296276,0)" xlink:href="#ax"/><use transform="matrix(0.03703703703703702,0,0,0.03703703703703702,57.70370370370368,0)" xlink:href="#aI"/></g><g id="v"><use transform="matrix(0.03703703703703702,0,0,0.03703703703703702,0,0)" xlink:href="#aH"/><use transform="matrix(0.03703703703703702,0,0,0.03703703703703702,3.703703703703702,0)" xlink:href="#aJ"/><use transform="matrix(0.03703703703703702,0,0,0.03703703703703702,10.370370370370367,0)" xlink:href="#aK"/><use transform="matrix(0.03703703703703702,0,0,0.03703703703703702,17.777777777777768,0)" xlink:href="#as"/></g><use transform="matrix(0.03703703703703702,0,0,0.03703703703703702,0,0)" xlink:href="#aL" id="w"/><g id="x"><use transform="matrix(0.03703703703703702,0,0,0.03703703703703702,0,0)" xlink:href="#aT"/><use transform="matrix(0.03703703703703702,0,0,0.03703703703703702,8.888888888888886,0)" xlink:href="#aU"/><use transform="matrix(0.03703703703703702,0,0,0.03703703703703702,15.555555555555552,0)" xlink:href="#ar"/><use transform="matrix(0.03703703703703702,0,0,0.03703703703703702,22.222222222222214,0)" xlink:href="#av"/><use transform="matrix(0.03703703703703702,0,0,0.03703703703703702,25.148148148148138,0)" xlink:href="#aH"/><use transform="matrix(0.03703703703703702,0,0,0.03703703703703702,28.85185185185184,0)" xlink:href="#ay"/><use transform="matrix(0.03703703703703702,0,0,0.03703703703703702,36.259259259259245,0)" xlink:href="#aH"/><use transform="matrix(0.03703703703703702,0,0,0.03703703703703702,39.96296296296295,0)" xlink:href="#av"/><use transform="matrix(0.03703703703703702,0,0,0.03703703703703702,42.88888888888887,0)" xlink:href="#aq"/><use transform="matrix(0.03703703703703702,0,0,0.03703703703703702,50.296296296296276,0)" xlink:href="#ax"/><use transform="matrix(0.03703703703703702,0,0,0.03703703703703702,57.70370370370368,0)" xlink:href="#aI"/></g><path fill="#3a414a" d="M127-220V0H93v-220H8v-28h204v28h-85" id="aV"/><g id="y"><use transform="matrix(0.04320987654320987,0,0,0.04320987654320987,0,0)" xlink:href="#aV"/><use transform="matrix(0.04320987654320987,0,0,0.04320987654320987,8.901234567901232,0)" xlink:href="#ap"/><use transform="matrix(0.04320987654320987,0,0,0.04320987654320987,14.043209876543207,0)" xlink:href="#aJ"/></g><path fill="#3a414a" d="M115-194c53 0 69 39 70 98 0 66-23 100-70 100C84 3 66-7 56-30L54 0H23l1-261h32v101c10-23 28-34 59-34zm-8 174c40 0 45-34 45-75 0-40-5-75-45-74-42 0-51 32-51 76 0 43 10 73 51 73" id="aW"/><g id="z"><use transform="matrix(0.04320987654320987,0,0,0.04320987654320987,0,0)" xlink:href="#az"/><use transform="matrix(0.04320987654320987,0,0,0.04320987654320987,3.4135802469135794,0)" xlink:href="#ay"/><use transform="matrix(0.04320987654320987,0,0,0.04320987654320987,12.055555555555554,0)" xlink:href="#aW"/><use transform="matrix(0.04320987654320987,0,0,0.04320987654320987,20.697530864197525,0)" xlink:href="#as"/><use transform="matrix(0.04320987654320987,0,0,0.04320987654320987,29.3395061728395,0)" xlink:href="#az"/></g><g id="A"><use transform="matrix(0.04320987654320987,0,0,0.04320987654320987,0,0)" xlink:href="#aH"/><use transform="matrix(0.04320987654320987,0,0,0.04320987654320987,4.320987654320986,0)" xlink:href="#aD"/><use transform="matrix(0.04320987654320987,0,0,0.04320987654320987,12.962962962962958,0)" xlink:href="#as"/></g><g id="B"><use transform="matrix(0.04320987654320987,0,0,0.04320987654320987,0,0)" xlink:href="#ar"/><use transform="matrix(0.04320987654320987,0,0,0.04320987654320987,7.777777777777776,0)" xlink:href="#ay"/><use transform="matrix(0.04320987654320987,0,0,0.04320987654320987,16.41975308641975,0)" xlink:href="#aG"/><use transform="matrix(0.04320987654320987,0,0,0.04320987654320987,25.061728395061724,0)" xlink:href="#at"/><use transform="matrix(0.04320987654320987,0,0,0.04320987654320987,32.8395061728395,0)" xlink:href="#as"/></g><g id="C"><use transform="matrix(0.04320987654320987,0,0,0.04320987654320987,0,0)" xlink:href="#aq"/><use transform="matrix(0.04320987654320987,0,0,0.04320987654320987,8.641975308641973,0)" xlink:href="#aA"/></g><g id="D"><use transform="matrix(0.04320987654320987,0,0,0.04320987654320987,0,0)" xlink:href="#as"/><use transform="matrix(0.04320987654320987,0,0,0.04320987654320987,8.641975308641973,0)" xlink:href="#aU"/><use transform="matrix(0.04320987654320987,0,0,0.04320987654320987,16.41975308641975,0)" xlink:href="#ar"/><use transform="matrix(0.04320987654320987,0,0,0.04320987654320987,24.197530864197525,0)" xlink:href="#av"/><use transform="matrix(0.04320987654320987,0,0,0.04320987654320987,27.611111111111104,0)" xlink:href="#aH"/><use transform="matrix(0.04320987654320987,0,0,0.04320987654320987,31.93209876543209,0)" xlink:href="#ay"/><use transform="matrix(0.04320987654320987,0,0,0.04320987654320987,40.57407407407406,0)" xlink:href="#aH"/><use transform="matrix(0.04320987654320987,0,0,0.04320987654320987,44.89506172839505,0)" xlink:href="#av"/><use transform="matrix(0.04320987654320987,0,0,0.04320987654320987,48.30864197530863,0)" xlink:href="#aq"/><use transform="matrix(0.04320987654320987,0,0,0.04320987654320987,56.950617283950606,0)" xlink:href="#ax"/><use transform="matrix(0.04320987654320987,0,0,0.04320987654320987,65.59259259259258,0)" xlink:href="#at"/></g><path fill="#3a414a" d="M87 75C49 33 22-17 22-94c0-76 28-126 65-167h31c-38 41-64 92-64 168S80 34 118 75H87" id="aX"/><path fill="#3a414a" d="M33-261c38 41 65 92 65 168S71 34 33 75H2C39 34 66-17 66-93S39-220 2-261h31" id="aY"/><g id="E"><use transform="matrix(0.04320987654320987,0,0,0.04320987654320987,0,0)" xlink:href="#aX"/><use transform="matrix(0.04320987654320987,0,0,0.04320987654320987,5.141975308641975,0)" xlink:href="#aq"/><use transform="matrix(0.04320987654320987,0,0,0.04320987654320987,13.783950617283947,0)" xlink:href="#aK"/><use transform="matrix(0.04320987654320987,0,0,0.04320987654320987,22.42592592592592,0)" xlink:href="#aH"/><use transform="matrix(0.04320987654320987,0,0,0.04320987654320987,26.746913580246908,0)" xlink:href="#av"/><use transform="matrix(0.04320987654320987,0,0,0.04320987654320987,30.160493827160487,0)" xlink:href="#aq"/><use transform="matrix(0.04320987654320987,0,0,0.04320987654320987,38.80246913580246,0)" xlink:href="#ax"/><use transform="matrix(0.04320987654320987,0,0,0.04320987654320987,47.444444444444436,0)" xlink:href="#ay"/><use transform="matrix(0.04320987654320987,0,0,0.04320987654320987,56.08641975308641,0)" xlink:href="#az"/><use transform="matrix(0.04320987654320987,0,0,0.04320987654320987,59.5,0)" xlink:href="#aY"/></g><g id="F"><use transform="matrix(0.04320987654320987,0,0,0.04320987654320987,0,0)" xlink:href="#au"/><use transform="matrix(0.04320987654320987,0,0,0.04320987654320987,10.370370370370368,0)" xlink:href="#av"/><use transform="matrix(0.04320987654320987,0,0,0.04320987654320987,13.783950617283947,0)" xlink:href="#aB"/><use transform="matrix(0.04320987654320987,0,0,0.04320987654320987,26.70370370370369,0)" xlink:href="#aG"/><use transform="matrix(0.04320987654320987,0,0,0.04320987654320987,35.34567901234567,0)" xlink:href="#az"/><use transform="matrix(0.04320987654320987,0,0,0.04320987654320987,38.75925925925925,0)" xlink:href="#ay"/><use transform="matrix(0.04320987654320987,0,0,0.04320987654320987,47.40123456790123,0)" xlink:href="#aH"/><use transform="matrix(0.04320987654320987,0,0,0.04320987654320987,51.722222222222214,0)" xlink:href="#av"/><use transform="matrix(0.04320987654320987,0,0,0.04320987654320987,55.1358024691358,0)" xlink:href="#aq"/><use transform="matrix(0.04320987654320987,0,0,0.04320987654320987,63.77777777777777,0)" xlink:href="#ax"/></g><g id="G"><use transform="matrix(0.04320987654320987,0,0,0.04320987654320987,0,0)" xlink:href="#aP"/><use transform="matrix(0.04320987654320987,0,0,0.04320987654320987,12.098765432098762,0)" xlink:href="#as"/><use transform="matrix(0.04320987654320987,0,0,0.04320987654320987,20.740740740740733,0)" xlink:href="#aq"/><use transform="matrix(0.04320987654320987,0,0,0.04320987654320987,29.382716049382708,0)" xlink:href="#aH"/><use transform="matrix(0.04320987654320987,0,0,0.04320987654320987,33.703703703703695,0)" xlink:href="#aD"/><use transform="matrix(0.04320987654320987,0,0,0.04320987654320987,42.34567901234567,0)" xlink:href="#as"/><use transform="matrix(0.04320987654320987,0,0,0.04320987654320987,50.987654320987644,0)" xlink:href="#ap"/><use transform="matrix(0.04320987654320987,0,0,0.04320987654320987,56.12962962962962,0)" xlink:href="#aB"/><use transform="matrix(0.04320987654320987,0,0,0.04320987654320987,69.04938271604937,0)" xlink:href="#ay"/><use transform="matrix(0.04320987654320987,0,0,0.04320987654320987,77.69135802469134,0)" xlink:href="#az"/></g><path fill="#3a414a" d="M85-194c31 0 48 13 60 33l-1-100h32l1 261h-30c-2-10 0-23-3-31C134-8 116 4 85 4 32 4 16-35 15-94c0-66 23-100 70-100zm9 24c-40 0-46 34-46 75 0 40 6 74 45 74 42 0 51-32 51-76 0-42-9-74-50-73" id="aZ"/><g id="H"><use transform="matrix(0.04320987654320987,0,0,0.04320987654320987,0,0)" xlink:href="#aw"/><use transform="matrix(0.04320987654320987,0,0,0.04320987654320987,8.641975308641973,0)" xlink:href="#ap"/><use transform="matrix(0.04320987654320987,0,0,0.04320987654320987,13.783950617283947,0)" xlink:href="#aq"/><use transform="matrix(0.04320987654320987,0,0,0.04320987654320987,22.42592592592592,0)" xlink:href="#aG"/><use transform="matrix(0.04320987654320987,0,0,0.04320987654320987,31.06790123456789,0)" xlink:href="#ax"/><use transform="matrix(0.04320987654320987,0,0,0.04320987654320987,39.709876543209866,0)" xlink:href="#aZ"/></g><g id="I"><use transform="matrix(0.04320987654320987,0,0,0.04320987654320987,0,0)" xlink:href="#aB"/><use transform="matrix(0.04320987654320987,0,0,0.04320987654320987,12.91975308641975,0)" xlink:href="#aq"/><use transform="matrix(0.04320987654320987,0,0,0.04320987654320987,21.56172839506172,0)" xlink:href="#aH"/><use transform="matrix(0.04320987654320987,0,0,0.04320987654320987,25.882716049382704,0)" xlink:href="#av"/><use transform="matrix(0.04320987654320987,0,0,0.04320987654320987,29.296296296296283,0)" xlink:href="#aq"/><use transform="matrix(0.04320987654320987,0,0,0.04320987654320987,37.93827160493826,0)" xlink:href="#ax"/><use transform="matrix(0.04320987654320987,0,0,0.04320987654320987,46.58024691358024,0)" xlink:href="#at"/></g><g id="J"><use transform="matrix(0.04320987654320987,0,0,0.04320987654320987,0,0)" xlink:href="#aA"/><use transform="matrix(0.04320987654320987,0,0,0.04320987654320987,4.320987654320986,0)" xlink:href="#ap"/><use transform="matrix(0.04320987654320987,0,0,0.04320987654320987,9.462962962962962,0)" xlink:href="#aq"/><use transform="matrix(0.04320987654320987,0,0,0.04320987654320987,18.104938271604937,0)" xlink:href="#aB"/></g><path fill="#3a414a" d="M33 0v-248h34V0H33" id="ba"/><g id="K"><use transform="matrix(0.04320987654320987,0,0,0.04320987654320987,0,0)" xlink:href="#ba"/><use transform="matrix(0.04320987654320987,0,0,0.04320987654320987,4.320987654320986,0)" xlink:href="#ax"/><use transform="matrix(0.04320987654320987,0,0,0.04320987654320987,12.962962962962958,0)" xlink:href="#at"/><use transform="matrix(0.04320987654320987,0,0,0.04320987654320987,20.740740740740733,0)" xlink:href="#aD"/><use transform="matrix(0.04320987654320987,0,0,0.04320987654320987,29.382716049382708,0)" xlink:href="#as"/><use transform="matrix(0.04320987654320987,0,0,0.04320987654320987,38.02469135802468,0)" xlink:href="#av"/><use transform="matrix(0.04320987654320987,0,0,0.04320987654320987,41.438271604938265,0)" xlink:href="#aB"/></g><g id="L"><use transform="matrix(0.04320987654320987,0,0,0.04320987654320987,0,0)" xlink:href="#ay"/><use transform="matrix(0.04320987654320987,0,0,0.04320987654320987,8.641975308641973,0)" xlink:href="#ap"/><use transform="matrix(0.04320987654320987,0,0,0.04320987654320987,13.783950617283947,0)" xlink:href="#as"/><use transform="matrix(0.04320987654320987,0,0,0.04320987654320987,22.42592592592592,0)" xlink:href="#ay"/></g><path fill="#333" d="M182-130c37 4 62 22 62 59C244 23 116-4 24 0v-248c84 5 203-23 205 63 0 31-19 50-47 55zM76-148c40-3 101 13 101-30 0-44-60-28-101-31v61zm0 110c48-3 116 14 116-37 0-48-69-32-116-35v72" id="bb"/><path fill="#333" d="M85 4C-2 5 27-109 22-190h50c7 57-23 150 33 157 60-5 35-97 40-157h50l1 190h-47c-2-12 1-28-3-38-12 25-28 42-61 42" id="bc"/><path fill="#333" d="M25-224v-37h50v37H25zM25 0v-190h50V0H25" id="bd"/><path fill="#333" d="M25 0v-261h50V0H25" id="be"/><path fill="#333" d="M88-194c31-1 46 15 58 34l-1-101h50l1 261h-48c-2-10 0-23-3-31C134-8 116 4 84 4 32 4 16-41 15-95c0-56 19-97 73-99zm17 164c33 0 40-30 41-66 1-37-9-64-41-64s-38 30-39 65c0 43 13 65 39 65" id="bf"/><path fill="#333" d="M135-194c87-1 58 113 63 194h-50c-7-57 23-157-34-157-59 0-34 97-39 157H25l-1-190h47c2 12-1 28 3 38 12-26 28-41 61-42" id="bg"/><path fill="#333" d="M195-6C206 82 75 100 31 46c-4-6-6-13-8-21l49-6c3 16 16 24 34 25 40 0 42-37 40-79-11 22-30 35-61 35-53 0-70-43-70-97 0-56 18-96 73-97 30 0 46 14 59 34l2-30h47zm-90-29c32 0 41-27 41-63 0-35-9-62-40-62-32 0-39 29-40 63 0 36 9 62 39 62" id="bh"/><g id="M"><use transform="matrix(0.04938271604938272,0,0,0.04938271604938272,0,0)" xlink:href="#bb"/><use transform="matrix(0.04938271604938272,0,0,0.04938271604938272,12.790123456790125,0)" xlink:href="#bc"/><use transform="matrix(0.04938271604938272,0,0,0.04938271604938272,23.60493827160494,0)" xlink:href="#bd"/><use transform="matrix(0.04938271604938272,0,0,0.04938271604938272,28.543209876543212,0)" xlink:href="#be"/><use transform="matrix(0.04938271604938272,0,0,0.04938271604938272,33.48148148148148,0)" xlink:href="#bf"/><use transform="matrix(0.04938271604938272,0,0,0.04938271604938272,44.2962962962963,0)" xlink:href="#bd"/><use transform="matrix(0.04938271604938272,0,0,0.04938271604938272,49.23456790123457,0)" xlink:href="#bg"/><use transform="matrix(0.04938271604938272,0,0,0.04938271604938272,60.04938271604939,0)" xlink:href="#bh"/></g><path fill="#333" d="M121-226c-27-7-43 5-38 36h38v33H83V0H34v-157H6v-33h28c-9-59 32-81 87-68v32" id="bi"/><path fill="#333" d="M110-194c64 0 96 36 96 99 0 64-35 99-97 99-61 0-95-36-95-99 0-62 34-99 96-99zm-1 164c35 0 45-28 45-65 0-40-10-65-43-65-34 0-45 26-45 65 0 36 10 65 43 65" id="bj"/><g id="N"><use transform="matrix(0.04938271604938272,0,0,0.04938271604938272,0,0)" xlink:href="#bd"/><use transform="matrix(0.04938271604938272,0,0,0.04938271604938272,4.938271604938272,0)" xlink:href="#bg"/><use transform="matrix(0.04938271604938272,0,0,0.04938271604938272,15.753086419753087,0)" xlink:href="#bi"/><use transform="matrix(0.04938271604938272,0,0,0.04938271604938272,21.62962962962963,0)" xlink:href="#bj"/></g><path fill="#333" d="M24 0v-248h195v40H76v63h132v40H76v65h150V0H24" id="bk"/><path fill="#333" d="M144 0l-44-69L55 0H2l70-98-66-92h53l41 62 40-62h54l-67 91 71 99h-54" id="bl"/><path fill="#333" d="M190-63c-7 42-38 67-86 67-59 0-84-38-90-98-12-110 154-137 174-36l-49 2c-2-19-15-32-35-32-30 0-35 28-38 64-6 74 65 87 74 30" id="bm"/><path fill="#333" d="M115-3C79 11 28 4 28-45v-112H4v-33h27l15-45h31v45h36v33H77v99c-1 23 16 31 38 25v30" id="bn"/><path fill="#333" d="M133-34C117-15 103 5 69 4 32 3 11-16 11-54c-1-60 55-63 116-61 1-26-3-47-28-47-18 1-26 9-28 27l-52-2c7-38 36-58 82-57s74 22 75 68l1 82c-1 14 12 18 25 15v27c-30 8-71 5-69-32zm-48 3c29 0 43-24 42-57-32 0-66-3-65 30 0 17 8 27 23 27" id="bo"/><g id="O"><use transform="matrix(0.04938271604938272,0,0,0.04938271604938272,0,0)" xlink:href="#bk"/><use transform="matrix(0.04938271604938272,0,0,0.04938271604938272,11.851851851851853,0)" xlink:href="#bl"/><use transform="matrix(0.04938271604938272,0,0,0.04938271604938272,21.7283950617284,0)" xlink:href="#bm"/><use transform="matrix(0.04938271604938272,0,0,0.04938271604938272,31.60493827160494,0)" xlink:href="#bd"/><use transform="matrix(0.04938271604938272,0,0,0.04938271604938272,36.543209876543216,0)" xlink:href="#bn"/><use transform="matrix(0.04938271604938272,0,0,0.04938271604938272,42.41975308641976,0)" xlink:href="#bo"/><use transform="matrix(0.04938271604938272,0,0,0.04938271604938272,52.2962962962963,0)" xlink:href="#bn"/><use transform="matrix(0.04938271604938272,0,0,0.04938271604938272,58.17283950617284,0)" xlink:href="#bd"/><use transform="matrix(0.04938271604938272,0,0,0.04938271604938272,63.111111111111114,0)" xlink:href="#bj"/><use transform="matrix(0.04938271604938272,0,0,0.04938271604938272,73.92592592592594,0)" xlink:href="#bg"/></g><g id="P"><use transform="matrix(0.04320987654320985,0,0,0.04320987654320985,0,0)" xlink:href="#at"/><use transform="matrix(0.04320987654320985,0,0,0.04320987654320985,7.777777777777773,0)" xlink:href="#as"/><use transform="matrix(0.04320987654320985,0,0,0.04320987654320985,16.419753086419746,0)" xlink:href="#av"/><use transform="matrix(0.04320987654320985,0,0,0.04320987654320985,19.833333333333325,0)" xlink:href="#at"/><use transform="matrix(0.04320987654320985,0,0,0.04320987654320985,27.6111111111111,0)" xlink:href="#aB"/><use transform="matrix(0.04320987654320985,0,0,0.04320987654320985,40.530864197530846,0)" xlink:href="#av"/><use transform="matrix(0.04320987654320985,0,0,0.04320987654320985,43.94444444444442,0)" xlink:href="#ar"/></g><g id="Q"><use transform="matrix(0.04320987654320985,0,0,0.04320987654320985,0,0)" xlink:href="#ay"/><use transform="matrix(0.04320987654320985,0,0,0.04320987654320985,8.641975308641971,0)" xlink:href="#at"/><use transform="matrix(0.04320987654320985,0,0,0.04320987654320985,16.419753086419746,0)" xlink:href="#at"/><use transform="matrix(0.04320987654320985,0,0,0.04320987654320985,24.197530864197518,0)" xlink:href="#as"/><use transform="matrix(0.04320987654320985,0,0,0.04320987654320985,32.83950617283949,0)" xlink:href="#at"/><use transform="matrix(0.04320987654320985,0,0,0.04320987654320985,40.617283950617264,0)" xlink:href="#at"/><use transform="matrix(0.04320987654320985,0,0,0.04320987654320985,48.395061728395035,0)" xlink:href="#aB"/><use transform="matrix(0.04320987654320985,0,0,0.04320987654320985,61.31481481481478,0)" xlink:href="#as"/><use transform="matrix(0.04320987654320985,0,0,0.04320987654320985,69.95679012345676,0)" xlink:href="#ax"/><use transform="matrix(0.04320987654320985,0,0,0.04320987654320985,78.59876543209873,0)" xlink:href="#aH"/></g><g id="R"><use transform="matrix(0.04320987654320987,0,0,0.04320987654320987,0,0)" xlink:href="#aQ"/><use transform="matrix(0.04320987654320987,0,0,0.04320987654320987,9.46296296296296,0)" xlink:href="#ap"/><use transform="matrix(0.04320987654320987,0,0,0.04320987654320987,14.604938271604935,0)" xlink:href="#ay"/><use transform="matrix(0.04320987654320987,0,0,0.04320987654320987,23.246913580246908,0)" xlink:href="#aw"/><use transform="matrix(0.04320987654320987,0,0,0.04320987654320987,31.88888888888888,0)" xlink:href="#av"/><use transform="matrix(0.04320987654320987,0,0,0.04320987654320987,35.30246913580246,0)" xlink:href="#az"/><use transform="matrix(0.04320987654320987,0,0,0.04320987654320987,38.716049382716044,0)" xlink:href="#av"/><use transform="matrix(0.04320987654320987,0,0,0.04320987654320987,42.129629629629626,0)" xlink:href="#aH"/><use transform="matrix(0.04320987654320987,0,0,0.04320987654320987,46.45061728395062,0)" xlink:href="#aJ"/></g><g id="S"><use transform="matrix(0.04320987654320987,0,0,0.04320987654320987,0,0)" xlink:href="#aB"/><use transform="matrix(0.04320987654320987,0,0,0.04320987654320987,12.91975308641975,0)" xlink:href="#aq"/><use transform="matrix(0.04320987654320987,0,0,0.04320987654320987,21.56172839506172,0)" xlink:href="#aZ"/><use transform="matrix(0.04320987654320987,0,0,0.04320987654320987,30.2037037037037,0)" xlink:href="#as"/><use transform="matrix(0.04320987654320987,0,0,0.04320987654320987,38.84567901234567,0)" xlink:href="#az"/></g><path fill="#3a414a" d="M232-93c-1 65-40 97-104 97C67 4 28-28 28-90v-158h33c8 89-33 224 67 224 102 0 64-133 71-224h33v155" id="bp"/><g id="T"><use transform="matrix(0.04320987654320987,0,0,0.04320987654320987,0,0)" xlink:href="#bp"/><use transform="matrix(0.04320987654320987,0,0,0.04320987654320987,11.191358024691356,0)" xlink:href="#aK"/><use transform="matrix(0.04320987654320987,0,0,0.04320987654320987,19.83333333333333,0)" xlink:href="#aZ"/><use transform="matrix(0.04320987654320987,0,0,0.04320987654320987,28.475308641975303,0)" xlink:href="#ay"/><use transform="matrix(0.04320987654320987,0,0,0.04320987654320987,37.11728395061728,0)" xlink:href="#aH"/><use transform="matrix(0.04320987654320987,0,0,0.04320987654320987,41.438271604938265,0)" xlink:href="#av"/><use transform="matrix(0.04320987654320987,0,0,0.04320987654320987,44.851851851851855,0)" xlink:href="#ax"/><use transform="matrix(0.04320987654320987,0,0,0.04320987654320987,53.49382716049382,0)" xlink:href="#aw"/></g><g id="U"><use transform="matrix(0.04320987654320987,0,0,0.04320987654320987,0,0)" xlink:href="#aQ"/><use transform="matrix(0.04320987654320987,0,0,0.04320987654320987,9.46296296296296,0)" xlink:href="#aT"/><use transform="matrix(0.04320987654320987,0,0,0.04320987654320987,19.83333333333333,0)" xlink:href="#aC"/></g><path fill="#3a414a" d="M160-131c35 5 61 23 61 61C221 17 115-2 30 0v-248c76 3 177-17 177 60 0 33-19 50-47 57zm-97-11c50-1 110 9 110-42 0-47-63-36-110-37v79zm0 115c55-2 124 14 124-45 0-56-70-42-124-44v89" id="bq"/><g id="V"><use transform="matrix(0.04320987654320987,0,0,0.04320987654320987,0,0)" xlink:href="#bq"/><use transform="matrix(0.04320987654320987,0,0,0.04320987654320987,10.370370370370368,0)" xlink:href="#aG"/><use transform="matrix(0.04320987654320987,0,0,0.04320987654320987,19.01234567901234,0)" xlink:href="#av"/><use transform="matrix(0.04320987654320987,0,0,0.04320987654320987,22.42592592592592,0)" xlink:href="#az"/><use transform="matrix(0.04320987654320987,0,0,0.04320987654320987,25.8395061728395,0)" xlink:href="#aZ"/><use transform="matrix(0.04320987654320987,0,0,0.04320987654320987,34.481481481481474,0)" xlink:href="#av"/><use transform="matrix(0.04320987654320987,0,0,0.04320987654320987,37.895061728395056,0)" xlink:href="#ax"/><use transform="matrix(0.04320987654320987,0,0,0.04320987654320987,46.537037037037024,0)" xlink:href="#aw"/></g><g id="W"><use transform="matrix(0.04320987654320987,0,0,0.04320987654320987,0,0)" xlink:href="#ba"/><use transform="matrix(0.04320987654320987,0,0,0.04320987654320987,4.320987654320986,0)" xlink:href="#at"/></g><g id="X"><use transform="matrix(0.04320987654320987,0,0,0.04320987654320987,0,0)" xlink:href="#aB"/><use transform="matrix(0.04320987654320987,0,0,0.04320987654320987,12.91975308641975,0)" xlink:href="#aq"/><use transform="matrix(0.04320987654320987,0,0,0.04320987654320987,21.56172839506172,0)" xlink:href="#aZ"/><use transform="matrix(0.04320987654320987,0,0,0.04320987654320987,30.2037037037037,0)" xlink:href="#as"/><use transform="matrix(0.04320987654320987,0,0,0.04320987654320987,38.84567901234567,0)" xlink:href="#az"/></g><g id="Y"><use transform="matrix(0.04320987654320987,0,0,0.04320987654320987,0,0)" xlink:href="#aA"/><use transform="matrix(0.04320987654320987,0,0,0.04320987654320987,4.320987654320986,0)" xlink:href="#av"/><use transform="matrix(0.04320987654320987,0,0,0.04320987654320987,7.734567901234566,0)" xlink:href="#aH"/><use transform="matrix(0.04320987654320987,0,0,0.04320987654320987,12.055555555555554,0)" xlink:href="#aH"/><use transform="matrix(0.04320987654320987,0,0,0.04320987654320987,16.37654320987654,0)" xlink:href="#as"/><use transform="matrix(0.04320987654320987,0,0,0.04320987654320987,25.018518518518512,0)" xlink:href="#aZ"/></g><path fill="#3a414a" d="M103-251c84 0 111 97 45 133-19 10-37 24-39 52H78c0-63 77-55 77-114 0-30-21-42-52-43-32 0-53 17-56 46l-32-2c7-45 34-72 88-72zM77 0v-35h34V0H77" id="br"/><g id="Z"><use transform="matrix(0.04320987654320987,0,0,0.04320987654320987,0,0)" xlink:href="#aQ"/><use transform="matrix(0.04320987654320987,0,0,0.04320987654320987,9.46296296296296,0)" xlink:href="#aR"/><use transform="matrix(0.04320987654320987,0,0,0.04320987654320987,20.654320987654316,0)" xlink:href="#aQ"/><use transform="matrix(0.04320987654320987,0,0,0.04320987654320987,30.117283950617278,0)" xlink:href="#br"/></g><path fill="#333" d="M146-102V0H94v-102L6-248h54l60 105 60-105h54" id="bs"/><path fill="#333" d="M185-48c-13 30-37 53-82 52C43 2 14-33 14-96s30-98 90-98c62 0 83 45 84 108H66c0 31 8 55 39 56 18 0 30-7 34-22zm-45-69c5-46-57-63-70-21-2 6-4 13-4 21h74" id="bt"/><path fill="#333" d="M137-138c1-29-70-34-71-4 15 46 118 7 119 86 1 83-164 76-172 9l43-7c4 19 20 25 44 25 33 8 57-30 24-41C81-84 22-81 20-136c-2-80 154-74 161-7" id="bu"/><g id="aa"><use transform="matrix(0.04938271604938272,0,0,0.04938271604938272,0,0)" xlink:href="#bs"/><use transform="matrix(0.04938271604938272,0,0,0.04938271604938272,10.864197530864198,0)" xlink:href="#bt"/><use transform="matrix(0.04938271604938272,0,0,0.04938271604938272,20.74074074074074,0)" xlink:href="#bu"/></g><path fill="#333" d="M175 0L67-191c6 58 2 128 3 191H24v-248h59L193-55c-6-58-2-129-3-193h46V0h-61" id="bv"/><g id="ab"><use transform="matrix(0.04938271604938272,0,0,0.04938271604938272,0,0)" xlink:href="#bv"/><use transform="matrix(0.04938271604938272,0,0,0.04938271604938272,12.790123456790125,0)" xlink:href="#bj"/></g><g id="ac"><use transform="matrix(0.04320987654320987,0,0,0.04320987654320987,0,0)" xlink:href="#aC"/><use transform="matrix(0.04320987654320987,0,0,0.04320987654320987,12.91975308641975,0)" xlink:href="#ay"/><use transform="matrix(0.04320987654320987,0,0,0.04320987654320987,21.56172839506172,0)" xlink:href="#aU"/><use transform="matrix(0.04320987654320987,0,0,0.04320987654320987,29.339506172839496,0)" xlink:href="#av"/><use transform="matrix(0.04320987654320987,0,0,0.04320987654320987,32.753086419753075,0)" xlink:href="#aB"/><use transform="matrix(0.04320987654320987,0,0,0.04320987654320987,45.67283950617282,0)" xlink:href="#aG"/><use transform="matrix(0.04320987654320987,0,0,0.04320987654320987,54.314814814814795,0)" xlink:href="#aB"/></g><g id="ad"><use transform="matrix(0.04320987654320987,0,0,0.04320987654320987,0,0)" xlink:href="#aE"/><use transform="matrix(0.04320987654320987,0,0,0.04320987654320987,7.777777777777776,0)" xlink:href="#as"/><use transform="matrix(0.04320987654320987,0,0,0.04320987654320987,16.41975308641975,0)" xlink:href="#az"/><use transform="matrix(0.04320987654320987,0,0,0.04320987654320987,19.83333333333333,0)" xlink:href="#aq"/><use transform="matrix(0.04320987654320987,0,0,0.04320987654320987,28.475308641975303,0)" xlink:href="#ar"/><use transform="matrix(0.04320987654320987,0,0,0.04320987654320987,36.25308641975308,0)" xlink:href="#av"/><use transform="matrix(0.04320987654320987,0,0,0.04320987654320987,39.666666666666664,0)" xlink:href="#aH"/><use transform="matrix(0.04320987654320987,0,0,0.04320987654320987,43.98765432098765,0)" xlink:href="#aJ"/></g><g id="ae"><use transform="matrix(0.04320987654320987,0,0,0.04320987654320987,0,0)" xlink:href="#aq"/><use transform="matrix(0.04320987654320987,0,0,0.04320987654320987,8.641975308641973,0)" xlink:href="#aA"/></g><g id="af"><use transform="matrix(0.04320987654320987,0,0,0.04320987654320987,0,0)" xlink:href="#at"/><use transform="matrix(0.04320987654320987,0,0,0.04320987654320987,7.777777777777776,0)" xlink:href="#aH"/><use transform="matrix(0.04320987654320987,0,0,0.04320987654320987,12.098765432098762,0)" xlink:href="#ap"/><use transform="matrix(0.04320987654320987,0,0,0.04320987654320987,17.240740740740737,0)" xlink:href="#aG"/><use transform="matrix(0.04320987654320987,0,0,0.04320987654320987,25.882716049382704,0)" xlink:href="#ar"/><use transform="matrix(0.04320987654320987,0,0,0.04320987654320987,33.66049382716049,0)" xlink:href="#aH"/><use transform="matrix(0.04320987654320987,0,0,0.04320987654320987,37.981481481481474,0)" xlink:href="#aG"/><use transform="matrix(0.04320987654320987,0,0,0.04320987654320987,46.62345679012345,0)" xlink:href="#ap"/><use transform="matrix(0.04320987654320987,0,0,0.04320987654320987,51.76543209876542,0)" xlink:href="#as"/></g><g id="ag"><use transform="matrix(0.04320987654320987,0,0,0.04320987654320987,0,0)" xlink:href="#at"/><use transform="matrix(0.04320987654320987,0,0,0.04320987654320987,7.777777777777776,0)" xlink:href="#av"/><use transform="matrix(0.04320987654320987,0,0,0.04320987654320987,11.191358024691356,0)" xlink:href="#ax"/><use transform="matrix(0.04320987654320987,0,0,0.04320987654320987,19.83333333333333,0)" xlink:href="#aw"/><use transform="matrix(0.04320987654320987,0,0,0.04320987654320987,28.475308641975303,0)" xlink:href="#az"/><use transform="matrix(0.04320987654320987,0,0,0.04320987654320987,31.888888888888882,0)" xlink:href="#as"/></g><g id="ah"><use transform="matrix(0.04320987654320987,0,0,0.04320987654320987,0,0)" xlink:href="#aK"/><use transform="matrix(0.04320987654320987,0,0,0.04320987654320987,8.641975308641973,0)" xlink:href="#aq"/><use transform="matrix(0.04320987654320987,0,0,0.04320987654320987,17.283950617283946,0)" xlink:href="#av"/><use transform="matrix(0.04320987654320987,0,0,0.04320987654320987,20.697530864197525,0)" xlink:href="#ax"/><use transform="matrix(0.04320987654320987,0,0,0.04320987654320987,29.3395061728395,0)" xlink:href="#aH"/></g><path fill="#3a414a" d="M169-182c-1-43-94-46-97-3 18 66 151 10 154 114 3 95-165 93-204 36-6-8-10-19-12-30l50-8c3 46 112 56 116 5-17-69-150-10-154-114-4-87 153-88 188-35 5 8 8 18 10 28" id="bw"/><path fill="#3a414a" d="M115-3C79 11 28 4 28-45v-112H4v-33h27l15-45h31v45h36v33H77v99c-1 23 16 31 38 25v30" id="bx"/><path fill="#3a414a" d="M133-34C117-15 103 5 69 4 32 3 11-16 11-54c-1-60 55-63 116-61 1-26-3-47-28-47-18 1-26 9-28 27l-52-2c7-38 36-58 82-57s74 22 75 68l1 82c-1 14 12 18 25 15v27c-30 8-71 5-69-32zm-48 3c29 0 43-24 42-57-32 0-66-3-65 30 0 17 8 27 23 27" id="by"/><path fill="#3a414a" d="M195-6C206 82 75 100 31 46c-4-6-6-13-8-21l49-6c3 16 16 24 34 25 40 0 42-37 40-79-11 22-30 35-61 35-53 0-70-43-70-97 0-56 18-96 73-97 30 0 46 14 59 34l2-30h47zm-90-29c32 0 41-27 41-63 0-35-9-62-40-62-32 0-39 29-40 63 0 36 9 62 39 62" id="bz"/><path fill="#3a414a" d="M185-48c-13 30-37 53-82 52C43 2 14-33 14-96s30-98 90-98c62 0 83 45 84 108H66c0 31 8 55 39 56 18 0 30-7 34-22zm-45-69c5-46-57-63-70-21-2 6-4 13-4 21h74" id="bA"/><g id="ai"><use transform="matrix(0.08641975308641973,0,0,0.08641975308641973,0,0)" xlink:href="#bw"/><use transform="matrix(0.08641975308641973,0,0,0.08641975308641973,20.740740740740737,0)" xlink:href="#bx"/><use transform="matrix(0.08641975308641973,0,0,0.08641975308641973,31.024691358024686,0)" xlink:href="#by"/><use transform="matrix(0.08641975308641973,0,0,0.08641975308641973,48.30864197530863,0)" xlink:href="#bz"/><use transform="matrix(0.08641975308641973,0,0,0.08641975308641973,67.23456790123456,0)" xlink:href="#bA"/></g><path fill="#3a414a" d="M23 0v-37h61v-169l-59 37v-38l62-41h46v211h57V0H23" id="bB"/><use transform="matrix(0.08641975308641973,0,0,0.08641975308641973,0,0)" xlink:href="#bB" id="aj"/><path fill="#3a414a" d="M24-248c93 1 206-16 204 79-1 75-69 88-152 82V0H24v-248zm52 121c47 0 100 7 100-41 0-47-54-39-100-39v80" id="bC"/><path fill="#3a414a" d="M135-150c-39-12-60 13-60 57V0H25l-1-190h47c2 13-1 29 3 40 6-28 27-53 61-41v41" id="bD"/><path fill="#3a414a" d="M110-194c64 0 96 36 96 99 0 64-35 99-97 99-61 0-95-36-95-99 0-62 34-99 96-99zm-1 164c35 0 45-28 45-65 0-40-10-65-43-65-34 0-45 26-45 65 0 36 10 65 43 65" id="bE"/><path fill="#3a414a" d="M135-194c53 0 70 44 70 98 0 56-19 98-73 100-31 1-45-17-59-34 3 33 2 69 2 105H25l-1-265h48c2 10 0 23 3 31 11-24 29-35 60-35zM114-30c33 0 39-31 40-66 0-38-9-64-40-64-56 0-55 130 0 130" id="bF"/><path fill="#3a414a" d="M137-138c1-29-70-34-71-4 15 46 118 7 119 86 1 83-164 76-172 9l43-7c4 19 20 25 44 25 33 8 57-30 24-41C81-84 22-81 20-136c-2-80 154-74 161-7" id="bG"/><path fill="#3a414a" d="M88-194c31-1 46 15 58 34l-1-101h50l1 261h-48c-2-10 0-23-3-31C134-8 116 4 84 4 32 4 16-41 15-95c0-56 19-97 73-99zm17 164c33 0 40-30 41-66 1-37-9-64-41-64s-38 30-39 65c0 43 13 65 39 65" id="bH"/><g id="ak"><use transform="matrix(0.0987654320987654,0,0,0.0987654320987654,0,0)" xlink:href="#bC"/><use transform="matrix(0.0987654320987654,0,0,0.0987654320987654,23.703703703703695,0)" xlink:href="#bD"/><use transform="matrix(0.0987654320987654,0,0,0.0987654320987654,37.53086419753085,0)" xlink:href="#bE"/><use transform="matrix(0.0987654320987654,0,0,0.0987654320987654,59.16049382716047,0)" xlink:href="#bF"/><use transform="matrix(0.0987654320987654,0,0,0.0987654320987654,80.7901234567901,0)" xlink:href="#bE"/><use transform="matrix(0.0987654320987654,0,0,0.0987654320987654,102.41975308641972,0)" xlink:href="#bG"/><use transform="matrix(0.0987654320987654,0,0,0.0987654320987654,122.17283950617279,0)" xlink:href="#bA"/><use transform="matrix(0.0987654320987654,0,0,0.0987654320987654,141.92592592592587,0)" xlink:href="#bH"/></g><path fill="#3a414a" d="M121-226c-27-7-43 5-38 36h38v33H83V0H34v-157H6v-33h28c-9-59 32-81 87-68v32" id="bI"/><path fill="#3a414a" d="M220-157c-53 9-28 100-34 157h-49v-107c1-27-5-49-29-50C55-147 81-57 75 0H25l-1-190h47c2 12-1 28 3 38 10-53 101-56 108 0 13-22 24-43 59-42 82 1 51 116 57 194h-49v-107c-1-25-5-48-29-50" id="bJ"/><path fill="#3a414a" d="M231 0h-52l-39-155L100 0H48L-1-190h46L77-45c9-52 24-97 36-145h53l37 145 32-145h46" id="bK"/><path fill="#3a414a" d="M147 0L96-86 75-71V0H25v-261h50v150l67-79h53l-66 74L201 0h-54" id="bL"/><g id="al"><use transform="matrix(0.0987654320987654,0,0,0.0987654320987654,0,0)" xlink:href="#bI"/><use transform="matrix(0.0987654320987654,0,0,0.0987654320987654,11.753086419753082,0)" xlink:href="#bD"/><use transform="matrix(0.0987654320987654,0,0,0.0987654320987654,25.58024691358024,0)" xlink:href="#by"/><use transform="matrix(0.0987654320987654,0,0,0.0987654320987654,45.333333333333314,0)" xlink:href="#bJ"/><use transform="matrix(0.0987654320987654,0,0,0.0987654320987654,76.93827160493825,0)" xlink:href="#bA"/><use transform="matrix(0.0987654320987654,0,0,0.0987654320987654,96.69135802469133,0)" xlink:href="#bK"/><use transform="matrix(0.0987654320987654,0,0,0.0987654320987654,124.34567901234564,0)" xlink:href="#bE"/><use transform="matrix(0.0987654320987654,0,0,0.0987654320987654,145.97530864197526,0)" xlink:href="#bD"/><use transform="matrix(0.0987654320987654,0,0,0.0987654320987654,159.80246913580243,0)" xlink:href="#bL"/></g><path fill="#3a414a" d="M182-182c0 78-84 86-111 141h115V0H12c-6-101 99-100 120-180 1-22-12-31-33-32-23 0-32 14-35 34l-49-3c5-45 32-70 84-70 51 0 83 22 83 69" id="bM"/><use transform="matrix(0.0987654320987654,0,0,0.0987654320987654,0,0)" xlink:href="#bM" id="am"/><use transform="matrix(0.0987654320987654,0,0,0.0987654320987654,0,0)" xlink:href="#bB" id="an"/></defs></g></svg>