<svg xmlns="http://www.w3.org/2000/svg" xmlns:xlink="http://www.w3.org/1999/xlink" xmlns:lucid="lucid" width="1790.33" height="1095.62"><g transform="translate(-196.27833282647396 -614.4274893451116)" lucid:page-tab-id="0_0"><path d="M1704.57 1094.48a6 6 0 0 1 6-6h204.9a6 6 0 0 1 6 6v588.57a6 6 0 0 1-6 6h-204.9a6 6 0 0 1-6-6z" stroke="#282c33" stroke-width="2" fill="#fff0fb"/><path d="M281.02 1094.48a6 6 0 0 1 6-6H1672.8a6 6 0 0 1 6 6v588.57a6 6 0 0 1-6 6H287.02a6 6 0 0 1-6-6z" stroke="#282c33" stroke-width="2" fill="#edf5ff"/><path d="M281.02 715.13a6 6 0 0 1 6-6h1628.46a6 6 0 0 1 6 6v332.53a6 6 0 0 1-6 6H287.02a6 6 0 0 1-6-6z" stroke="#282c33" stroke-width="2" fill="#fff0f0"/><use xlink:href="#a" transform="matrix(1,0,0,1,293.0224970322156,721.1294659002019) translate(760.3888888888889 166.78645833333334)"/><path d="M446.13 959.25c0 9.52-26.86 17.25-60 17.25-33.13 0-60-7.73-60-17.25v-138c0-9.53 26.87-17.25 60-17.25 33.14 0 60 7.72 60 17.25z" stroke="#282c33" stroke-width="2" fill="#fff"/><path d="M446.13 821.25c0 9.52-26.86 17.25-60 17.25-33.13 0-60-7.73-60-17.25" stroke="#282c33" stroke-width="2" fill="none"/><use xlink:href="#b" transform="matrix(1,0,0,1,331.13333333333367,843.4954225814358) translate(11.370370370370367 21.333333333333336)"/><use xlink:href="#c" transform="matrix(1,0,0,1,331.13333333333367,843.4954225814358) translate(28.407407407407405 53.333333333333336)"/><use xlink:href="#d" transform="matrix(1,0,0,1,331.13333333333367,843.4954225814358) translate(14.370370370370367 85.33333333333334)"/><use xlink:href="#e" transform="matrix(1,0,0,1,331.13333333333367,843.4954225814358) translate(18.042037037037034 117.33333333333334)"/><path d="M535.2 836.25a6 6 0 0 1 6-6h148a6 6 0 0 1 6 6v108a6 6 0 0 1-6 6h-148a6 6 0 0 1-6-6z" stroke="#282c33" stroke-width="2" fill="#edf5ff"/><use xlink:href="#f" transform="matrix(1,0,0,1,547.2000000000004,842.2454225814358) translate(8.148148148148152 54.333333333333336)"/><path d="M747.73 777.45a6 6 0 0 1 6-6h187.74a6 6 0 0 1 6 6v222.93a6 6 0 0 1-6 6H753.73a6 6 0 0 1-6-6z" stroke="#000" stroke-opacity="0" stroke-width="2" fill-opacity="0"/><use xlink:href="#g" transform="matrix(1,0,0,1,759.7322016413791,783.4454225814359) translate(39.8888888888889 113.64583333333333)"/><path d="M767.16 777.24a7.8 7.8 0 0 1 7.55-5.8h166.77a4.6 4.6 0 0 1 4.45 5.8l-17.88 67.08a7.8 7.8 0 0 1-7.55 5.8H753.72a4.6 4.6 0 0 1-4.45-5.8z" stroke="#282c33" stroke-width="2" fill="#fff"/><use xlink:href="#h" transform="matrix(1,0,0,1,752.7322016413791,776.4454225814358) translate(14.338333333333347 40.73958333333333)"/><use xlink:href="#i" transform="matrix(1,0,0,1,752.7322016413791,776.4454225814358) translate(103.07907407407407 40.73958333333333)"/><use xlink:href="#j" transform="matrix(1,0,0,1,752.7322016413791,776.4454225814358) translate(160.85685185185184 40.73958333333333)"/><path d="M767.16 827.9a7.8 7.8 0 0 1 7.55-5.8h166.77a4.6 4.6 0 0 1 4.45 5.8L928.04 895a7.8 7.8 0 0 1-7.55 5.8H753.72a4.6 4.6 0 0 1-4.45-5.8z" stroke="#282c33" stroke-width="2" fill="#fff"/><use xlink:href="#h" transform="matrix(1,0,0,1,752.7322016413791,827.1120892481026) translate(14.338333333333347 40.73958333333333)"/><use xlink:href="#i" transform="matrix(1,0,0,1,752.7322016413791,827.1120892481026) translate(103.07907407407407 40.73958333333333)"/><use xlink:href="#k" transform="matrix(1,0,0,1,752.7322016413791,827.1120892481026) translate(160.85685185185184 40.73958333333333)"/><path d="M767.16 881.5a7.8 7.8 0 0 1 7.55-5.8h166.77a4.6 4.6 0 0 1 4.45 5.8l-17.88 67.08a7.8 7.8 0 0 1-7.55 5.8H753.72a4.6 4.6 0 0 1-4.45-5.8z" stroke="#282c33" stroke-width="2" fill="#fff"/><use xlink:href="#h" transform="matrix(1,0,0,1,752.7322016413791,880.7120892481025) translate(14.338333333333347 40.73958333333333)"/><use xlink:href="#i" transform="matrix(1,0,0,1,752.7322016413791,880.7120892481025) translate(103.07907407407407 40.73958333333333)"/><use xlink:href="#l" transform="matrix(1,0,0,1,752.7322016413791,880.7120892481025) translate(160.85685185185184 40.73958333333333)"/><path d="M767.16 933.5a7.8 7.8 0 0 1 7.55-5.8h166.77a4.6 4.6 0 0 1 4.45 5.8l-17.88 67.08a7.8 7.8 0 0 1-7.55 5.8H753.72a4.6 4.6 0 0 1-4.45-5.8z" stroke="#282c33" stroke-width="2" fill="#fff"/><use xlink:href="#h" transform="matrix(1,0,0,1,752.7322016413791,932.7120892481024) translate(12.153148148148157 40.73958333333333)"/><use xlink:href="#i" transform="matrix(1,0,0,1,752.7322016413791,932.7120892481024) translate(100.89388888888888 40.73958333333333)"/><use xlink:href="#m" transform="matrix(1,0,0,1,752.7322016413791,932.7120892481024) translate(158.67166666666665 40.73958333333333)"/><path d="M1000 836.25a6 6 0 0 1 6-6h148a6 6 0 0 1 6 6v108a6 6 0 0 1-6 6h-148a6 6 0 0 1-6-6z" stroke="#282c33" stroke-width="2" fill="#d7faf5"/><use xlink:href="#n" transform="matrix(1,0,0,1,1012.0000000000005,842.2454225814358) translate(12.481481481481481 24.333333333333336)"/><use xlink:href="#o" transform="matrix(1,0,0,1,1012.0000000000005,842.2454225814358) translate(14.851851851851848 56.333333333333336)"/><use xlink:href="#p" transform="matrix(1,0,0,1,1012.0000000000005,842.2454225814358) translate(73.88888888888889 56.333333333333336)"/><use xlink:href="#q" transform="matrix(1,0,0,1,1012.0000000000005,842.2454225814358) translate(2.8888888888888857 88.33333333333334)"/><path d="M1249.07 818.9a6 6 0 0 1 6-6h148a6 6 0 0 1 6 6v140a6 6 0 0 1-6 6h-148a6 6 0 0 1-6-6z" stroke="#282c33" stroke-width="2" fill="#fff"/><use xlink:href="#r" transform="matrix(1,0,0,1,1261.066666666667,824.9120892481023) translate(26.55555555555555 25.333333333333336)"/><use xlink:href="#s" transform="matrix(1,0,0,1,1261.066666666667,824.9120892481023) translate(17.70370370370371 57.333333333333336)"/><use xlink:href="#t" transform="matrix(1,0,0,1,1261.066666666667,824.9120892481023) translate(11.777777777777771 89.33333333333334)"/><use xlink:href="#u" transform="matrix(1,0,0,1,1261.066666666667,824.9120892481023) translate(26.59259259259258 121.33333333333334)"/><path d="M1452 777.45a6 6 0 0 1 6-6h220.55a6 6 0 0 1 6 6v222.93a6 6 0 0 1-6 6H1458a6 6 0 0 1-6-6z" stroke="#000" stroke-opacity="0" stroke-width="2" fill-opacity="0"/><use xlink:href="#g" transform="matrix(1,0,0,1,1464.0129736159042,783.4454225814359) translate(56.3888888888889 113.64583333333333)"/><path d="M1471.44 777.24a7.8 7.8 0 0 1 7.55-5.8h199.55a4.6 4.6 0 0 1 4.46 5.8l-17.88 67.08a7.8 7.8 0 0 1-7.54 5.8H1458a4.6 4.6 0 0 1-4.44-5.8z" stroke="#282c33" stroke-width="2" fill="#fff"/><use xlink:href="#v" transform="matrix(1,0,0,1,1457.0129736159051,776.4454225814358) translate(10.097592592592614 40.73958333333333)"/><use xlink:href="#i" transform="matrix(1,0,0,1,1457.0129736159051,776.4454225814358) translate(140.3198148148148 40.73958333333333)"/><use xlink:href="#j" transform="matrix(1,0,0,1,1457.0129736159051,776.4454225814358) translate(198.09759259259258 40.73958333333333)"/><path d="M1471.44 827.9a7.8 7.8 0 0 1 7.55-5.8h199.55a4.6 4.6 0 0 1 4.46 5.8L1665.13 895a7.8 7.8 0 0 1-7.54 5.8H1458a4.6 4.6 0 0 1-4.44-5.8z" stroke="#282c33" stroke-width="2" fill="#fff"/><use xlink:href="#v" transform="matrix(1,0,0,1,1457.0129736159051,827.1120892481026) translate(10.097592592592614 40.73958333333333)"/><use xlink:href="#i" transform="matrix(1,0,0,1,1457.0129736159051,827.1120892481026) translate(140.3198148148148 40.73958333333333)"/><use xlink:href="#k" transform="matrix(1,0,0,1,1457.0129736159051,827.1120892481026) translate(198.09759259259258 40.73958333333333)"/><path d="M1471.44 881.5a7.8 7.8 0 0 1 7.55-5.8h199.55a4.6 4.6 0 0 1 4.46 5.8l-17.88 67.08a7.8 7.8 0 0 1-7.54 5.8H1458a4.6 4.6 0 0 1-4.44-5.8z" stroke="#282c33" stroke-width="2" fill="#fff"/><use xlink:href="#v" transform="matrix(1,0,0,1,1457.0129736159051,880.7120892481024) translate(10.097592592592614 40.73958333333333)"/><use xlink:href="#i" transform="matrix(1,0,0,1,1457.0129736159051,880.7120892481024) translate(140.3198148148148 40.73958333333333)"/><use xlink:href="#l" transform="matrix(1,0,0,1,1457.0129736159051,880.7120892481024) translate(198.09759259259258 40.73958333333333)"/><path d="M1471.44 933.5a7.8 7.8 0 0 1 7.55-5.8h199.55a4.6 4.6 0 0 1 4.46 5.8l-17.88 67.08a7.8 7.8 0 0 1-7.54 5.8H1458a4.6 4.6 0 0 1-4.44-5.8z" stroke="#282c33" stroke-width="2" fill="#fff"/><use xlink:href="#v" transform="matrix(1,0,0,1,1457.0129736159051,932.7120892481024) translate(25.208703703703726 23.48958333333333)"/><use xlink:href="#w" transform="matrix(1,0,0,1,1457.0129736159051,932.7120892481024) translate(155.43092592592592 23.48958333333333)"/><use xlink:href="#m" transform="matrix(1,0,0,1,1457.0129736159051,932.7120892481024) translate(96.91240740740741 55.48958333333332)"/><path d="M1727.5 802.9a6 6 0 0 1 6-6h148a6 6 0 0 1 6 6v172a6 6 0 0 1-6 6h-148a6 6 0 0 1-6-6z" stroke="#282c33" stroke-width="2" fill="#fff"/><use xlink:href="#x" transform="matrix(1,0,0,1,1739.4996261746137,808.9120892481026) translate(17.518518518518505 26.333333333333336)"/><use xlink:href="#y" transform="matrix(1,0,0,1,1739.4996261746137,808.9120892481026) translate(62.33333333333333 26.333333333333336)"/><use xlink:href="#z" transform="matrix(1,0,0,1,1739.4996261746137,808.9120892481026) translate(10.222222222222221 58.333333333333336)"/><use xlink:href="#A" transform="matrix(1,0,0,1,1739.4996261746137,808.9120892481026) translate(54.666666666666664 58.333333333333336)"/><use xlink:href="#B" transform="matrix(1,0,0,1,1739.4996261746137,808.9120892481026) translate(56.888888888888886 90.33333333333334)"/><use xlink:href="#C" transform="matrix(1,0,0,1,1739.4996261746137,808.9120892481026) translate(5.1111111111111 122.33333333333334)"/><use xlink:href="#D" transform="matrix(1,0,0,1,1739.4996261746137,808.9120892481026) translate(12.592592592592595 154.33333333333334)"/><path d="M1000 1510.47a6 6 0 0 1 6-6h148a6 6 0 0 1 6 6v108a6 6 0 0 1-6 6h-148a6 6 0 0 1-6-6z" stroke="#282c33" stroke-width="2" fill="#fff"/><use xlink:href="#E" transform="matrix(1,0,0,1,1012.0000000000005,1516.4655886923113) translate(5.925925925925924 54.333333333333336)"/><path d="M486.13 1647.64c0 11.5-37.3 20.84-83.3 20.84s-83.28-9.33-83.28-20.84V1480.9c0-11.52 37.3-20.85 83.3-20.85s83.28 9.33 83.28 20.84z" stroke="#282c33" stroke-width="2" fill="#fff"/><path d="M486.13 1480.9c0 11.5-37.3 20.84-83.3 20.84s-83.28-9.34-83.28-20.85" stroke="#282c33" stroke-width="2" fill="none"/><use xlink:href="#F" transform="matrix(1,0,0,1,324.55145694117556,1506.7356879992492) translate(8.981481481481481 36.052083333333336)"/><use xlink:href="#G" transform="matrix(1,0,0,1,324.55145694117556,1506.7356879992492) translate(37.05555555555556 68.05208333333334)"/><use xlink:href="#H" transform="matrix(1,0,0,1,324.55145694117556,1506.7356879992492) translate(1.6111111111110858 100.05208333333334)"/><use xlink:href="#c" transform="matrix(1,0,0,1,324.55145694117556,1506.7356879992492) translate(102.20370370370371 100.05208333333334)"/><use xlink:href="#I" transform="matrix(1,0,0,1,324.55145694117556,1506.7356879992492) translate(21.5 132.05208333333334)"/><path d="M1733.03 1510.47a6 6 0 0 1 6-6h148a6 6 0 0 1 6 6v108a6 6 0 0 1-6 6h-148a6 6 0 0 1-6-6z" stroke="#282c33" stroke-width="2" fill="#f7f4e4"/><use xlink:href="#J" transform="matrix(1,0,0,1,1745.0256346722133,1516.4655886923113) translate(21.444444444444443 37.333333333333336)"/><use xlink:href="#K" transform="matrix(1,0,0,1,1745.0256346722133,1516.4655886923113) translate(-3.0740740740740904 69.33333333333334)"/><path d="M447.63 890.25h70.2" stroke="#3a414a" fill="none"/><path d="M447.65 890.72h-.52v-.95h.52z" stroke="#3a414a" stroke-width=".05" fill="#3a414a"/><path d="M532.58 890.25l-14.26 4.63v-9.27z" stroke="#3a414a" fill="#3a414a"/><path d="M696.7 890.25h34.65" stroke="#3a414a" fill="none"/><path d="M696.7 890.72h-.5v-.95h.5z" stroke="#3a414a" stroke-width=".05" fill="#3a414a"/><path d="M746.1 890.25l-14.25 4.63v-9.27z" stroke="#3a414a" fill="#3a414a"/><path d="M947.97 890.25h34.64" stroke="#3a414a" fill="none"/><path d="M947.98 890.72h-.5v-.95h.5z" stroke="#3a414a" stroke-width=".05" fill="#3a414a"/><path d="M997.38 890.25l-14.26 4.63v-9.27z" stroke="#3a414a" fill="#3a414a"/><path d="M1161.5 890.25h42.86a.18.18 0 0 1 .17.17.18.18 0 0 0 .18.18h26.98" stroke="#3a414a" fill="none"/><path d="M1161.5 890.72h-.5v-.95h.5z" stroke="#3a414a" stroke-width=".05" fill="#3a414a"/><path d="M1246.45 890.6l-14.27 4.64v-9.27z" stroke="#3a414a" fill="#3a414a"/><path d="M1410.57 888.9h25.07" stroke="#3a414a" fill="none"/><path d="M1410.58 889.4h-.5v-.96h.5z" stroke="#3a414a" stroke-width=".05" fill="#3a414a"/><path d="M1450.4 888.9l-14.27 4.65v-9.27z" stroke="#3a414a" fill="#3a414a"/><path d="M1682.63 888.67h21.57a.12.12 0 0 1 .12.12.12.12 0 0 0 .12.1h5.68" stroke="#3a414a" fill="none"/><path d="M1682.64 889.14h-.63l.26-.94h.38z" stroke="#3a414a" stroke-width=".05" fill="#3a414a"/><path d="M1724.88 888.9l-14.26 4.64v-9.27z" stroke="#3a414a" fill="#3a414a"/><path d="M1000 1126.92a6 6 0 0 1 6-6h148a6 6 0 0 1 6 6v108a6 6 0 0 1-6 6h-148a6 6 0 0 1-6-6z" stroke="#282c33" stroke-width="2" fill="#fff"/><use xlink:href="#L" transform="matrix(1,0,0,1,1012.0000000000005,1132.916762829523) translate(14.740740740740748 36.333333333333336)"/><use xlink:href="#M" transform="matrix(1,0,0,1,1012.0000000000005,1132.916762829523) translate(0 68.33333333333334)"/><use xlink:href="#N" transform="matrix(1,0,0,1,1012.0000000000005,1132.916762829523) translate(63.55555555555556 68.33333333333334)"/><path d="M1080 951.75v151.78" stroke="#3a414a" fill="none"/><path d="M1080.47 951.76h-.94v-.5h.94z" stroke="#3a414a" stroke-width=".05" fill="#3a414a"/><path d="M1080 1118.3l-4.63-14.27h9.27z" stroke="#3a414a" fill="#3a414a"/><path d="M336.6 1126.7a7.8 7.8 0 0 1 7.53-5.78h116a4.6 4.6 0 0 1 4.46 5.8l-28.92 108.4a7.8 7.8 0 0 1-7.55 5.8h-116a4.6 4.6 0 0 1-4.45-5.8z" stroke="#282c33" stroke-width="2" fill="#fff"/><use xlink:href="#O" transform="matrix(1,0,0,1,311.13333333333344,1125.916762829523) translate(36.20870370370369 28.208333333333336)"/><use xlink:href="#P" transform="matrix(1,0,0,1,311.13333333333344,1125.916762829523) translate(46.93092592592592 60.208333333333336)"/><use xlink:href="#N" transform="matrix(1,0,0,1,311.13333333333344,1125.916762829523) translate(30.282777777777767 92.20833333333334)"/><path d="M1074.57 1290.23a12.82 12.82 0 0 1 10.86 0l170.7 79.92a2.8 2.8 0 0 1 0 5.08l-170.7 79.92a12.82 12.82 0 0 1-10.86 0l-170.7-79.92a2.8 2.8 0 0 1 0-5.08z" stroke="#282c33" stroke-width="2" fill="#fff"/><use xlink:href="#Q" transform="matrix(1,0,0,1,903.444994949811,1292.691175760917) translate(134.35685185185184 36.333333333333336)"/><use xlink:href="#P" transform="matrix(1,0,0,1,903.444994949811,1292.691175760917) translate(162.505 36.333333333333336)"/><use xlink:href="#R" transform="matrix(1,0,0,1,903.444994949811,1292.691175760917) translate(80.3938888888889 68.33333333333334)"/><use xlink:href="#S" transform="matrix(1,0,0,1,903.444994949811,1292.691175760917) translate(160.24574074074076 68.33333333333334)"/><use xlink:href="#p" transform="matrix(1,0,0,1,903.444994949811,1292.691175760917) translate(225.35685185185187 68.33333333333334)"/><use xlink:href="#T" transform="matrix(1,0,0,1,903.444994949811,1292.691175760917) translate(100.35685185185184 100.33333333333334)"/><use xlink:href="#U" transform="matrix(1,0,0,1,903.444994949811,1292.691175760917) translate(137.07907407407407 132.33333333333334)"/><path d="M1080 1242.42v29.22" stroke="#3a414a" fill="none"/><path d="M1080.47 1242.43h-.94v-.5h.94z" stroke="#3a414a" stroke-width=".05" fill="#3a414a"/><path d="M1080 1286.4l-4.63-14.26h9.27z" stroke="#3a414a" fill="#3a414a"/><path d="M1080 1458.36v26.6" stroke="#008a0e" stroke-width="2" fill="none"/><path d="M1080 1457.36l.97-.05v1.08h-1.94v-1.07z" stroke="#008a0e" stroke-width=".05" fill="#008a0e"/><path d="M1080 1500.23l-4.63-14.27h9.27z" stroke="#008a0e" stroke-width="2" fill="#008a0e"/><g><use xlink:href="#V" transform="matrix(1,0,0,1,1092.6352549156245,1461.8433200652821) translate(0 21.333333333333336)"/></g><path d="M1259.74 1372.7h33a6 6 0 0 0 6-6V1186.9a6 6 0 0 0-6-6H1179.5" stroke="#e81313" stroke-width="2" fill="none"/><path d="M1259.77 1373.67h-1.16l.05-.12.1-.86-.1-.87-.04-.1h1.17z" stroke="#e81313" stroke-width=".05" fill="#e81313"/><path d="M1164.24 1180.92l14.26-4.64v9.27z" stroke="#e81313" stroke-width="2" fill="#e81313"/><g><use xlink:href="#W" transform="matrix(1,0,0,1,1306.745443879122,1258.7768158983704) translate(0 21.333333333333336)"/></g><path d="M1518.74 1510.26a7.8 7.8 0 0 1 7.54-5.8h116a4.6 4.6 0 0 1 4.46 5.8l-28.9 108.4a7.8 7.8 0 0 1-7.56 5.8h-116a4.6 4.6 0 0 1-4.45-5.8z" stroke="#282c33" stroke-width="2" fill="#fff"/><g><use xlink:href="#X" transform="matrix(1,0,0,1,1493.2831464206406,1509.4655886923113) translate(20.060555555555563 45.395833333333336)"/><use xlink:href="#N" transform="matrix(1,0,0,1,1493.2831464206406,1509.4655886923113) translate(33.78277777777777 77.39583333333334)"/></g><path d="M451.67 1180.92h530.95" stroke="#3a414a" fill="none"/><path d="M451.68 1181.4h-.64l.25-.96h.38z" stroke="#3a414a" stroke-width=".05" fill="#3a414a"/><path d="M997.38 1180.92l-14.26 4.63v-9.27z" stroke="#3a414a" fill="#3a414a"/><path d="M217.28 641.43a6 6 0 0 1 6-6h428.14a6 6 0 0 1 6 6v83.33a6 6 0 0 1-6 6H223.28a6 6 0 0 1-6-6z" stroke="#000" stroke-opacity="0" stroke-width="2" fill="#fff" fill-opacity="0"/><g><use xlink:href="#Y" transform="matrix(1,0,0,1,222.27833282647396,640.4274893451116) translate(61.0679012345679 49.076388888888886)"/><use xlink:href="#Z" transform="matrix(1,0,0,1,222.27833282647396,640.4274893451116) translate(212.82098765432096 49.076388888888886)"/></g><path d="M1725.6 715.13a6 6 0 0 1 6-6h228a6 6 0 0 1 6 6v48a6 6 0 0 1-6 6h-228a6 6 0 0 1-6-6z" stroke="#000" stroke-opacity="0" stroke-width="2" fill="#fff" fill-opacity="0"/><g><use xlink:href="#aa" transform="matrix(1,0,0,1,1730.6075619932244,714.1294659002019) translate(64.66666666666666 30.708333333333336)"/><use xlink:href="#ab" transform="matrix(1,0,0,1,1730.6075619932244,714.1294659002019) translate(150.51851851851853 30.708333333333336)"/></g><path d="M1464.57 1094.48a6 6 0 0 1 6-6h228a6 6 0 0 1 6 6v48a6 6 0 0 1-6 6h-228a6 6 0 0 1-6-6z" stroke="#000" stroke-opacity="0" stroke-width="2" fill="#fff" fill-opacity="0"/><g><use xlink:href="#aa" transform="matrix(1,0,0,1,1469.5691789390899,1093.4804302142272) translate(64.66666666666666 30.708333333333336)"/><use xlink:href="#ac" transform="matrix(1,0,0,1,1469.5691789390899,1093.4804302142272) translate(150.51851851851853 30.708333333333336)"/></g><path d="M1249.07 1510.47a6 6 0 0 1 6-6h148a6 6 0 0 1 6 6v108a6 6 0 0 1-6 6h-148a6 6 0 0 1-6-6z" stroke="#282c33" stroke-width="2" fill="#fcfcca"/><g><use xlink:href="#ad" transform="matrix(1,0,0,1,1261.066666666667,1516.4655886923113) translate(38.44444444444444 24.333333333333336)"/><use xlink:href="#ae" transform="matrix(1,0,0,1,1261.066666666667,1516.4655886923113) translate(11.777777777777771 56.333333333333336)"/><use xlink:href="#N" transform="matrix(1,0,0,1,1261.066666666667,1516.4655886923113) translate(31.77777777777777 88.33333333333334)"/></g><path d="M1693.03 1094.48a6 6 0 0 1 6-6h228a6 6 0 0 1 6 6v48a6 6 0 0 1-6 6h-228a6 6 0 0 1-6-6z" stroke="#000" stroke-opacity="0" stroke-width="2" fill="#fff" fill-opacity="0"/><g><use xlink:href="#af" transform="matrix(1,0,0,1,1698.0256346722133,1093.4804302142275) translate(64.77777777777777 30.708333333333336)"/></g><path d="M1161.5 1564.47h70.18" stroke="#3a414a" fill="none"/><path d="M1161.5 1564.94h-.5v-.95h.5z" stroke="#3a414a" stroke-width=".05" fill="#3a414a"/><path d="M1246.45 1564.47l-14.27 4.63v-9.27z" stroke="#3a414a" fill="#3a414a"/><path d="M1410.57 1564.47h76.3" stroke="#3a414a" fill="none"/><path d="M1410.58 1564.94h-.5v-.95h.5z" stroke="#3a414a" stroke-width=".05" fill="#3a414a"/><path d="M1501.63 1564.47l-14.27 4.63v-9.27z" stroke="#3a414a" fill="#3a414a"/><path d="M1633.82 1564.47h81.82" stroke="#3a414a" fill="none"/><path d="M1633.83 1564.94h-.64l.24-.95h.4z" stroke="#3a414a" stroke-width=".05" fill="#3a414a"/><path d="M1730.4 1564.47l-14.26 4.63v-9.27z" stroke="#3a414a" fill="#3a414a"/><path d="M487.63 1564.27h495" stroke="#3a414a" fill="none"/><path d="M487.65 1564.74h-.52v-.95h.52z" stroke="#3a414a" stroke-width=".05" fill="#3a414a"/><path d="M997.38 1564.27l-14.26 4.63v-9.27z" stroke="#3a414a" fill="#3a414a"/><g><use xlink:href="#ag" transform="matrix(1,0,0,1,602.6962545290519,1528.2659876155517) translate(0 21.333333333333336)"/><use xlink:href="#ah" transform="matrix(1,0,0,1,602.6962545290519,1528.2659876155517) translate(134.51851851851853 21.333333333333336)"/></g><defs><path fill="#3a414a" d="M30-248c87 1 191-15 191 75 0 78-77 80-158 76V0H30v-248zm33 125c57 0 124 11 124-50 0-59-68-47-124-48v98" id="ai"/><path fill="#3a414a" d="M114-163C36-179 61-72 57 0H25l-1-190h30c1 12-1 29 2 39 6-27 23-49 58-41v29" id="aj"/><path fill="#3a414a" d="M100-194c62-1 85 37 85 99 1 63-27 99-86 99S16-35 15-95c0-66 28-99 85-99zM99-20c44 1 53-31 53-75 0-43-8-75-51-75s-53 32-53 75 10 74 51 75" id="ak"/><path fill="#3a414a" d="M96-169c-40 0-48 33-48 73s9 75 48 75c24 0 41-14 43-38l32 2c-6 37-31 61-74 61-59 0-76-41-82-99-10-93 101-131 147-64 4 7 5 14 7 22l-32 3c-4-21-16-35-41-35" id="al"/><path fill="#3a414a" d="M100-194c63 0 86 42 84 106H49c0 40 14 67 53 68 26 1 43-12 49-29l28 8c-11 28-37 45-77 45C44 4 14-33 15-96c1-61 26-98 85-98zm52 81c6-60-76-77-97-28-3 7-6 17-6 28h103" id="am"/><path fill="#3a414a" d="M135-143c-3-34-86-38-87 0 15 53 115 12 119 90S17 21 10-45l28-5c4 36 97 45 98 0-10-56-113-15-118-90-4-57 82-63 122-42 12 7 21 19 24 35" id="an"/><g id="a"><use transform="matrix(0.07407407407407408,0,0,0.07407407407407408,0,0)" xlink:href="#ai"/><use transform="matrix(0.07407407407407408,0,0,0.07407407407407408,17.77777777777778,0)" xlink:href="#aj"/><use transform="matrix(0.07407407407407408,0,0,0.07407407407407408,26.592592592592595,0)" xlink:href="#ak"/><use transform="matrix(0.07407407407407408,0,0,0.07407407407407408,41.40740740740741,0)" xlink:href="#al"/><use transform="matrix(0.07407407407407408,0,0,0.07407407407407408,54.74074074074075,0)" xlink:href="#am"/><use transform="matrix(0.07407407407407408,0,0,0.07407407407407408,69.55555555555557,0)" xlink:href="#an"/><use transform="matrix(0.07407407407407408,0,0,0.07407407407407408,82.88888888888891,0)" xlink:href="#an"/></g><path fill="#3a414a" d="M185-189c-5-48-123-54-124 2 14 75 158 14 163 119 3 78-121 87-175 55-17-10-28-26-33-46l33-7c5 56 141 63 141-1 0-78-155-14-162-118-5-82 145-84 179-34 5 7 8 16 11 25" id="ao"/><path fill="#3a414a" d="M24-231v-30h32v30H24zM24 0v-190h32V0H24" id="ap"/><path fill="#3a414a" d="M177-190C167-65 218 103 67 71c-23-6-38-20-44-43l32-5c15 47 100 32 89-28v-30C133-14 115 1 83 1 29 1 15-40 15-95c0-56 16-97 71-98 29-1 48 16 59 35 1-10 0-23 2-32h30zM94-22c36 0 50-32 50-73 0-42-14-75-50-75-39 0-46 34-46 75s6 73 46 73" id="aq"/><path fill="#3a414a" d="M117-194c89-4 53 116 60 194h-32v-121c0-31-8-49-39-48C34-167 62-67 57 0H25l-1-190h30c1 10-1 24 2 32 11-22 29-35 61-36" id="ar"/><path fill="#3a414a" d="M141-36C126-15 110 5 73 4 37 3 15-17 15-53c-1-64 63-63 125-63 3-35-9-54-41-54-24 1-41 7-42 31l-33-3c5-37 33-52 76-52 45 0 72 20 72 64v82c-1 20 7 32 28 27v20c-31 9-61-2-59-35zM48-53c0 20 12 33 32 33 41-3 63-29 60-74-43 2-92-5-92 41" id="as"/><path fill="#3a414a" d="M24 0v-261h32V0H24" id="at"/><g id="b"><use transform="matrix(0.07407407407407408,0,0,0.07407407407407408,0,0)" xlink:href="#ao"/><use transform="matrix(0.07407407407407408,0,0,0.07407407407407408,17.77777777777778,0)" xlink:href="#ap"/><use transform="matrix(0.07407407407407408,0,0,0.07407407407407408,23.629629629629633,0)" xlink:href="#aq"/><use transform="matrix(0.07407407407407408,0,0,0.07407407407407408,38.44444444444445,0)" xlink:href="#ar"/><use transform="matrix(0.07407407407407408,0,0,0.07407407407407408,53.25925925925927,0)" xlink:href="#as"/><use transform="matrix(0.07407407407407408,0,0,0.07407407407407408,68.07407407407408,0)" xlink:href="#at"/><use transform="matrix(0.07407407407407408,0,0,0.07407407407407408,73.92592592592592,0)" xlink:href="#an"/></g><path fill="#3a414a" d="M101-234c-31-9-42 10-38 44h38v23H63V0H32v-167H5v-23h27c-7-52 17-82 69-68v24" id="au"/><path fill="#3a414a" d="M210-169c-67 3-38 105-44 169h-31v-121c0-29-5-50-35-48C34-165 62-65 56 0H25l-1-190h30c1 10-1 24 2 32 10-44 99-50 107 0 11-21 27-35 58-36 85-2 47 119 55 194h-31v-121c0-29-5-49-35-48" id="av"/><g id="c"><use transform="matrix(0.07407407407407408,0,0,0.07407407407407408,0,0)" xlink:href="#au"/><use transform="matrix(0.07407407407407408,0,0,0.07407407407407408,7.407407407407408,0)" xlink:href="#aj"/><use transform="matrix(0.07407407407407408,0,0,0.07407407407407408,16.222222222222225,0)" xlink:href="#ak"/><use transform="matrix(0.07407407407407408,0,0,0.07407407407407408,31.03703703703704,0)" xlink:href="#av"/></g><path fill="#3a414a" d="M240 0l2-218c-23 76-54 145-80 218h-23L58-218 59 0H30v-248h44l77 211c21-75 51-140 76-211h43V0h-30" id="aw"/><path fill="#3a414a" d="M106-169C34-169 62-67 57 0H25v-261h32l-1 103c12-21 28-36 61-36 89 0 53 116 60 194h-32v-121c2-32-8-49-39-48" id="ax"/><g id="d"><use transform="matrix(0.07407407407407408,0,0,0.07407407407407408,0,0)" xlink:href="#aw"/><use transform="matrix(0.07407407407407408,0,0,0.07407407407407408,22.148148148148152,0)" xlink:href="#am"/><use transform="matrix(0.07407407407407408,0,0,0.07407407407407408,36.96296296296297,0)" xlink:href="#ar"/><use transform="matrix(0.07407407407407408,0,0,0.07407407407407408,51.777777777777786,0)" xlink:href="#ax"/><use transform="matrix(0.07407407407407408,0,0,0.07407407407407408,66.59259259259261,0)" xlink:href="#ap"/><use transform="matrix(0.07407407407407408,0,0,0.07407407407407408,72.44444444444446,0)" xlink:href="#aj"/></g><path fill="#3a414a" d="M108 0H70L1-190h34L89-25l56-165h34" id="ay"/><g id="e"><use transform="matrix(0.07407407407407408,0,0,0.07407407407407408,0,0)" xlink:href="#an"/><use transform="matrix(0.07407407407407408,0,0,0.07407407407407408,13.333333333333336,0)" xlink:href="#am"/><use transform="matrix(0.07407407407407408,0,0,0.07407407407407408,28.148148148148152,0)" xlink:href="#aj"/><use transform="matrix(0.07407407407407408,0,0,0.07407407407407408,36.96296296296297,0)" xlink:href="#ay"/><use transform="matrix(0.07407407407407408,0,0,0.07407407407407408,50.296296296296305,0)" xlink:href="#am"/><use transform="matrix(0.07407407407407408,0,0,0.07407407407407408,65.11111111111111,0)" xlink:href="#aj"/></g><path fill="#3a414a" d="M212-179c-10-28-35-45-73-45-59 0-87 40-87 99 0 60 29 101 89 101 43 0 62-24 78-52l27 14C228-24 195 4 139 4 59 4 22-46 18-125c-6-104 99-153 187-111 19 9 31 26 39 46" id="az"/><path fill="#3a414a" d="M84 4C-5 8 30-112 23-190h32v120c0 31 7 50 39 49 72-2 45-101 50-169h31l1 190h-30c-1-10 1-25-2-33-11 22-28 36-60 37" id="aA"/><path fill="#3a414a" d="M59-47c-2 24 18 29 38 22v24C64 9 27 4 27-40v-127H5v-23h24l9-43h21v43h35v23H59v120" id="aB"/><g id="f"><use transform="matrix(0.07407407407407408,0,0,0.07407407407407408,0,0)" xlink:href="#az"/><use transform="matrix(0.07407407407407408,0,0,0.07407407407407408,19.185185185185187,0)" xlink:href="#at"/><use transform="matrix(0.07407407407407408,0,0,0.07407407407407408,25.037037037037035,0)" xlink:href="#aA"/><use transform="matrix(0.07407407407407408,0,0,0.07407407407407408,39.851851851851855,0)" xlink:href="#an"/><use transform="matrix(0.07407407407407408,0,0,0.07407407407407408,53.18518518518519,0)" xlink:href="#aB"/><use transform="matrix(0.07407407407407408,0,0,0.07407407407407408,60.592592592592595,0)" xlink:href="#am"/><use transform="matrix(0.07407407407407408,0,0,0.07407407407407408,75.40740740740742,0)" xlink:href="#aj"/><use transform="matrix(0.07407407407407408,0,0,0.07407407407407408,84.22222222222223,0)" xlink:href="#ap"/><use transform="matrix(0.07407407407407408,0,0,0.07407407407407408,90.07407407407408,0)" xlink:href="#ar"/><use transform="matrix(0.07407407407407408,0,0,0.07407407407407408,104.88888888888889,0)" xlink:href="#aq"/></g><g id="g"><use transform="matrix(0.07407407407407406,0,0,0.07407407407407406,0,0)" xlink:href="#ai"/><use transform="matrix(0.07407407407407406,0,0,0.07407407407407406,17.777777777777775,0)" xlink:href="#aj"/><use transform="matrix(0.07407407407407406,0,0,0.07407407407407406,26.592592592592585,0)" xlink:href="#ak"/><use transform="matrix(0.07407407407407406,0,0,0.07407407407407406,41.4074074074074,0)" xlink:href="#al"/><use transform="matrix(0.07407407407407406,0,0,0.07407407407407406,54.740740740740726,0)" xlink:href="#am"/><use transform="matrix(0.07407407407407406,0,0,0.07407407407407406,69.55555555555554,0)" xlink:href="#an"/><use transform="matrix(0.07407407407407406,0,0,0.07407407407407406,82.88888888888887,0)" xlink:href="#an"/></g><path fill="#3a414a" d="M33-154v-36h34v36H33zM33 0v-36h34V0H33" id="aC"/><g id="h"><use transform="matrix(0.07407407407407406,0,0,0.07407407407407406,0,0)" xlink:href="#ao"/><use transform="matrix(0.07407407407407406,0,0,0.07407407407407406,17.777777777777775,0)" xlink:href="#ap"/><use transform="matrix(0.07407407407407406,0,0,0.07407407407407406,23.62962962962963,0)" xlink:href="#aq"/><use transform="matrix(0.07407407407407406,0,0,0.07407407407407406,38.444444444444436,0)" xlink:href="#ar"/><use transform="matrix(0.07407407407407406,0,0,0.07407407407407406,53.259259259259245,0)" xlink:href="#as"/><use transform="matrix(0.07407407407407406,0,0,0.07407407407407406,68.07407407407406,0)" xlink:href="#at"/><use transform="matrix(0.07407407407407406,0,0,0.07407407407407406,73.92592592592591,0)" xlink:href="#aC"/></g><path fill="#3a414a" d="M179-190L93 31C79 59 56 82 12 73V49c39 6 53-20 64-50L1-190h34L92-34l54-156h33" id="aD"/><path fill="#3a414a" d="M115-194c55 1 70 41 70 98S169 2 115 4C84 4 66-9 55-30l1 105H24l-1-265h31l2 30c10-21 28-34 59-34zm-8 174c40 0 45-34 45-75s-6-73-45-74c-42 0-51 32-51 76 0 43 10 73 51 73" id="aE"/><g id="i"><use transform="matrix(0.07407407407407406,0,0,0.07407407407407406,0,0)" xlink:href="#aB"/><use transform="matrix(0.07407407407407406,0,0,0.07407407407407406,7.407407407407406,0)" xlink:href="#aD"/><use transform="matrix(0.07407407407407406,0,0,0.07407407407407406,20.740740740740737,0)" xlink:href="#aE"/><use transform="matrix(0.07407407407407406,0,0,0.07407407407407406,35.55555555555555,0)" xlink:href="#am"/></g><path fill="#3a414a" d="M27 0v-27h64v-190l-56 39v-29l58-41h29v221h61V0H27" id="aF"/><use transform="matrix(0.07407407407407406,0,0,0.07407407407407406,0,0)" xlink:href="#aF" id="j"/><path fill="#3a414a" d="M101-251c82-7 93 87 43 132L82-64C71-53 59-42 53-27h129V0H18c2-99 128-94 128-182 0-28-16-43-45-43s-46 15-49 41l-32-3c6-41 34-60 81-64" id="aG"/><use transform="matrix(0.07407407407407406,0,0,0.07407407407407406,0,0)" xlink:href="#aG" id="k"/><path fill="#3a414a" d="M126-127c33 6 58 20 58 59 0 88-139 92-164 29-3-8-5-16-6-25l32-3c6 27 21 44 54 44 32 0 52-15 52-46 0-38-36-46-79-43v-28c39 1 72-4 72-42 0-27-17-43-46-43-28 0-47 15-49 41l-32-3c6-42 35-63 81-64 48-1 79 21 79 65 0 36-21 52-52 59" id="aH"/><use transform="matrix(0.07407407407407406,0,0,0.07407407407407406,0,0)" xlink:href="#aH" id="l"/><path fill="#3a414a" d="M190 0L58-211 59 0H30v-248h39L202-35l-2-213h31V0h-41" id="aI"/><use transform="matrix(0.07407407407407406,0,0,0.07407407407407406,0,0)" xlink:href="#aI" id="m"/><path fill="#3a414a" d="M143 4C61 4 22-44 18-125c-5-107 100-154 193-111 17 8 29 25 37 43l-32 9c-13-25-37-40-76-40-61 0-88 39-88 99 0 61 29 100 91 101 35 0 62-11 79-27v-45h-74v-28h105v86C228-13 192 4 143 4" id="aJ"/><g id="n"><use transform="matrix(0.07407407407407408,0,0,0.07407407407407408,0,0)" xlink:href="#aJ"/><use transform="matrix(0.07407407407407408,0,0,0.07407407407407408,20.740740740740744,0)" xlink:href="#am"/><use transform="matrix(0.07407407407407408,0,0,0.07407407407407408,35.55555555555556,0)" xlink:href="#ar"/><use transform="matrix(0.07407407407407408,0,0,0.07407407407407408,50.370370370370374,0)" xlink:href="#am"/><use transform="matrix(0.07407407407407408,0,0,0.07407407407407408,65.18518518518519,0)" xlink:href="#aj"/><use transform="matrix(0.07407407407407408,0,0,0.07407407407407408,74,0)" xlink:href="#as"/><use transform="matrix(0.07407407407407408,0,0,0.07407407407407408,88.81481481481481,0)" xlink:href="#aB"/><use transform="matrix(0.07407407407407408,0,0,0.07407407407407408,96.22222222222221,0)" xlink:href="#am"/></g><path fill="#3a414a" d="M63-220v92h138v28H63V0H30v-248h175v28H63" id="aK"/><path fill="#3a414a" d="M233-177c-1 41-23 64-60 70L243 0h-38l-65-103H63V0H30v-248c88 3 205-21 203 71zM63-129c60-2 137 13 137-47 0-61-80-42-137-45v92" id="aL"/><g id="o"><use transform="matrix(0.07407407407407408,0,0,0.07407407407407408,0,0)" xlink:href="#aK"/><use transform="matrix(0.07407407407407408,0,0,0.07407407407407408,16.222222222222225,0)" xlink:href="#aL"/><use transform="matrix(0.07407407407407408,0,0,0.07407407407407408,35.40740740740741,0)" xlink:href="#aK"/></g><path fill="#3a414a" d="M206 0h-36l-40-164L89 0H53L-1-190h32L70-26l43-164h34l41 164 42-164h31" id="aM"/><g id="p"><use transform="matrix(0.07407407407407408,0,0,0.07407407407407408,0,0)" xlink:href="#aM"/><use transform="matrix(0.07407407407407408,0,0,0.07407407407407408,19.185185185185187,0)" xlink:href="#ap"/><use transform="matrix(0.07407407407407408,0,0,0.07407407407407408,25.037037037037035,0)" xlink:href="#aB"/><use transform="matrix(0.07407407407407408,0,0,0.07407407407407408,32.44444444444444,0)" xlink:href="#ax"/></g><g id="q"><use transform="matrix(0.07407407407407408,0,0,0.07407407407407408,0,0)" xlink:href="#aA"/><use transform="matrix(0.07407407407407408,0,0,0.07407407407407408,14.814814814814817,0)" xlink:href="#ar"/><use transform="matrix(0.07407407407407408,0,0,0.07407407407407408,29.629629629629633,0)" xlink:href="#al"/><use transform="matrix(0.07407407407407408,0,0,0.07407407407407408,42.96296296296297,0)" xlink:href="#am"/><use transform="matrix(0.07407407407407408,0,0,0.07407407407407408,57.777777777777786,0)" xlink:href="#aj"/><use transform="matrix(0.07407407407407408,0,0,0.07407407407407408,66.59259259259261,0)" xlink:href="#aB"/><use transform="matrix(0.07407407407407408,0,0,0.07407407407407408,74.00000000000001,0)" xlink:href="#as"/><use transform="matrix(0.07407407407407408,0,0,0.07407407407407408,88.81481481481484,0)" xlink:href="#ap"/><use transform="matrix(0.07407407407407408,0,0,0.07407407407407408,94.66666666666669,0)" xlink:href="#ar"/><use transform="matrix(0.07407407407407408,0,0,0.07407407407407408,109.4814814814815,0)" xlink:href="#aB"/><use transform="matrix(0.07407407407407408,0,0,0.07407407407407408,116.8888888888889,0)" xlink:href="#aD"/></g><path fill="#3a414a" d="M30 0v-248h187v28H63v79h144v27H63v87h162V0H30" id="aN"/><path fill="#3a414a" d="M141 0L90-78 38 0H4l68-98-65-92h35l48 74 47-74h35l-64 92 68 98h-35" id="aO"/><g id="r"><use transform="matrix(0.07407407407407408,0,0,0.07407407407407408,0,0)" xlink:href="#aN"/><use transform="matrix(0.07407407407407408,0,0,0.07407407407407408,17.77777777777778,0)" xlink:href="#aO"/><use transform="matrix(0.07407407407407408,0,0,0.07407407407407408,31.111111111111114,0)" xlink:href="#aB"/><use transform="matrix(0.07407407407407408,0,0,0.07407407407407408,38.51851851851851,0)" xlink:href="#aj"/><use transform="matrix(0.07407407407407408,0,0,0.07407407407407408,47.33333333333334,0)" xlink:href="#as"/><use transform="matrix(0.07407407407407408,0,0,0.07407407407407408,62.14814814814816,0)" xlink:href="#al"/><use transform="matrix(0.07407407407407408,0,0,0.07407407407407408,75.4814814814815,0)" xlink:href="#aB"/></g><g id="s"><use transform="matrix(0.07407407407407408,0,0,0.07407407407407408,0,0)" xlink:href="#aE"/><use transform="matrix(0.07407407407407408,0,0,0.07407407407407408,14.814814814814817,0)" xlink:href="#ak"/><use transform="matrix(0.07407407407407408,0,0,0.07407407407407408,29.629629629629633,0)" xlink:href="#aB"/><use transform="matrix(0.07407407407407408,0,0,0.07407407407407408,37.03703703703704,0)" xlink:href="#am"/><use transform="matrix(0.07407407407407408,0,0,0.07407407407407408,51.85185185185186,0)" xlink:href="#ar"/><use transform="matrix(0.07407407407407408,0,0,0.07407407407407408,66.66666666666667,0)" xlink:href="#aB"/><use transform="matrix(0.07407407407407408,0,0,0.07407407407407408,74.07407407407408,0)" xlink:href="#ap"/><use transform="matrix(0.07407407407407408,0,0,0.07407407407407408,79.92592592592592,0)" xlink:href="#as"/><use transform="matrix(0.07407407407407408,0,0,0.07407407407407408,94.74074074074073,0)" xlink:href="#at"/></g><g id="t"><use transform="matrix(0.07407407407407408,0,0,0.07407407407407408,0,0)" xlink:href="#am"/><use transform="matrix(0.07407407407407408,0,0,0.07407407407407408,14.814814814814817,0)" xlink:href="#aO"/><use transform="matrix(0.07407407407407408,0,0,0.07407407407407408,28.148148148148152,0)" xlink:href="#al"/><use transform="matrix(0.07407407407407408,0,0,0.07407407407407408,41.48148148148149,0)" xlink:href="#ap"/><use transform="matrix(0.07407407407407408,0,0,0.07407407407407408,47.33333333333334,0)" xlink:href="#aB"/><use transform="matrix(0.07407407407407408,0,0,0.07407407407407408,54.74074074074075,0)" xlink:href="#as"/><use transform="matrix(0.07407407407407408,0,0,0.07407407407407408,69.55555555555557,0)" xlink:href="#aB"/><use transform="matrix(0.07407407407407408,0,0,0.07407407407407408,76.96296296296298,0)" xlink:href="#ap"/><use transform="matrix(0.07407407407407408,0,0,0.07407407407407408,82.81481481481482,0)" xlink:href="#ak"/><use transform="matrix(0.07407407407407408,0,0,0.07407407407407408,97.62962962962965,0)" xlink:href="#ar"/></g><g id="u"><use transform="matrix(0.07407407407407408,0,0,0.07407407407407408,0,0)" xlink:href="#an"/><use transform="matrix(0.07407407407407408,0,0,0.07407407407407408,13.333333333333336,0)" xlink:href="#ap"/><use transform="matrix(0.07407407407407408,0,0,0.07407407407407408,19.18518518518519,0)" xlink:href="#aq"/><use transform="matrix(0.07407407407407408,0,0,0.07407407407407408,34.00000000000001,0)" xlink:href="#ar"/><use transform="matrix(0.07407407407407408,0,0,0.07407407407407408,48.814814814814824,0)" xlink:href="#as"/><use transform="matrix(0.07407407407407408,0,0,0.07407407407407408,63.62962962962964,0)" xlink:href="#at"/><use transform="matrix(0.07407407407407408,0,0,0.07407407407407408,69.4814814814815,0)" xlink:href="#an"/></g><g id="v"><use transform="matrix(0.07407407407407406,0,0,0.07407407407407406,0,0)" xlink:href="#aN"/><use transform="matrix(0.07407407407407406,0,0,0.07407407407407406,17.777777777777775,0)" xlink:href="#aO"/><use transform="matrix(0.07407407407407406,0,0,0.07407407407407406,31.111111111111107,0)" xlink:href="#al"/><use transform="matrix(0.07407407407407406,0,0,0.07407407407407406,44.444444444444436,0)" xlink:href="#ap"/><use transform="matrix(0.07407407407407406,0,0,0.07407407407407406,50.29629629629628,0)" xlink:href="#aB"/><use transform="matrix(0.07407407407407406,0,0,0.07407407407407406,57.70370370370369,0)" xlink:href="#as"/><use transform="matrix(0.07407407407407406,0,0,0.07407407407407406,72.5185185185185,0)" xlink:href="#aB"/><use transform="matrix(0.07407407407407406,0,0,0.07407407407407406,79.92592592592591,0)" xlink:href="#ap"/><use transform="matrix(0.07407407407407406,0,0,0.07407407407407406,85.77777777777776,0)" xlink:href="#ak"/><use transform="matrix(0.07407407407407406,0,0,0.07407407407407406,100.59259259259257,0)" xlink:href="#ar"/><use transform="matrix(0.07407407407407406,0,0,0.07407407407407406,115.40740740740738,0)" xlink:href="#aC"/></g><g id="w"><use transform="matrix(0.07407407407407406,0,0,0.07407407407407406,0,0)" xlink:href="#aB"/><use transform="matrix(0.07407407407407406,0,0,0.07407407407407406,7.407407407407406,0)" xlink:href="#aD"/><use transform="matrix(0.07407407407407406,0,0,0.07407407407407406,20.740740740740737,0)" xlink:href="#aE"/><use transform="matrix(0.07407407407407406,0,0,0.07407407407407406,35.55555555555555,0)" xlink:href="#am"/></g><path fill="#3a414a" d="M127-220V0H93v-220H8v-28h204v28h-85" id="aP"/><g id="x"><use transform="matrix(0.07407407407407408,0,0,0.07407407407407408,0,0)" xlink:href="#aP"/><use transform="matrix(0.07407407407407408,0,0,0.07407407407407408,15.259259259259261,0)" xlink:href="#aj"/><use transform="matrix(0.07407407407407408,0,0,0.07407407407407408,24.074074074074076,0)" xlink:href="#aD"/></g><path fill="#3a414a" d="M115-194c53 0 69 39 70 98 0 66-23 100-70 100C84 3 66-7 56-30L54 0H23l1-261h32v101c10-23 28-34 59-34zm-8 174c40 0 45-34 45-75 0-40-5-75-45-74-42 0-51 32-51 76 0 43 10 73 51 73" id="aQ"/><g id="y"><use transform="matrix(0.07407407407407408,0,0,0.07407407407407408,0,0)" xlink:href="#at"/><use transform="matrix(0.07407407407407408,0,0,0.07407407407407408,5.851851851851853,0)" xlink:href="#as"/><use transform="matrix(0.07407407407407408,0,0,0.07407407407407408,20.666666666666668,0)" xlink:href="#aQ"/><use transform="matrix(0.07407407407407408,0,0,0.07407407407407408,35.48148148148149,0)" xlink:href="#am"/><use transform="matrix(0.07407407407407408,0,0,0.07407407407407408,50.296296296296305,0)" xlink:href="#at"/></g><g id="z"><use transform="matrix(0.07407407407407408,0,0,0.07407407407407408,0,0)" xlink:href="#aB"/><use transform="matrix(0.07407407407407408,0,0,0.07407407407407408,7.407407407407408,0)" xlink:href="#ax"/><use transform="matrix(0.07407407407407408,0,0,0.07407407407407408,22.222222222222225,0)" xlink:href="#am"/></g><g id="A"><use transform="matrix(0.07407407407407408,0,0,0.07407407407407408,0,0)" xlink:href="#al"/><use transform="matrix(0.07407407407407408,0,0,0.07407407407407408,13.333333333333336,0)" xlink:href="#as"/><use transform="matrix(0.07407407407407408,0,0,0.07407407407407408,28.148148148148152,0)" xlink:href="#aA"/><use transform="matrix(0.07407407407407408,0,0,0.07407407407407408,42.96296296296297,0)" xlink:href="#an"/><use transform="matrix(0.07407407407407408,0,0,0.07407407407407408,56.296296296296305,0)" xlink:href="#am"/></g><g id="B"><use transform="matrix(0.07407407407407408,0,0,0.07407407407407408,0,0)" xlink:href="#ak"/><use transform="matrix(0.07407407407407408,0,0,0.07407407407407408,14.814814814814817,0)" xlink:href="#au"/></g><g id="C"><use transform="matrix(0.07407407407407408,0,0,0.07407407407407408,0,0)" xlink:href="#am"/><use transform="matrix(0.07407407407407408,0,0,0.07407407407407408,14.814814814814817,0)" xlink:href="#aO"/><use transform="matrix(0.07407407407407408,0,0,0.07407407407407408,28.148148148148152,0)" xlink:href="#al"/><use transform="matrix(0.07407407407407408,0,0,0.07407407407407408,41.48148148148149,0)" xlink:href="#ap"/><use transform="matrix(0.07407407407407408,0,0,0.07407407407407408,47.33333333333334,0)" xlink:href="#aB"/><use transform="matrix(0.07407407407407408,0,0,0.07407407407407408,54.74074074074075,0)" xlink:href="#as"/><use transform="matrix(0.07407407407407408,0,0,0.07407407407407408,69.55555555555557,0)" xlink:href="#aB"/><use transform="matrix(0.07407407407407408,0,0,0.07407407407407408,76.96296296296298,0)" xlink:href="#ap"/><use transform="matrix(0.07407407407407408,0,0,0.07407407407407408,82.81481481481482,0)" xlink:href="#ak"/><use transform="matrix(0.07407407407407408,0,0,0.07407407407407408,97.62962962962965,0)" xlink:href="#ar"/><use transform="matrix(0.07407407407407408,0,0,0.07407407407407408,112.44444444444446,0)" xlink:href="#an"/></g><path fill="#3a414a" d="M87 75C49 33 22-17 22-94c0-76 28-126 65-167h31c-38 41-64 92-64 168S80 34 118 75H87" id="aR"/><path fill="#3a414a" d="M33-261c38 41 65 92 65 168S71 34 33 75H2C39 34 66-17 66-93S39-220 2-261h31" id="aS"/><g id="D"><use transform="matrix(0.07407407407407408,0,0,0.07407407407407408,0,0)" xlink:href="#aR"/><use transform="matrix(0.07407407407407408,0,0,0.07407407407407408,8.814814814814817,0)" xlink:href="#ak"/><use transform="matrix(0.07407407407407408,0,0,0.07407407407407408,23.629629629629633,0)" xlink:href="#aE"/><use transform="matrix(0.07407407407407408,0,0,0.07407407407407408,38.44444444444445,0)" xlink:href="#aB"/><use transform="matrix(0.07407407407407408,0,0,0.07407407407407408,45.851851851851855,0)" xlink:href="#ap"/><use transform="matrix(0.07407407407407408,0,0,0.07407407407407408,51.70370370370372,0)" xlink:href="#ak"/><use transform="matrix(0.07407407407407408,0,0,0.07407407407407408,66.51851851851853,0)" xlink:href="#ar"/><use transform="matrix(0.07407407407407408,0,0,0.07407407407407408,81.33333333333334,0)" xlink:href="#as"/><use transform="matrix(0.07407407407407408,0,0,0.07407407407407408,96.14814814814814,0)" xlink:href="#at"/><use transform="matrix(0.07407407407407408,0,0,0.07407407407407408,102,0)" xlink:href="#aS"/></g><g id="E"><use transform="matrix(0.07407407407407408,0,0,0.07407407407407408,0,0)" xlink:href="#ao"/><use transform="matrix(0.07407407407407408,0,0,0.07407407407407408,17.77777777777778,0)" xlink:href="#ap"/><use transform="matrix(0.07407407407407408,0,0,0.07407407407407408,23.629629629629633,0)" xlink:href="#av"/><use transform="matrix(0.07407407407407408,0,0,0.07407407407407408,45.777777777777786,0)" xlink:href="#aA"/><use transform="matrix(0.07407407407407408,0,0,0.07407407407407408,60.5925925925926,0)" xlink:href="#at"/><use transform="matrix(0.07407407407407408,0,0,0.07407407407407408,66.44444444444446,0)" xlink:href="#as"/><use transform="matrix(0.07407407407407408,0,0,0.07407407407407408,81.25925925925927,0)" xlink:href="#aB"/><use transform="matrix(0.07407407407407408,0,0,0.07407407407407408,88.66666666666667,0)" xlink:href="#ap"/><use transform="matrix(0.07407407407407408,0,0,0.07407407407407408,94.51851851851852,0)" xlink:href="#ak"/><use transform="matrix(0.07407407407407408,0,0,0.07407407407407408,109.33333333333334,0)" xlink:href="#ar"/></g><g id="F"><use transform="matrix(0.07407407407407408,0,0,0.07407407407407408,0,0)" xlink:href="#aJ"/><use transform="matrix(0.07407407407407408,0,0,0.07407407407407408,20.740740740740744,0)" xlink:href="#am"/><use transform="matrix(0.07407407407407408,0,0,0.07407407407407408,35.55555555555556,0)" xlink:href="#ak"/><use transform="matrix(0.07407407407407408,0,0,0.07407407407407408,50.370370370370374,0)" xlink:href="#aB"/><use transform="matrix(0.07407407407407408,0,0,0.07407407407407408,57.777777777777786,0)" xlink:href="#ax"/><use transform="matrix(0.07407407407407408,0,0,0.07407407407407408,72.59259259259261,0)" xlink:href="#am"/><use transform="matrix(0.07407407407407408,0,0,0.07407407407407408,87.40740740740742,0)" xlink:href="#aj"/><use transform="matrix(0.07407407407407408,0,0,0.07407407407407408,96.22222222222223,0)" xlink:href="#av"/><use transform="matrix(0.07407407407407408,0,0,0.07407407407407408,118.37037037037038,0)" xlink:href="#as"/><use transform="matrix(0.07407407407407408,0,0,0.07407407407407408,133.1851851851852,0)" xlink:href="#at"/></g><path fill="#3a414a" d="M85-194c31 0 48 13 60 33l-1-100h32l1 261h-30c-2-10 0-23-3-31C134-8 116 4 85 4 32 4 16-35 15-94c0-66 23-100 70-100zm9 24c-40 0-46 34-46 75 0 40 6 74 45 74 42 0 51-32 51-76 0-42-9-74-50-73" id="aT"/><g id="G"><use transform="matrix(0.07407407407407408,0,0,0.07407407407407408,0,0)" xlink:href="#aq"/><use transform="matrix(0.07407407407407408,0,0,0.07407407407407408,14.814814814814817,0)" xlink:href="#aj"/><use transform="matrix(0.07407407407407408,0,0,0.07407407407407408,23.629629629629633,0)" xlink:href="#ak"/><use transform="matrix(0.07407407407407408,0,0,0.07407407407407408,38.44444444444445,0)" xlink:href="#aA"/><use transform="matrix(0.07407407407407408,0,0,0.07407407407407408,53.25925925925927,0)" xlink:href="#ar"/><use transform="matrix(0.07407407407407408,0,0,0.07407407407407408,68.07407407407408,0)" xlink:href="#aT"/></g><g id="H"><use transform="matrix(0.07407407407407408,0,0,0.07407407407407408,0,0)" xlink:href="#av"/><use transform="matrix(0.07407407407407408,0,0,0.07407407407407408,22.148148148148152,0)" xlink:href="#ak"/><use transform="matrix(0.07407407407407408,0,0,0.07407407407407408,36.96296296296297,0)" xlink:href="#aB"/><use transform="matrix(0.07407407407407408,0,0,0.07407407407407408,44.37037037037039,0)" xlink:href="#ap"/><use transform="matrix(0.07407407407407408,0,0,0.07407407407407408,50.222222222222236,0)" xlink:href="#ak"/><use transform="matrix(0.07407407407407408,0,0,0.07407407407407408,65.03703703703705,0)" xlink:href="#ar"/><use transform="matrix(0.07407407407407408,0,0,0.07407407407407408,79.85185185185188,0)" xlink:href="#an"/></g><path fill="#3a414a" d="M30-248c118-7 216 8 213 122C240-48 200 0 122 0H30v-248zM63-27c89 8 146-16 146-99s-60-101-146-95v194" id="aU"/><g id="I"><use transform="matrix(0.07407407407407408,0,0,0.07407407407407408,0,0)" xlink:href="#aU"/><use transform="matrix(0.07407407407407408,0,0,0.07407407407407408,19.185185185185187,0)" xlink:href="#as"/><use transform="matrix(0.07407407407407408,0,0,0.07407407407407408,34,0)" xlink:href="#aB"/><use transform="matrix(0.07407407407407408,0,0,0.07407407407407408,41.407407407407405,0)" xlink:href="#as"/><use transform="matrix(0.07407407407407408,0,0,0.07407407407407408,56.22222222222222,0)" xlink:href="#aQ"/><use transform="matrix(0.07407407407407408,0,0,0.07407407407407408,71.03703703703704,0)" xlink:href="#as"/><use transform="matrix(0.07407407407407408,0,0,0.07407407407407408,85.85185185185185,0)" xlink:href="#an"/><use transform="matrix(0.07407407407407408,0,0,0.07407407407407408,99.1851851851852,0)" xlink:href="#am"/></g><g id="J"><use transform="matrix(0.07407407407407408,0,0,0.07407407407407408,0,0)" xlink:href="#ao"/><use transform="matrix(0.07407407407407408,0,0,0.07407407407407408,17.77777777777778,0)" xlink:href="#am"/><use transform="matrix(0.07407407407407408,0,0,0.07407407407407408,32.592592592592595,0)" xlink:href="#ap"/><use transform="matrix(0.07407407407407408,0,0,0.07407407407407408,38.44444444444445,0)" xlink:href="#an"/><use transform="matrix(0.07407407407407408,0,0,0.07407407407407408,51.777777777777786,0)" xlink:href="#av"/><use transform="matrix(0.07407407407407408,0,0,0.07407407407407408,73.92592592592594,0)" xlink:href="#ap"/><use transform="matrix(0.07407407407407408,0,0,0.07407407407407408,79.77777777777779,0)" xlink:href="#al"/></g><g id="K"><use transform="matrix(0.07407407407407408,0,0,0.07407407407407408,0,0)" xlink:href="#as"/><use transform="matrix(0.07407407407407408,0,0,0.07407407407407408,14.814814814814817,0)" xlink:href="#an"/><use transform="matrix(0.07407407407407408,0,0,0.07407407407407408,28.148148148148152,0)" xlink:href="#an"/><use transform="matrix(0.07407407407407408,0,0,0.07407407407407408,41.48148148148149,0)" xlink:href="#am"/><use transform="matrix(0.07407407407407408,0,0,0.07407407407407408,56.296296296296305,0)" xlink:href="#an"/><use transform="matrix(0.07407407407407408,0,0,0.07407407407407408,69.62962962962965,0)" xlink:href="#an"/><use transform="matrix(0.07407407407407408,0,0,0.07407407407407408,82.96296296296299,0)" xlink:href="#av"/><use transform="matrix(0.07407407407407408,0,0,0.07407407407407408,105.11111111111114,0)" xlink:href="#am"/><use transform="matrix(0.07407407407407408,0,0,0.07407407407407408,119.92592592592595,0)" xlink:href="#ar"/><use transform="matrix(0.07407407407407408,0,0,0.07407407407407408,134.74074074074076,0)" xlink:href="#aB"/></g><path fill="#3a414a" d="M232-93c-1 65-40 97-104 97C67 4 28-28 28-90v-158h33c8 89-33 224 67 224 102 0 64-133 71-224h33v155" id="aV"/><g id="L"><use transform="matrix(0.07407407407407408,0,0,0.07407407407407408,0,0)" xlink:href="#aV"/><use transform="matrix(0.07407407407407408,0,0,0.07407407407407408,19.185185185185187,0)" xlink:href="#aE"/><use transform="matrix(0.07407407407407408,0,0,0.07407407407407408,34,0)" xlink:href="#aT"/><use transform="matrix(0.07407407407407408,0,0,0.07407407407407408,48.81481481481481,0)" xlink:href="#as"/><use transform="matrix(0.07407407407407408,0,0,0.07407407407407408,63.629629629629626,0)" xlink:href="#aB"/><use transform="matrix(0.07407407407407408,0,0,0.07407407407407408,71.03703703703704,0)" xlink:href="#ap"/><use transform="matrix(0.07407407407407408,0,0,0.07407407407407408,76.88888888888889,0)" xlink:href="#ar"/><use transform="matrix(0.07407407407407408,0,0,0.07407407407407408,91.7037037037037,0)" xlink:href="#aq"/></g><g id="M"><use transform="matrix(0.07407407407407408,0,0,0.07407407407407408,0,0)" xlink:href="#aK"/><use transform="matrix(0.07407407407407408,0,0,0.07407407407407408,16.222222222222225,0)" xlink:href="#aN"/><use transform="matrix(0.07407407407407408,0,0,0.07407407407407408,34,0)" xlink:href="#aw"/></g><g id="N"><use transform="matrix(0.07407407407407408,0,0,0.07407407407407408,0,0)" xlink:href="#av"/><use transform="matrix(0.07407407407407408,0,0,0.07407407407407408,22.148148148148152,0)" xlink:href="#ak"/><use transform="matrix(0.07407407407407408,0,0,0.07407407407407408,36.96296296296297,0)" xlink:href="#aT"/><use transform="matrix(0.07407407407407408,0,0,0.07407407407407408,51.777777777777786,0)" xlink:href="#am"/><use transform="matrix(0.07407407407407408,0,0,0.07407407407407408,66.59259259259261,0)" xlink:href="#at"/></g><path fill="#3a414a" d="M160-131c35 5 61 23 61 61C221 17 115-2 30 0v-248c76 3 177-17 177 60 0 33-19 50-47 57zm-97-11c50-1 110 9 110-42 0-47-63-36-110-37v79zm0 115c55-2 124 14 124-45 0-56-70-42-124-44v89" id="aW"/><g id="O"><use transform="matrix(0.07407407407407408,0,0,0.07407407407407408,0,0)" xlink:href="#aW"/><use transform="matrix(0.07407407407407408,0,0,0.07407407407407408,17.77777777777778,0)" xlink:href="#aA"/><use transform="matrix(0.07407407407407408,0,0,0.07407407407407408,32.592592592592595,0)" xlink:href="#ap"/><use transform="matrix(0.07407407407407408,0,0,0.07407407407407408,38.44444444444445,0)" xlink:href="#at"/><use transform="matrix(0.07407407407407408,0,0,0.07407407407407408,44.296296296296305,0)" xlink:href="#aT"/><use transform="matrix(0.07407407407407408,0,0,0.07407407407407408,59.11111111111112,0)" xlink:href="#ap"/><use transform="matrix(0.07407407407407408,0,0,0.07407407407407408,64.96296296296298,0)" xlink:href="#ar"/><use transform="matrix(0.07407407407407408,0,0,0.07407407407407408,79.7777777777778,0)" xlink:href="#aq"/></g><g id="P"><use transform="matrix(0.07407407407407408,0,0,0.07407407407407408,0,0)" xlink:href="#aK"/><use transform="matrix(0.07407407407407408,0,0,0.07407407407407408,16.222222222222225,0)" xlink:href="#aN"/><use transform="matrix(0.07407407407407408,0,0,0.07407407407407408,34,0)" xlink:href="#aw"/></g><path fill="#3a414a" d="M33 0v-248h34V0H33" id="aX"/><g id="Q"><use transform="matrix(0.07407407407407408,0,0,0.07407407407407408,0,0)" xlink:href="#aX"/><use transform="matrix(0.07407407407407408,0,0,0.07407407407407408,7.407407407407408,0)" xlink:href="#an"/></g><g id="R"><use transform="matrix(0.07407407407407408,0,0,0.07407407407407408,0,0)" xlink:href="#av"/><use transform="matrix(0.07407407407407408,0,0,0.07407407407407408,22.148148148148152,0)" xlink:href="#ak"/><use transform="matrix(0.07407407407407408,0,0,0.07407407407407408,36.96296296296297,0)" xlink:href="#aT"/><use transform="matrix(0.07407407407407408,0,0,0.07407407407407408,51.777777777777786,0)" xlink:href="#am"/><use transform="matrix(0.07407407407407408,0,0,0.07407407407407408,66.59259259259261,0)" xlink:href="#at"/></g><g id="S"><use transform="matrix(0.07407407407407408,0,0,0.07407407407407408,0,0)" xlink:href="#au"/><use transform="matrix(0.07407407407407408,0,0,0.07407407407407408,7.407407407407408,0)" xlink:href="#ap"/><use transform="matrix(0.07407407407407408,0,0,0.07407407407407408,13.259259259259261,0)" xlink:href="#aB"/><use transform="matrix(0.07407407407407408,0,0,0.07407407407407408,20.666666666666668,0)" xlink:href="#aB"/><use transform="matrix(0.07407407407407408,0,0,0.07407407407407408,28.074074074074076,0)" xlink:href="#am"/><use transform="matrix(0.07407407407407408,0,0,0.07407407407407408,42.8888888888889,0)" xlink:href="#aT"/></g><g id="T"><use transform="matrix(0.07407407407407408,0,0,0.07407407407407408,0,0)" xlink:href="#am"/><use transform="matrix(0.07407407407407408,0,0,0.07407407407407408,14.814814814814817,0)" xlink:href="#aO"/><use transform="matrix(0.07407407407407408,0,0,0.07407407407407408,28.148148148148152,0)" xlink:href="#aE"/><use transform="matrix(0.07407407407407408,0,0,0.07407407407407408,42.96296296296297,0)" xlink:href="#am"/><use transform="matrix(0.07407407407407408,0,0,0.07407407407407408,57.777777777777786,0)" xlink:href="#aj"/><use transform="matrix(0.07407407407407408,0,0,0.07407407407407408,66.59259259259261,0)" xlink:href="#ap"/><use transform="matrix(0.07407407407407408,0,0,0.07407407407407408,72.44444444444446,0)" xlink:href="#av"/><use transform="matrix(0.07407407407407408,0,0,0.07407407407407408,94.59259259259261,0)" xlink:href="#am"/><use transform="matrix(0.07407407407407408,0,0,0.07407407407407408,109.40740740740742,0)" xlink:href="#ar"/><use transform="matrix(0.07407407407407408,0,0,0.07407407407407408,124.22222222222223,0)" xlink:href="#aB"/><use transform="matrix(0.07407407407407408,0,0,0.07407407407407408,131.62962962962965,0)" xlink:href="#as"/><use transform="matrix(0.07407407407407408,0,0,0.07407407407407408,146.44444444444446,0)" xlink:href="#at"/></g><path fill="#3a414a" d="M103-251c84 0 111 97 45 133-19 10-37 24-39 52H78c0-63 77-55 77-114 0-30-21-42-52-43-32 0-53 17-56 46l-32-2c7-45 34-72 88-72zM77 0v-35h34V0H77" id="aY"/><g id="U"><use transform="matrix(0.07407407407407408,0,0,0.07407407407407408,0,0)" xlink:href="#aj"/><use transform="matrix(0.07407407407407408,0,0,0.07407407407407408,8.814814814814817,0)" xlink:href="#am"/><use transform="matrix(0.07407407407407408,0,0,0.07407407407407408,23.629629629629633,0)" xlink:href="#an"/><use transform="matrix(0.07407407407407408,0,0,0.07407407407407408,36.96296296296297,0)" xlink:href="#aA"/><use transform="matrix(0.07407407407407408,0,0,0.07407407407407408,51.777777777777786,0)" xlink:href="#at"/><use transform="matrix(0.07407407407407408,0,0,0.07407407407407408,57.62962962962964,0)" xlink:href="#aB"/><use transform="matrix(0.07407407407407408,0,0,0.07407407407407408,65.03703703703705,0)" xlink:href="#aY"/></g><path fill="#333" d="M146-102V0H94v-102L6-248h54l60 105 60-105h54" id="aZ"/><path fill="#333" d="M185-48c-13 30-37 53-82 52C43 2 14-33 14-96s30-98 90-98c62 0 83 45 84 108H66c0 31 8 55 39 56 18 0 30-7 34-22zm-45-69c5-46-57-63-70-21-2 6-4 13-4 21h74" id="ba"/><path fill="#333" d="M137-138c1-29-70-34-71-4 15 46 118 7 119 86 1 83-164 76-172 9l43-7c4 19 20 25 44 25 33 8 57-30 24-41C81-84 22-81 20-136c-2-80 154-74 161-7" id="bb"/><g id="V"><use transform="matrix(0.07407407407407408,0,0,0.07407407407407408,0,0)" xlink:href="#aZ"/><use transform="matrix(0.07407407407407408,0,0,0.07407407407407408,16.296296296296298,0)" xlink:href="#ba"/><use transform="matrix(0.07407407407407408,0,0,0.07407407407407408,31.111111111111114,0)" xlink:href="#bb"/></g><path fill="#333" d="M175 0L67-191c6 58 2 128 3 191H24v-248h59L193-55c-6-58-2-129-3-193h46V0h-61" id="bc"/><path fill="#333" d="M110-194c64 0 96 36 96 99 0 64-35 99-97 99-61 0-95-36-95-99 0-62 34-99 96-99zm-1 164c35 0 45-28 45-65 0-40-10-65-43-65-34 0-45 26-45 65 0 36 10 65 43 65" id="bd"/><g id="W"><use transform="matrix(0.07407407407407408,0,0,0.07407407407407408,0,0)" xlink:href="#bc"/><use transform="matrix(0.07407407407407408,0,0,0.07407407407407408,19.185185185185187,0)" xlink:href="#bd"/></g><g id="X"><use transform="matrix(0.07407407407407408,0,0,0.07407407407407408,0,0)" xlink:href="#ao"/><use transform="matrix(0.07407407407407408,0,0,0.07407407407407408,17.77777777777778,0)" xlink:href="#aA"/><use transform="matrix(0.07407407407407408,0,0,0.07407407407407408,32.592592592592595,0)" xlink:href="#aj"/><use transform="matrix(0.07407407407407408,0,0,0.07407407407407408,41.40740740740741,0)" xlink:href="#aj"/><use transform="matrix(0.07407407407407408,0,0,0.07407407407407408,50.22222222222223,0)" xlink:href="#ak"/><use transform="matrix(0.07407407407407408,0,0,0.07407407407407408,65.03703703703704,0)" xlink:href="#aq"/><use transform="matrix(0.07407407407407408,0,0,0.07407407407407408,79.85185185185185,0)" xlink:href="#as"/><use transform="matrix(0.07407407407407408,0,0,0.07407407407407408,94.66666666666666,0)" xlink:href="#aB"/><use transform="matrix(0.07407407407407408,0,0,0.07407407407407408,102.07407407407405,0)" xlink:href="#am"/></g><path fill="#3a414a" d="M24-248c93 1 206-16 204 79-1 75-69 88-152 82V0H24v-248zm52 121c47 0 100 7 100-41 0-47-54-39-100-39v80" id="be"/><path fill="#3a414a" d="M135-150c-39-12-60 13-60 57V0H25l-1-190h47c2 13-1 29 3 40 6-28 27-53 61-41v41" id="bf"/><path fill="#3a414a" d="M110-194c64 0 96 36 96 99 0 64-35 99-97 99-61 0-95-36-95-99 0-62 34-99 96-99zm-1 164c35 0 45-28 45-65 0-40-10-65-43-65-34 0-45 26-45 65 0 36 10 65 43 65" id="bg"/><path fill="#3a414a" d="M135-194c53 0 70 44 70 98 0 56-19 98-73 100-31 1-45-17-59-34 3 33 2 69 2 105H25l-1-265h48c2 10 0 23 3 31 11-24 29-35 60-35zM114-30c33 0 39-31 40-66 0-38-9-64-40-64-56 0-55 130 0 130" id="bh"/><path fill="#3a414a" d="M137-138c1-29-70-34-71-4 15 46 118 7 119 86 1 83-164 76-172 9l43-7c4 19 20 25 44 25 33 8 57-30 24-41C81-84 22-81 20-136c-2-80 154-74 161-7" id="bi"/><path fill="#3a414a" d="M185-48c-13 30-37 53-82 52C43 2 14-33 14-96s30-98 90-98c62 0 83 45 84 108H66c0 31 8 55 39 56 18 0 30-7 34-22zm-45-69c5-46-57-63-70-21-2 6-4 13-4 21h74" id="bj"/><path fill="#3a414a" d="M88-194c31-1 46 15 58 34l-1-101h50l1 261h-48c-2-10 0-23-3-31C134-8 116 4 84 4 32 4 16-41 15-95c0-56 19-97 73-99zm17 164c33 0 40-30 41-66 1-37-9-64-41-64s-38 30-39 65c0 43 13 65 39 65" id="bk"/><g id="Y"><use transform="matrix(0.08641975308641975,0,0,0.08641975308641975,0,0)" xlink:href="#be"/><use transform="matrix(0.08641975308641975,0,0,0.08641975308641975,20.74074074074074,0)" xlink:href="#bf"/><use transform="matrix(0.08641975308641975,0,0,0.08641975308641975,32.839506172839506,0)" xlink:href="#bg"/><use transform="matrix(0.08641975308641975,0,0,0.08641975308641975,51.76543209876543,0)" xlink:href="#bh"/><use transform="matrix(0.08641975308641975,0,0,0.08641975308641975,70.69135802469135,0)" xlink:href="#bg"/><use transform="matrix(0.08641975308641975,0,0,0.08641975308641975,89.61728395061728,0)" xlink:href="#bi"/><use transform="matrix(0.08641975308641975,0,0,0.08641975308641975,106.90123456790123,0)" xlink:href="#bj"/><use transform="matrix(0.08641975308641975,0,0,0.08641975308641975,124.18518518518518,0)" xlink:href="#bk"/></g><path fill="#3a414a" d="M121-226c-27-7-43 5-38 36h38v33H83V0H34v-157H6v-33h28c-9-59 32-81 87-68v32" id="bl"/><path fill="#3a414a" d="M133-34C117-15 103 5 69 4 32 3 11-16 11-54c-1-60 55-63 116-61 1-26-3-47-28-47-18 1-26 9-28 27l-52-2c7-38 36-58 82-57s74 22 75 68l1 82c-1 14 12 18 25 15v27c-30 8-71 5-69-32zm-48 3c29 0 43-24 42-57-32 0-66-3-65 30 0 17 8 27 23 27" id="bm"/><path fill="#3a414a" d="M220-157c-53 9-28 100-34 157h-49v-107c1-27-5-49-29-50C55-147 81-57 75 0H25l-1-190h47c2 12-1 28 3 38 10-53 101-56 108 0 13-22 24-43 59-42 82 1 51 116 57 194h-49v-107c-1-25-5-48-29-50" id="bn"/><path fill="#3a414a" d="M231 0h-52l-39-155L100 0H48L-1-190h46L77-45c9-52 24-97 36-145h53l37 145 32-145h46" id="bo"/><path fill="#3a414a" d="M147 0L96-86 75-71V0H25v-261h50v150l67-79h53l-66 74L201 0h-54" id="bp"/><g id="Z"><use transform="matrix(0.08641975308641975,0,0,0.08641975308641975,0,0)" xlink:href="#bl"/><use transform="matrix(0.08641975308641975,0,0,0.08641975308641975,10.28395061728395,0)" xlink:href="#bf"/><use transform="matrix(0.08641975308641975,0,0,0.08641975308641975,22.382716049382715,0)" xlink:href="#bm"/><use transform="matrix(0.08641975308641975,0,0,0.08641975308641975,39.666666666666664,0)" xlink:href="#bn"/><use transform="matrix(0.08641975308641975,0,0,0.08641975308641975,67.32098765432099,0)" xlink:href="#bj"/><use transform="matrix(0.08641975308641975,0,0,0.08641975308641975,84.60493827160494,0)" xlink:href="#bo"/><use transform="matrix(0.08641975308641975,0,0,0.08641975308641975,108.80246913580247,0)" xlink:href="#bg"/><use transform="matrix(0.08641975308641975,0,0,0.08641975308641975,127.72839506172839,0)" xlink:href="#bf"/><use transform="matrix(0.08641975308641975,0,0,0.08641975308641975,139.82716049382717,0)" xlink:href="#bp"/></g><path fill="#3a414a" d="M114-157C55-157 80-60 75 0H25v-261h50l-1 109c12-26 28-41 61-42 86-1 58 113 63 194h-50c-7-57 23-157-34-157" id="bq"/><g id="aa"><use transform="matrix(0.07407407407407408,0,0,0.07407407407407408,0,0)" xlink:href="#be"/><use transform="matrix(0.07407407407407408,0,0,0.07407407407407408,17.77777777777778,0)" xlink:href="#bq"/><use transform="matrix(0.07407407407407408,0,0,0.07407407407407408,34,0)" xlink:href="#bm"/><use transform="matrix(0.07407407407407408,0,0,0.07407407407407408,48.81481481481481,0)" xlink:href="#bi"/><use transform="matrix(0.07407407407407408,0,0,0.07407407407407408,63.629629629629626,0)" xlink:href="#bj"/></g><path fill="#3a414a" d="M23 0v-37h61v-169l-59 37v-38l62-41h46v211h57V0H23" id="br"/><use transform="matrix(0.07407407407407408,0,0,0.07407407407407408,0,0)" xlink:href="#br" id="ab"/><path fill="#3a414a" d="M182-182c0 78-84 86-111 141h115V0H12c-6-101 99-100 120-180 1-22-12-31-33-32-23 0-32 14-35 34l-49-3c5-45 32-70 84-70 51 0 83 22 83 69" id="bs"/><use transform="matrix(0.07407407407407408,0,0,0.07407407407407408,0,0)" xlink:href="#bs" id="ac"/><g id="ad"><use transform="matrix(0.07407407407407408,0,0,0.07407407407407408,0,0)" xlink:href="#aW"/><use transform="matrix(0.07407407407407408,0,0,0.07407407407407408,17.77777777777778,0)" xlink:href="#aA"/><use transform="matrix(0.07407407407407408,0,0,0.07407407407407408,32.592592592592595,0)" xlink:href="#ap"/><use transform="matrix(0.07407407407407408,0,0,0.07407407407407408,38.44444444444445,0)" xlink:href="#at"/><use transform="matrix(0.07407407407407408,0,0,0.07407407407407408,44.296296296296305,0)" xlink:href="#aT"/></g><g id="ae"><use transform="matrix(0.07407407407407408,0,0,0.07407407407407408,0,0)" xlink:href="#an"/><use transform="matrix(0.07407407407407408,0,0,0.07407407407407408,13.333333333333336,0)" xlink:href="#aA"/><use transform="matrix(0.07407407407407408,0,0,0.07407407407407408,28.148148148148152,0)" xlink:href="#aj"/><use transform="matrix(0.07407407407407408,0,0,0.07407407407407408,36.96296296296297,0)" xlink:href="#aj"/><use transform="matrix(0.07407407407407408,0,0,0.07407407407407408,45.777777777777786,0)" xlink:href="#ak"/><use transform="matrix(0.07407407407407408,0,0,0.07407407407407408,60.5925925925926,0)" xlink:href="#aq"/><use transform="matrix(0.07407407407407408,0,0,0.07407407407407408,75.40740740740742,0)" xlink:href="#as"/><use transform="matrix(0.07407407407407408,0,0,0.07407407407407408,90.22222222222223,0)" xlink:href="#aB"/><use transform="matrix(0.07407407407407408,0,0,0.07407407407407408,97.62962962962962,0)" xlink:href="#am"/></g><path fill="#3a414a" d="M140-251c80 0 125 45 125 126S219 4 139 4C58 4 15-44 15-125s44-126 125-126zm-1 214c52 0 73-35 73-88 0-50-21-86-72-86-52 0-73 35-73 86s22 88 72 88" id="bt"/><path fill="#3a414a" d="M85 4C-2 5 27-109 22-190h50c7 57-23 150 33 157 60-5 35-97 40-157h50l1 190h-47c-2-12 1-28-3-38-12 25-28 42-61 42" id="bu"/><path fill="#3a414a" d="M115-3C79 11 28 4 28-45v-112H4v-33h27l15-45h31v45h36v33H77v99c-1 23 16 31 38 25v30" id="bv"/><path fill="#3a414a" d="M25 0v-261h50V0H25" id="bw"/><g id="af"><use transform="matrix(0.07407407407407408,0,0,0.07407407407407408,0,0)" xlink:href="#bt"/><use transform="matrix(0.07407407407407408,0,0,0.07407407407407408,20.740740740740744,0)" xlink:href="#bu"/><use transform="matrix(0.07407407407407408,0,0,0.07407407407407408,36.96296296296297,0)" xlink:href="#bv"/><use transform="matrix(0.07407407407407408,0,0,0.07407407407407408,45.777777777777786,0)" xlink:href="#bw"/><use transform="matrix(0.07407407407407408,0,0,0.07407407407407408,53.18518518518519,0)" xlink:href="#bg"/><use transform="matrix(0.07407407407407408,0,0,0.07407407407407408,69.40740740740742,0)" xlink:href="#bg"/><use transform="matrix(0.07407407407407408,0,0,0.07407407407407408,85.62962962962965,0)" xlink:href="#bp"/></g><path fill="#333" d="M24 0v-248h195v40H76v63h132v40H76v65h150V0H24" id="bx"/><path fill="#333" d="M144 0l-44-69L55 0H2l70-98-66-92h53l41 62 40-62h54l-67 91 71 99h-54" id="by"/><path fill="#333" d="M190-63c-7 42-38 67-86 67-59 0-84-38-90-98-12-110 154-137 174-36l-49 2c-2-19-15-32-35-32-30 0-35 28-38 64-6 74 65 87 74 30" id="bz"/><path fill="#333" d="M25-224v-37h50v37H25zM25 0v-190h50V0H25" id="bA"/><path fill="#333" d="M115-3C79 11 28 4 28-45v-112H4v-33h27l15-45h31v45h36v33H77v99c-1 23 16 31 38 25v30" id="bB"/><path fill="#333" d="M133-34C117-15 103 5 69 4 32 3 11-16 11-54c-1-60 55-63 116-61 1-26-3-47-28-47-18 1-26 9-28 27l-52-2c7-38 36-58 82-57s74 22 75 68l1 82c-1 14 12 18 25 15v27c-30 8-71 5-69-32zm-48 3c29 0 43-24 42-57-32 0-66-3-65 30 0 17 8 27 23 27" id="bC"/><path fill="#333" d="M135-194c87-1 58 113 63 194h-50c-7-57 23-157-34-157-59 0-34 97-39 157H25l-1-190h47c2 12-1 28 3 38 12-26 28-41 61-42" id="bD"/><g id="ag"><use transform="matrix(0.07407407407407408,0,0,0.07407407407407408,0,0)" xlink:href="#bx"/><use transform="matrix(0.07407407407407408,0,0,0.07407407407407408,17.77777777777778,0)" xlink:href="#by"/><use transform="matrix(0.07407407407407408,0,0,0.07407407407407408,32.592592592592595,0)" xlink:href="#bz"/><use transform="matrix(0.07407407407407408,0,0,0.07407407407407408,47.40740740740741,0)" xlink:href="#bA"/><use transform="matrix(0.07407407407407408,0,0,0.07407407407407408,54.814814814814824,0)" xlink:href="#bB"/><use transform="matrix(0.07407407407407408,0,0,0.07407407407407408,63.62962962962964,0)" xlink:href="#bC"/><use transform="matrix(0.07407407407407408,0,0,0.07407407407407408,78.44444444444446,0)" xlink:href="#bB"/><use transform="matrix(0.07407407407407408,0,0,0.07407407407407408,87.25925925925927,0)" xlink:href="#bA"/><use transform="matrix(0.07407407407407408,0,0,0.07407407407407408,94.66666666666669,0)" xlink:href="#bd"/><use transform="matrix(0.07407407407407408,0,0,0.07407407407407408,110.8888888888889,0)" xlink:href="#bD"/></g><path fill="#333" d="M121-226c-27-7-43 5-38 36h38v33H83V0H34v-157H6v-33h28c-9-59 32-81 87-68v32" id="bE"/><path fill="#333" d="M135-150c-39-12-60 13-60 57V0H25l-1-190h47c2 13-1 29 3 40 6-28 27-53 61-41v41" id="bF"/><path fill="#333" d="M220-157c-53 9-28 100-34 157h-49v-107c1-27-5-49-29-50C55-147 81-57 75 0H25l-1-190h47c2 12-1 28 3 38 10-53 101-56 108 0 13-22 24-43 59-42 82 1 51 116 57 194h-49v-107c-1-25-5-48-29-50" id="bG"/><g id="ah"><use transform="matrix(0.07407407407407408,0,0,0.07407407407407408,0,0)" xlink:href="#bA"/><use transform="matrix(0.07407407407407408,0,0,0.07407407407407408,7.407407407407408,0)" xlink:href="#bD"/><use transform="matrix(0.07407407407407408,0,0,0.07407407407407408,23.629629629629633,0)" xlink:href="#bE"/><use transform="matrix(0.07407407407407408,0,0,0.07407407407407408,32.44444444444445,0)" xlink:href="#bd"/><use transform="matrix(0.07407407407407408,0,0,0.07407407407407408,48.66666666666667,0)" xlink:href="#bF"/><use transform="matrix(0.07407407407407408,0,0,0.07407407407407408,59.037037037037045,0)" xlink:href="#bG"/><use transform="matrix(0.07407407407407408,0,0,0.07407407407407408,82.74074074074075,0)" xlink:href="#bC"/><use transform="matrix(0.07407407407407408,0,0,0.07407407407407408,97.55555555555557,0)" xlink:href="#bB"/><use transform="matrix(0.07407407407407408,0,0,0.07407407407407408,106.37037037037038,0)" xlink:href="#bA"/><use transform="matrix(0.07407407407407408,0,0,0.07407407407407408,113.7777777777778,0)" xlink:href="#bd"/><use transform="matrix(0.07407407407407408,0,0,0.07407407407407408,130,0)" xlink:href="#bD"/></g></defs></g></svg>